LF.ufo
<glyph name="exclam" format="1">
  <advance width="212"/>
  <unicode hex="0021"/>
  <outline>
    <contour>
      <point x="12" y="694"/>
      <point x="6" y="692"/>
      <point x="4" y="690" type="curve" smooth="yes"/>
      <point x="0" y="686"/>
      <point x="0" y="685"/>
      <point x="0" y="666" type="curve" smooth="yes"/>
      <point x="1" y="643"/>
      <point x="5" y="614"/>
      <point x="10" y="593" type="curve" smooth="yes"/>
      <point x="13" y="580"/>
      <point x="15" y="563"/>
      <point x="19" y="512" type="curve" smooth="yes"/>
      <point x="20" y="499"/>
      <point x="23" y="482"/>
      <point x="24" y="473" type="curve" smooth="yes"/>
      <point x="26" y="464"/>
      <point x="27" y="452"/>
      <point x="27" y="445" type="curve" smooth="yes"/>
      <point x="27" y="438"/>
      <point x="28" y="429"/>
      <point x="29" y="425" type="curve" smooth="yes"/>
      <point x="30" y="421"/>
      <point x="32" y="403"/>
      <point x="34" y="387" type="curve" smooth="yes"/>
      <point x="36" y="370"/>
      <point x="38" y="348"/>
      <point x="40" y="337" type="curve" smooth="yes"/>
      <point x="41" y="326"/>
      <point x="43" y="312"/>
      <point x="44" y="305" type="curve" smooth="yes"/>
      <point x="46" y="283"/>
      <point x="49" y="267"/>
      <point x="52" y="263" type="curve" smooth="yes"/>
      <point x="60" y="255"/>
      <point x="76" y="252"/>
      <point x="123" y="252" type="curve" smooth="yes"/>
      <point x="145" y="251"/>
      <point x="148" y="252"/>
      <point x="154" y="256" type="curve" smooth="yes"/>
      <point x="158" y="258"/>
      <point x="162" y="262"/>
      <point x="163" y="265" type="curve" smooth="yes"/>
      <point x="164" y="270"/>
      <point x="166" y="300"/>
      <point x="167" y="317" type="curve" smooth="yes"/>
      <point x="167" y="329"/>
      <point x="174" y="377"/>
      <point x="177" y="394" type="curve" smooth="yes"/>
      <point x="178" y="399"/>
      <point x="181" y="419"/>
      <point x="182" y="438" type="curve" smooth="yes"/>
      <point x="184" y="458"/>
      <point x="186" y="478"/>
      <point x="188" y="484" type="curve" smooth="yes"/>
      <point x="189" y="489"/>
      <point x="191" y="503"/>
      <point x="192" y="515" type="curve" smooth="yes"/>
      <point x="193" y="526"/>
      <point x="195" y="546"/>
      <point x="197" y="559" type="curve" smooth="yes"/>
      <point x="199" y="572"/>
      <point x="201" y="589"/>
      <point x="201" y="597" type="curve" smooth="yes"/>
      <point x="202" y="605"/>
      <point x="203" y="617"/>
      <point x="205" y="623" type="curve" smooth="yes"/>
      <point x="206" y="629"/>
      <point x="207" y="641"/>
      <point x="208" y="651" type="curve" smooth="yes"/>
      <point x="209" y="661"/>
      <point x="211" y="671"/>
      <point x="212" y="675" type="curve" smooth="yes"/>
      <point x="213" y="682"/>
      <point x="208" y="690"/>
      <point x="201" y="692" type="curve" smooth="yes"/>
      <point x="198" y="693"/>
      <point x="169" y="694"/>
      <point x="135" y="694" type="curve" smooth="yes"/>
      <point x="102" y="694"/>
      <point x="64" y="695"/>
      <point x="50" y="695" type="curve" smooth="yes"/>
      <point x="36" y="696"/>
      <point x="21" y="696"/>
      <point x="16" y="695" type="curve" smooth="yes"/>
    </contour>
    <contour>
      <point x="31" y="186"/>
      <point x="19" y="186"/>
      <point x="16" y="185" type="curve" smooth="yes"/>
      <point x="9" y="183"/>
      <point x="7" y="175"/>
      <point x="6" y="147" type="curve" smooth="yes"/>
      <point x="6" y="124"/>
      <point x="5" y="32"/>
      <point x="6" y="18" type="curve" smooth="yes"/>
      <point x="6" y="15"/>
      <point x="8" y="10"/>
      <point x="11" y="6" type="curve" smooth="yes"/>
      <point x="17" y="0" type="line"/>
      <point x="100" y="0" type="line" smooth="yes"/>
      <point x="191" y="0"/>
      <point x="195" y="0"/>
      <point x="199" y="11" type="curve" smooth="yes"/>
      <point x="202" y="18"/>
      <point x="203" y="161"/>
      <point x="200" y="173" type="curve" smooth="yes"/>
      <point x="197" y="185"/>
      <point x="193" y="187"/>
      <point x="163" y="187" type="curve" smooth="yes"/>
      <point x="129" y="186"/>
      <point x="107" y="185"/>
      <point x="103" y="183" type="curve" smooth="yes"/>
      <point x="101" y="182"/>
      <point x="98" y="182"/>
      <point x="96" y="183" type="curve" smooth="yes"/>
      <point x="94" y="184"/>
      <point x="90" y="185"/>
      <point x="87" y="185" type="curve" smooth="yes"/>
      <point x="83" y="186"/>
      <point x="78" y="186"/>
      <point x="75" y="186" type="curve" smooth="yes"/>
      <point x="72" y="187"/>
      <point x="58" y="187"/>
      <point x="45" y="187" type="curve" smooth="yes"/>
    </contour>
  </outline>
</glyph>
<glyph name="dollar" format="1">
  <advance width="635"/>
  <unicode hex="0024"/>
  <outline>
    <contour>
      <point x="612" y="318"/>
      <point x="542" y="395"/>
      <point x="448" y="417" type="curve" smooth="yes"/>
      <point x="385" y="432" type="line" smooth="yes"/>
      <point x="376" y="434"/>
      <point x="373" y="437"/>
      <point x="373" y="444" type="curve" smooth="yes"/>
      <point x="373" y="552" type="line" smooth="yes"/>
      <point x="373" y="558"/>
      <point x="378" y="563"/>
      <point x="386" y="560" type="curve" smooth="yes"/>
      <point x="414" y="549"/>
      <point x="439" y="533"/>
      <point x="455" y="519" type="curve" smooth="yes"/>
      <point x="470" y="506"/>
      <point x="479" y="510"/>
      <point x="487" y="520" type="curve" smooth="yes"/>
      <point x="549" y="603" type="line" smooth="yes"/>
      <point x="558" y="615"/>
      <point x="555" y="625"/>
      <point x="545" y="631" type="curve" smooth="yes"/>
      <point x="502" y="657"/>
      <point x="451" y="677"/>
      <point x="389" y="694" type="curve" smooth="yes"/>
      <point x="379" y="697"/>
      <point x="376" y="699"/>
      <point x="374" y="704" type="curve" smooth="yes"/>
      <point x="367" y="721"/>
      <point x="362" y="724"/>
      <point x="353" y="724" type="curve" smooth="yes"/>
      <point x="278" y="724" type="line" smooth="yes"/>
      <point x="259" y="724"/>
      <point x="260" y="698"/>
      <point x="236" y="693" type="curve" smooth="yes"/>
      <point x="99" y="664"/>
      <point x="29" y="584"/>
      <point x="29" y="486" type="curve" smooth="yes"/>
      <point x="29" y="387"/>
      <point x="84" y="296"/>
      <point x="247" y="273" type="curve" smooth="yes"/>
      <point x="258" y="270"/>
      <point x="259" y="267"/>
      <point x="259" y="257" type="curve" smooth="yes"/>
      <point x="258" y="141" type="line" smooth="yes"/>
      <point x="258" y="130"/>
      <point x="253" y="128"/>
      <point x="241" y="130" type="curve" smooth="yes"/>
      <point x="194" y="142"/>
      <point x="154" y="166"/>
      <point x="123" y="195" type="curve" smooth="yes"/>
      <point x="111" y="206"/>
      <point x="102" y="207"/>
      <point x="90" y="193" type="curve" smooth="yes"/>
      <point x="17" y="110" type="line" smooth="yes"/>
      <point x="7" y="99"/>
      <point x="11" y="87"/>
      <point x="30" y="74" type="curve" smooth="yes"/>
      <point x="91" y="31"/>
      <point x="153" y="6"/>
      <point x="239" y="-1" type="curve" smooth="yes"/>
      <point x="252" y="-1"/>
      <point x="256" y="-5"/>
      <point x="256" y="-19" type="curve" smooth="yes"/>
      <point x="256" y="-88" type="line" smooth="yes"/>
      <point x="256" y="-104"/>
      <point x="262" y="-112"/>
      <point x="281" y="-112" type="curve" smooth="yes"/>
      <point x="345" y="-112" type="line" smooth="yes"/>
      <point x="365" y="-112"/>
      <point x="374" y="-104"/>
      <point x="374" y="-85" type="curve" smooth="yes"/>
      <point x="374" y="-21" type="line" smooth="yes"/>
      <point x="374" y="-6"/>
      <point x="376" y="-3"/>
      <point x="394" y="-1" type="curve" smooth="yes"/>
      <point x="528" y="16"/>
      <point x="612" y="103"/>
      <point x="612" y="221" type="curve"/>
    </contour>
    <contour>
      <point x="259" y="455"/>
      <point x="253" y="449"/>
      <point x="240" y="451" type="curve" smooth="yes"/>
      <point x="202" y="457"/>
      <point x="182" y="477"/>
      <point x="182" y="509" type="curve" smooth="yes"/>
      <point x="182" y="532"/>
      <point x="200" y="555"/>
      <point x="245" y="566" type="curve" smooth="yes"/>
      <point x="255" y="568"/>
      <point x="259" y="564"/>
      <point x="259" y="553" type="curve" smooth="yes"/>
      <point x="259" y="471" type="line" smooth="yes"/>
    </contour>
    <contour>
      <point x="373" y="244" type="line" smooth="yes"/>
      <point x="373" y="254"/>
      <point x="376" y="255"/>
      <point x="383" y="254" type="curve" smooth="yes"/>
      <point x="436" y="246"/>
      <point x="457" y="221"/>
      <point x="457" y="189" type="curve" smooth="yes"/>
      <point x="457" y="161"/>
      <point x="432" y="139"/>
      <point x="387" y="129" type="curve" smooth="yes"/>
      <point x="379" y="127"/>
      <point x="373" y="129"/>
      <point x="373" y="136" type="curve" smooth="yes"/>
    </contour>
  </outline>
</glyph>
<glyph name="ampersand" format="1">
  <advance width="780"/>
  <unicode hex="0026"/>
  <outline>
    <contour>
      <point x="269" y="703"/>
      <point x="236" y="694"/>
      <point x="216" y="681" type="curve" smooth="yes"/>
      <point x="211" y="678"/>
      <point x="200" y="672"/>
      <point x="193" y="667" type="curve" smooth="yes"/>
      <point x="178" y="659"/>
      <point x="161" y="645"/>
      <point x="153" y="632" type="curve" smooth="yes"/>
      <point x="145" y="621"/>
      <point x="130" y="591"/>
      <point x="125" y="576" type="curve" smooth="yes"/>
      <point x="117" y="551"/>
      <point x="121" y="501"/>
      <point x="132" y="476" type="curve" smooth="yes"/>
      <point x="134" y="473"/>
      <point x="137" y="467"/>
      <point x="138" y="464" type="curve" smooth="yes"/>
      <point x="144" y="449"/>
      <point x="162" y="422"/>
      <point x="177" y="404" type="curve" smooth="yes"/>
      <point x="182" y="399"/>
      <point x="186" y="393"/>
      <point x="186" y="391" type="curve" smooth="yes"/>
      <point x="186" y="387"/>
      <point x="179" y="382"/>
      <point x="165" y="376" type="curve" smooth="yes"/>
      <point x="160" y="374"/>
      <point x="154" y="370"/>
      <point x="152" y="368" type="curve" smooth="yes"/>
      <point x="150" y="366"/>
      <point x="143" y="362"/>
      <point x="137" y="359" type="curve" smooth="yes"/>
      <point x="131" y="357"/>
      <point x="124" y="352"/>
      <point x="121" y="350" type="curve" smooth="yes"/>
      <point x="117" y="347"/>
      <point x="112" y="344"/>
      <point x="109" y="342" type="curve" smooth="yes"/>
      <point x="100" y="338"/>
      <point x="69" y="312"/>
      <point x="61" y="303" type="curve" smooth="yes"/>
      <point x="58" y="299"/>
      <point x="51" y="291"/>
      <point x="46" y="286" type="curve" smooth="yes"/>
      <point x="34" y="272"/>
      <point x="17" y="236"/>
      <point x="14" y="219" type="curve" smooth="yes"/>
      <point x="13" y="216"/>
      <point x="12" y="208"/>
      <point x="10" y="201" type="curve" smooth="yes"/>
      <point x="7" y="180"/>
      <point x="11" y="144"/>
      <point x="21" y="116" type="curve" smooth="yes"/>
      <point x="26" y="103"/>
      <point x="27" y="101"/>
      <point x="39" y="83" type="curve" smooth="yes"/>
      <point x="48" y="69"/>
      <point x="70" y="46"/>
      <point x="80" y="41" type="curve" smooth="yes"/>
      <point x="84" y="39"/>
      <point x="90" y="35"/>
      <point x="93" y="32" type="curve" smooth="yes"/>
      <point x="110" y="19"/>
      <point x="156" y="3"/>
      <point x="195" y="-3" type="curve" smooth="yes"/>
      <point x="233" y="-8"/>
      <point x="330" y="-5"/>
      <point x="356" y="3" type="curve" smooth="yes"/>
      <point x="361" y="4"/>
      <point x="372" y="7"/>
      <point x="378" y="9" type="curve" smooth="yes"/>
      <point x="409" y="17"/>
      <point x="460" y="43"/>
      <point x="486" y="62" type="curve" smooth="yes"/>
      <point x="493" y="67"/>
      <point x="494" y="68"/>
      <point x="501" y="66" type="curve" smooth="yes"/>
      <point x="504" y="65"/>
      <point x="508" y="63"/>
      <point x="508" y="62" type="curve" smooth="yes"/>
      <point x="508" y="62"/>
      <point x="512" y="59"/>
      <point x="517" y="56" type="curve" smooth="yes"/>
      <point x="522" y="54"/>
      <point x="531" y="48"/>
      <point x="538" y="43" type="curve" smooth="yes"/>
      <point x="555" y="31"/>
      <point x="590" y="18"/>
      <point x="619" y="13" type="curve" smooth="yes"/>
      <point x="625" y="12"/>
      <point x="634" y="10"/>
      <point x="639" y="9" type="curve" smooth="yes"/>
      <point x="645" y="8"/>
      <point x="656" y="7"/>
      <point x="666" y="6" type="curve" smooth="yes"/>
      <point x="675" y="4"/>
      <point x="687" y="3"/>
      <point x="693" y="2" type="curve" smooth="yes"/>
      <point x="711" y="-1"/>
      <point x="741" y="0"/>
      <point x="750" y="5" type="curve" smooth="yes"/>
      <point x="765" y="12"/>
      <point x="765" y="11"/>
      <point x="765" y="79" type="curve" smooth="yes"/>
      <point x="766" y="156"/>
      <point x="766" y="157"/>
      <point x="739" y="160" type="curve" smooth="yes"/>
      <point x="731" y="161"/>
      <point x="720" y="162"/>
      <point x="714" y="163" type="curve" smooth="yes"/>
      <point x="692" y="165"/>
      <point x="671" y="171"/>
      <point x="654" y="181" type="curve" smooth="yes"/>
      <point x="646" y="186"/>
      <point x="640" y="190"/>
      <point x="640" y="192" type="curve" smooth="yes"/>
      <point x="640" y="196"/>
      <point x="649" y="209"/>
      <point x="660" y="222" type="curve" smooth="yes"/>
      <point x="665" y="228"/>
      <point x="672" y="239"/>
      <point x="676" y="246" type="curve" smooth="yes"/>
      <point x="680" y="254"/>
      <point x="687" y="264"/>
      <point x="692" y="270" type="curve" smooth="yes"/>
      <point x="700" y="280"/>
      <point x="705" y="288"/>
      <point x="718" y="309" type="curve" smooth="yes"/>
      <point x="724" y="320"/>
      <point x="732" y="341"/>
      <point x="732" y="348" type="curve" smooth="yes"/>
      <point x="732" y="357"/>
      <point x="715" y="370"/>
      <point x="697" y="373" type="curve" smooth="yes"/>
      <point x="689" y="375"/>
      <point x="680" y="378"/>
      <point x="677" y="379" type="curve" smooth="yes"/>
      <point x="674" y="381"/>
      <point x="666" y="383"/>
      <point x="659" y="385" type="curve" smooth="yes"/>
      <point x="652" y="386"/>
      <point x="641" y="390"/>
      <point x="634" y="394" type="curve" smooth="yes"/>
      <point x="620" y="400"/>
      <point x="604" y="402"/>
      <point x="599" y="396" type="curve" smooth="yes"/>
      <point x="598" y="395"/>
      <point x="593" y="386"/>
      <point x="589" y="378" type="curve" smooth="yes"/>
      <point x="566" y="335"/>
      <point x="562" y="328"/>
      <point x="559" y="325" type="curve" smooth="yes"/>
      <point x="556" y="322"/>
      <point x="552" y="317"/>
      <point x="550" y="312" type="curve" smooth="yes"/>
      <point x="544" y="303"/>
      <point x="536" y="296"/>
      <point x="530" y="296" type="curve" smooth="yes"/>
      <point x="525" y="296"/>
      <point x="448" y="372"/>
      <point x="448" y="379" type="curve" smooth="yes"/>
      <point x="447" y="382"/>
      <point x="449" y="384"/>
      <point x="458" y="388" type="curve" smooth="yes"/>
      <point x="477" y="397"/>
      <point x="508" y="421"/>
      <point x="525" y="440" type="curve" smooth="yes"/>
      <point x="568" y="486"/>
      <point x="584" y="517"/>
      <point x="584" y="555" type="curve" smooth="yes"/>
      <point x="584" y="576"/>
      <point x="580" y="587"/>
      <point x="566" y="617" type="curve" smooth="yes"/>
      <point x="560" y="630"/>
      <point x="555" y="637"/>
      <point x="541" y="651" type="curve" smooth="yes"/>
      <point x="526" y="667"/>
      <point x="522" y="669"/>
      <point x="503" y="679" type="curve" smooth="yes"/>
      <point x="472" y="693"/>
      <point x="455" y="699"/>
      <point x="422" y="705" type="curve" smooth="yes"/>
      <point x="414" y="706"/>
      <point x="406" y="708"/>
      <point x="404" y="708" type="curve" smooth="yes"/>
      <point x="399" y="710"/>
      <point x="333" y="711"/>
      <point x="319" y="709" type="curve" smooth="yes"/>
    </contour>
    <contour>
      <point x="400" y="593"/>
      <point x="406" y="589"/>
      <point x="412" y="579" type="curve" smooth="yes"/>
      <point x="422" y="565"/>
      <point x="424" y="555"/>
      <point x="423" y="540" type="curve" smooth="yes"/>
      <point x="422" y="515"/>
      <point x="406" y="493"/>
      <point x="378" y="476" type="curve" smooth="yes"/>
      <point x="370" y="472"/>
      <point x="369" y="472"/>
      <point x="363" y="474" type="curve" smooth="yes"/>
      <point x="359" y="476"/>
      <point x="349" y="485"/>
      <point x="339" y="497" type="curve" smooth="yes"/>
      <point x="307" y="534"/>
      <point x="300" y="551"/>
      <point x="309" y="572" type="curve" smooth="yes"/>
      <point x="315" y="587"/>
      <point x="327" y="597"/>
      <point x="341" y="600" type="curve" smooth="yes"/>
      <point x="356" y="603"/>
      <point x="369" y="603"/>
      <point x="381" y="599" type="curve" smooth="yes"/>
    </contour>
    <contour>
      <point x="291" y="273"/>
      <point x="326" y="236"/>
      <point x="333" y="227" type="curve" smooth="yes"/>
      <point x="336" y="224"/>
      <point x="348" y="210"/>
      <point x="360" y="198" type="curve" smooth="yes"/>
      <point x="377" y="181"/>
      <point x="383" y="173"/>
      <point x="383" y="170" type="curve" smooth="yes"/>
      <point x="383" y="164"/>
      <point x="371" y="152"/>
      <point x="364" y="151" type="curve" smooth="yes"/>
      <point x="361" y="150"/>
      <point x="355" y="147"/>
      <point x="352" y="145" type="curve" smooth="yes"/>
      <point x="348" y="143"/>
      <point x="342" y="141"/>
      <point x="338" y="140" type="curve" smooth="yes"/>
      <point x="334" y="139"/>
      <point x="326" y="137"/>
      <point x="320" y="135" type="curve" smooth="yes"/>
      <point x="306" y="131"/>
      <point x="271" y="132"/>
      <point x="263" y="137" type="curve" smooth="yes"/>
      <point x="249" y="146"/>
      <point x="237" y="154"/>
      <point x="237" y="156" type="curve" smooth="yes"/>
      <point x="237" y="156"/>
      <point x="233" y="161"/>
      <point x="230" y="165" type="curve" smooth="yes"/>
      <point x="217" y="180"/>
      <point x="213" y="190"/>
      <point x="213" y="207" type="curve" smooth="yes"/>
      <point x="212" y="221"/>
      <point x="213" y="225"/>
      <point x="218" y="236" type="curve" smooth="yes"/>
      <point x="223" y="247"/>
      <point x="227" y="253"/>
      <point x="244" y="269" type="curve" smooth="yes"/>
      <point x="258" y="283"/>
      <point x="265" y="288"/>
      <point x="269" y="288" type="curve" smooth="yes"/>
      <point x="271" y="288"/>
      <point x="277" y="285"/>
      <point x="282" y="281" type="curve" smooth="yes"/>
    </contour>
  </outline>
</glyph>
<glyph name="comma" format="1">
  <advance width="250"/>
  <unicode hex="002C"/>
  <outline>
    <contour>
      <point x="30" y="184"/>
      <point x="30" y="183"/>
      <point x="26" y="174" type="curve" smooth="yes"/>
      <point x="22" y="165"/>
      <point x="22" y="163"/>
      <point x="23" y="90" type="curve" smooth="yes"/>
      <point x="23" y="26"/>
      <point x="24" y="15"/>
      <point x="27" y="11" type="curve" smooth="yes"/>
      <point x="33" y="1"/>
      <point x="38" y="-1"/>
      <point x="59" y="-1" type="curve" smooth="yes"/>
      <point x="69" y="-1"/>
      <point x="79" y="-1"/>
      <point x="80" y="-3" type="curve" smooth="yes"/>
      <point x="84" y="-5"/>
      <point x="83" y="-18"/>
      <point x="79" y="-26" type="curve" smooth="yes"/>
      <point x="77" y="-30"/>
      <point x="74" y="-37"/>
      <point x="73" y="-42" type="curve" smooth="yes"/>
      <point x="71" y="-48"/>
      <point x="61" y="-70"/>
      <point x="50" y="-93" type="curve" smooth="yes"/>
      <point x="29" y="-136"/>
      <point x="27" y="-143"/>
      <point x="33" y="-152" type="curve" smooth="yes"/>
      <point x="37" y="-158"/>
      <point x="46" y="-162"/>
      <point x="57" y="-162" type="curve" smooth="yes"/>
      <point x="75" y="-162"/>
      <point x="102" y="-150"/>
      <point x="110" y="-138" type="curve" smooth="yes"/>
      <point x="112" y="-135"/>
      <point x="116" y="-131"/>
      <point x="118" y="-129" type="curve" smooth="yes"/>
      <point x="122" y="-125"/>
      <point x="153" y="-78"/>
      <point x="158" y="-67" type="curve" smooth="yes"/>
      <point x="160" y="-63"/>
      <point x="164" y="-58"/>
      <point x="165" y="-57" type="curve" smooth="yes"/>
      <point x="167" y="-55"/>
      <point x="170" y="-51"/>
      <point x="172" y="-47" type="curve" smooth="yes"/>
      <point x="174" y="-43"/>
      <point x="183" y="-31"/>
      <point x="193" y="-20" type="curve" smooth="yes"/>
      <point x="202" y="-9"/>
      <point x="212" y="5"/>
      <point x="215" y="10" type="curve" smooth="yes"/>
      <point x="220" y="20" type="line"/>
      <point x="220" y="95" type="line" smooth="yes"/>
      <point x="220" y="165"/>
      <point x="220" y="171"/>
      <point x="216" y="176" type="curve" smooth="yes"/>
      <point x="209" y="188"/>
      <point x="206" y="188"/>
      <point x="128" y="188" type="curve" smooth="yes"/>
      <point x="89" y="188"/>
      <point x="53" y="187"/>
      <point x="48" y="186" type="curve" smooth="yes"/>
    </contour>
  </outline>
</glyph>
<glyph name="hyphen" format="1">
  <advance width="340"/>
  <unicode hex="002D"/>
  <outline>
    <contour>
      <point x="31" y="305"/>
      <point x="31" y="304"/>
      <point x="31" y="236" type="curve" smooth="yes"/>
      <point x="30" y="175" type="line"/>
      <point x="35" y="169" type="line"/>
      <point x="39" y="164" type="line"/>
      <point x="157" y="163" type="line" smooth="yes"/>
      <point x="300" y="162"/>
      <point x="294" y="162"/>
      <point x="303" y="166" type="curve" smooth="yes"/>
      <point x="315" y="172"/>
      <point x="315" y="175"/>
      <point x="314" y="242" type="curve" smooth="yes"/>
      <point x="314" y="276"/>
      <point x="312" y="303"/>
      <point x="311" y="305" type="curve" smooth="yes"/>
      <point x="306" y="315"/>
      <point x="301" y="315"/>
      <point x="142" y="313" type="curve" smooth="yes"/>
      <point x="122" y="313"/>
      <point x="98" y="313"/>
      <point x="89" y="315" type="curve" smooth="yes"/>
      <point x="63" y="318"/>
      <point x="50" y="317"/>
      <point x="43" y="313" type="curve" smooth="yes"/>
    </contour>
  </outline>
</glyph>
<glyph name="zero" format="1">
  <advance width="703"/>
  <unicode hex="0030"/>
  <outline>
    <contour>
      <point x="173" y="753"/>
      <point x="30" y="601"/>
      <point x="30" y="369" type="curve" smooth="yes"/>
      <point x="30" y="138"/>
      <point x="170" y="-8"/>
      <point x="350" y="-8" type="curve" smooth="yes"/>
      <point x="531" y="-8"/>
      <point x="671" y="139"/>
      <point x="671" y="369" type="curve" smooth="yes"/>
      <point x="671" y="601"/>
      <point x="528" y="753"/>
      <point x="351" y="753" type="curve" smooth="yes"/>
    </contour>
    <contour>
      <point x="288" y="141"/>
      <point x="255" y="185"/>
      <point x="255" y="367" type="curve" smooth="yes"/>
      <point x="255" y="553"/>
      <point x="290" y="601"/>
      <point x="356" y="601" type="curve" smooth="yes"/>
      <point x="420" y="601"/>
      <point x="455" y="553"/>
      <point x="455" y="367" type="curve" smooth="yes"/>
      <point x="455" y="185"/>
      <point x="422" y="141"/>
      <point x="356" y="141" type="curve" smooth="yes"/>
    </contour>
  </outline>
</glyph>
<glyph name="one" format="1">
  <advance width="477"/>
  <unicode hex="0031"/>
  <outline>
    <contour>
      <point x="243" y="701"/>
      <point x="237" y="700"/>
      <point x="235" y="699" type="curve" smooth="yes"/>
      <point x="233" y="698"/>
      <point x="230" y="697"/>
      <point x="228" y="697" type="curve" smooth="yes"/>
      <point x="226" y="697"/>
      <point x="220" y="694"/>
      <point x="216" y="691" type="curve" smooth="yes"/>
      <point x="211" y="688"/>
      <point x="201" y="682"/>
      <point x="194" y="678" type="curve" smooth="yes"/>
      <point x="186" y="674"/>
      <point x="176" y="669"/>
      <point x="172" y="667" type="curve" smooth="yes"/>
      <point x="168" y="665"/>
      <point x="159" y="660"/>
      <point x="153" y="656" type="curve" smooth="yes"/>
      <point x="147" y="652"/>
      <point x="141" y="648"/>
      <point x="140" y="648" type="curve" smooth="yes"/>
      <point x="137" y="648"/>
      <point x="110" y="636"/>
      <point x="107" y="634" type="curve" smooth="yes"/>
      <point x="105" y="632"/>
      <point x="95" y="627"/>
      <point x="85" y="623" type="curve" smooth="yes"/>
      <point x="75" y="618"/>
      <point x="63" y="613"/>
      <point x="59" y="611" type="curve" smooth="yes"/>
      <point x="54" y="609"/>
      <point x="45" y="605"/>
      <point x="38" y="602" type="curve" smooth="yes"/>
      <point x="26" y="596"/>
      <point x="25" y="595"/>
      <point x="23" y="588" type="curve" smooth="yes"/>
      <point x="22" y="584"/>
      <point x="21" y="560"/>
      <point x="20" y="534" type="curve" smooth="yes"/>
      <point x="20" y="491"/>
      <point x="20" y="487"/>
      <point x="23" y="482" type="curve" smooth="yes"/>
      <point x="30" y="471"/>
      <point x="39" y="471"/>
      <point x="69" y="479" type="curve" smooth="yes"/>
      <point x="77" y="481"/>
      <point x="89" y="483"/>
      <point x="96" y="484" type="curve" smooth="yes"/>
      <point x="102" y="484"/>
      <point x="112" y="486"/>
      <point x="117" y="488" type="curve" smooth="yes"/>
      <point x="127" y="493"/>
      <point x="134" y="493"/>
      <point x="137" y="490" type="curve" smooth="yes"/>
      <point x="139" y="487"/>
      <point x="139" y="159"/>
      <point x="137" y="155" type="curve" smooth="yes"/>
      <point x="136" y="153"/>
      <point x="128" y="153"/>
      <point x="42" y="155" type="curve" smooth="yes"/>
      <point x="34" y="155"/>
      <point x="27" y="150"/>
      <point x="25" y="142" type="curve" smooth="yes"/>
      <point x="24" y="138"/>
      <point x="22" y="106"/>
      <point x="22" y="72" type="curve" smooth="yes"/>
      <point x="21" y="2"/>
      <point x="20" y="4"/>
      <point x="37" y="1" type="curve" smooth="yes"/>
      <point x="43" y="0"/>
      <point x="61" y="-1"/>
      <point x="78" y="0" type="curve" smooth="yes"/>
      <point x="121" y="2"/>
      <point x="377" y="2"/>
      <point x="415" y="0" type="curve" smooth="yes"/>
      <point x="445" y="-2" type="line"/>
      <point x="451" y="3" type="line"/>
      <point x="456" y="8" type="line"/>
      <point x="457" y="73" type="line"/>
      <point x="457" y="137" type="line"/>
      <point x="451" y="144" type="line" smooth="yes"/>
      <point x="444" y="153"/>
      <point x="441" y="153"/>
      <point x="422" y="151" type="curve" smooth="yes"/>
      <point x="413" y="150"/>
      <point x="394" y="150"/>
      <point x="377" y="151" type="curve" smooth="yes"/>
      <point x="351" y="152"/>
      <point x="347" y="153"/>
      <point x="343" y="157" type="curve" smooth="yes"/>
      <point x="339" y="161"/>
      <point x="339" y="162"/>
      <point x="340" y="267" type="curve" smooth="yes"/>
      <point x="340" y="326"/>
      <point x="340" y="437"/>
      <point x="340" y="515" type="curve" smooth="yes"/>
      <point x="340" y="681"/>
      <point x="340" y="664"/>
      <point x="341" y="680" type="curve" smooth="yes"/>
      <point x="341" y="692"/>
      <point x="341" y="693"/>
      <point x="336" y="698" type="curve" smooth="yes"/>
      <point x="330" y="704" type="line"/>
      <point x="295" y="704" type="line" smooth="yes"/>
      <point x="275" y="704"/>
      <point x="255" y="703"/>
      <point x="249" y="702" type="curve" smooth="yes"/>
    </contour>
  </outline>
</glyph>
<glyph name="two" format="1">
  <advance width="650"/>
  <unicode hex="0032"/>
  <outline>
    <contour>
      <point x="328" y="702"/>
      <point x="315" y="702"/>
      <point x="301" y="701" type="curve" smooth="yes"/>
      <point x="272" y="700"/>
      <point x="265" y="699"/>
      <point x="234" y="691" type="curve" smooth="yes"/>
      <point x="214" y="686"/>
      <point x="191" y="677"/>
      <point x="182" y="670" type="curve" smooth="yes"/>
      <point x="179" y="668"/>
      <point x="175" y="667"/>
      <point x="173" y="667" type="curve" smooth="yes"/>
      <point x="172" y="667"/>
      <point x="167" y="664"/>
      <point x="163" y="660" type="curve" smooth="yes"/>
      <point x="158" y="657"/>
      <point x="149" y="650"/>
      <point x="142" y="645" type="curve" smooth="yes"/>
      <point x="119" y="629"/>
      <point x="100" y="612"/>
      <point x="89" y="598" type="curve" smooth="yes"/>
      <point x="86" y="594"/>
      <point x="78" y="583"/>
      <point x="70" y="574" type="curve" smooth="yes"/>
      <point x="56" y="557"/>
      <point x="46" y="538"/>
      <point x="44" y="528" type="curve" smooth="yes"/>
      <point x="43" y="523"/>
      <point x="44" y="519"/>
      <point x="47" y="515" type="curve" smooth="yes"/>
      <point x="51" y="509"/>
      <point x="53" y="508"/>
      <point x="69" y="501" type="curve" smooth="yes"/>
      <point x="85" y="494"/>
      <point x="124" y="475"/>
      <point x="132" y="470" type="curve" smooth="yes"/>
      <point x="136" y="467"/>
      <point x="142" y="464"/>
      <point x="145" y="463" type="curve" smooth="yes"/>
      <point x="147" y="462"/>
      <point x="156" y="458"/>
      <point x="163" y="455" type="curve" smooth="yes"/>
      <point x="178" y="447"/>
      <point x="189" y="446"/>
      <point x="195" y="451" type="curve" smooth="yes"/>
      <point x="197" y="453"/>
      <point x="201" y="459"/>
      <point x="203" y="464" type="curve" smooth="yes"/>
      <point x="210" y="477"/>
      <point x="227" y="503"/>
      <point x="232" y="508" type="curve" smooth="yes"/>
      <point x="235" y="510"/>
      <point x="236" y="512"/>
      <point x="236" y="514" type="curve" smooth="yes"/>
      <point x="236" y="516"/>
      <point x="257" y="538"/>
      <point x="263" y="541" type="curve" smooth="yes"/>
      <point x="265" y="542"/>
      <point x="272" y="546"/>
      <point x="278" y="549" type="curve" smooth="yes"/>
      <point x="292" y="557"/>
      <point x="303" y="560"/>
      <point x="322" y="560" type="curve" smooth="yes"/>
      <point x="336" y="560"/>
      <point x="343" y="559"/>
      <point x="356" y="555" type="curve" smooth="yes"/>
      <point x="371" y="550"/>
      <point x="374" y="549"/>
      <point x="385" y="537" type="curve" smooth="yes"/>
      <point x="395" y="528"/>
      <point x="399" y="522"/>
      <point x="402" y="513" type="curve" smooth="yes"/>
      <point x="406" y="503"/>
      <point x="406" y="500"/>
      <point x="405" y="479" type="curve" smooth="yes"/>
      <point x="403" y="455" type="line"/>
      <point x="389" y="435" type="line" smooth="yes"/>
      <point x="376" y="415"/>
      <point x="336" y="372"/>
      <point x="315" y="355" type="curve" smooth="yes"/>
      <point x="291" y="336"/>
      <point x="276" y="323"/>
      <point x="276" y="321" type="curve" smooth="yes"/>
      <point x="275" y="320"/>
      <point x="272" y="317"/>
      <point x="268" y="315" type="curve" smooth="yes"/>
      <point x="264" y="313"/>
      <point x="256" y="307"/>
      <point x="250" y="302" type="curve" smooth="yes"/>
      <point x="244" y="296"/>
      <point x="235" y="289"/>
      <point x="230" y="285" type="curve" smooth="yes"/>
      <point x="224" y="281"/>
      <point x="217" y="276"/>
      <point x="214" y="272" type="curve" smooth="yes"/>
      <point x="211" y="269"/>
      <point x="200" y="261"/>
      <point x="190" y="254" type="curve" smooth="yes"/>
      <point x="181" y="247"/>
      <point x="167" y="236"/>
      <point x="161" y="230" type="curve" smooth="yes"/>
      <point x="154" y="224"/>
      <point x="148" y="218"/>
      <point x="147" y="218" type="curve" smooth="yes"/>
      <point x="146" y="218"/>
      <point x="139" y="212"/>
      <point x="131" y="205" type="curve" smooth="yes"/>
      <point x="123" y="198"/>
      <point x="111" y="188"/>
      <point x="105" y="184" type="curve" smooth="yes"/>
      <point x="88" y="171"/>
      <point x="74" y="159"/>
      <point x="58" y="143" type="curve" smooth="yes"/>
      <point x="44" y="130" type="line"/>
      <point x="43" y="106" type="line" smooth="yes"/>
      <point x="40" y="65"/>
      <point x="40" y="25"/>
      <point x="43" y="16" type="curve" smooth="yes"/>
      <point x="44" y="12"/>
      <point x="47" y="7"/>
      <point x="49" y="5" type="curve" smooth="yes"/>
      <point x="53" y="1"/>
      <point x="61" y="1"/>
      <point x="305" y="0" type="curve" smooth="yes"/>
      <point x="444" y="0"/>
      <point x="566" y="-1"/>
      <point x="578" y="-1" type="curve" smooth="yes"/>
      <point x="600" y="-1"/>
      <point x="608" y="1"/>
      <point x="614" y="9" type="curve" smooth="yes"/>
      <point x="617" y="14"/>
      <point x="618" y="19"/>
      <point x="617" y="43" type="curve" smooth="yes"/>
      <point x="617" y="78"/>
      <point x="617" y="107"/>
      <point x="617" y="136" type="curve" smooth="yes"/>
      <point x="617" y="165"/>
      <point x="616" y="169"/>
      <point x="600" y="174" type="curve" smooth="yes"/>
      <point x="591" y="178"/>
      <point x="587" y="178"/>
      <point x="574" y="177" type="curve" smooth="yes"/>
      <point x="566" y="176"/>
      <point x="505" y="175"/>
      <point x="440" y="175" type="curve" smooth="yes"/>
      <point x="312" y="173"/>
      <point x="311" y="174"/>
      <point x="316" y="183" type="curve" smooth="yes"/>
      <point x="318" y="185"/>
      <point x="323" y="188"/>
      <point x="328" y="189" type="curve" smooth="yes"/>
      <point x="333" y="191"/>
      <point x="337" y="193"/>
      <point x="339" y="196" type="curve" smooth="yes"/>
      <point x="341" y="199"/>
      <point x="343" y="201"/>
      <point x="345" y="201" type="curve" smooth="yes"/>
      <point x="346" y="201"/>
      <point x="351" y="204"/>
      <point x="356" y="208" type="curve" smooth="yes"/>
      <point x="360" y="212"/>
      <point x="367" y="217"/>
      <point x="370" y="219" type="curve" smooth="yes"/>
      <point x="373" y="221"/>
      <point x="378" y="224"/>
      <point x="381" y="226" type="curve" smooth="yes"/>
      <point x="383" y="228"/>
      <point x="388" y="232"/>
      <point x="392" y="234" type="curve" smooth="yes"/>
      <point x="396" y="237"/>
      <point x="401" y="240"/>
      <point x="403" y="242" type="curve" smooth="yes"/>
      <point x="405" y="244"/>
      <point x="412" y="248"/>
      <point x="418" y="251" type="curve" smooth="yes"/>
      <point x="432" y="259"/>
      <point x="450" y="271"/>
      <point x="452" y="273" type="curve" smooth="yes"/>
      <point x="453" y="274"/>
      <point x="456" y="277"/>
      <point x="460" y="280" type="curve" smooth="yes"/>
      <point x="464" y="282"/>
      <point x="471" y="287"/>
      <point x="475" y="290" type="curve" smooth="yes"/>
      <point x="479" y="294"/>
      <point x="488" y="299"/>
      <point x="494" y="302" type="curve" smooth="yes"/>
      <point x="504" y="307"/>
      <point x="523" y="322"/>
      <point x="547" y="342" type="curve" smooth="yes"/>
      <point x="565" y="358"/>
      <point x="592" y="399"/>
      <point x="603" y="426" type="curve" smooth="yes"/>
      <point x="614" y="451"/>
      <point x="617" y="498"/>
      <point x="610" y="525" type="curve" smooth="yes"/>
      <point x="609" y="533"/>
      <point x="606" y="544"/>
      <point x="605" y="551" type="curve" smooth="yes"/>
      <point x="598" y="588"/>
      <point x="550" y="646"/>
      <point x="509" y="665" type="curve" smooth="yes"/>
      <point x="507" y="667"/>
      <point x="502" y="669"/>
      <point x="500" y="671" type="curve" smooth="yes"/>
      <point x="494" y="675"/>
      <point x="458" y="687"/>
      <point x="444" y="690" type="curve" smooth="yes"/>
      <point x="421" y="695"/>
      <point x="394" y="700"/>
      <point x="382" y="701" type="curve" smooth="yes"/>
      <point x="366" y="703"/>
      <point x="332" y="704"/>
      <point x="329" y="703" type="curve" smooth="yes"/>
    </contour>
  </outline>
</glyph>
<glyph name="three" format="1">
  <advance width="703"/>
  <unicode hex="0033"/>
  <outline>
    <contour>
      <point x="158" y="528" type="line" smooth="yes"/>
      <point x="168" y="519"/>
      <point x="172" y="519"/>
      <point x="182" y="529" type="curve" smooth="yes"/>
      <point x="237" y="581"/>
      <point x="277" y="600"/>
      <point x="334" y="600" type="curve" smooth="yes"/>
      <point x="380" y="600"/>
      <point x="416" y="573"/>
      <point x="416" y="539" type="curve" smooth="yes"/>
      <point x="416" y="495"/>
      <point x="377" y="464"/>
      <point x="314" y="460" type="curve" smooth="yes"/>
      <point x="247" y="456" type="line" smooth="yes"/>
      <point x="234" y="454"/>
      <point x="226" y="449"/>
      <point x="226" y="439" type="curve" smooth="yes"/>
      <point x="226" y="318" type="line" smooth="yes"/>
      <point x="226" y="306"/>
      <point x="233" y="301"/>
      <point x="247" y="301" type="curve" smooth="yes"/>
      <point x="331" y="299" type="line" smooth="yes"/>
      <point x="395" y="297"/>
      <point x="437" y="264"/>
      <point x="437" y="217" type="curve" smooth="yes"/>
      <point x="437" y="169"/>
      <point x="400" y="141"/>
      <point x="338" y="141" type="curve" smooth="yes"/>
      <point x="265" y="141"/>
      <point x="240" y="155"/>
      <point x="167" y="233" type="curve" smooth="yes"/>
      <point x="161" y="240"/>
      <point x="153" y="240"/>
      <point x="140" y="232" type="curve" smooth="yes"/>
      <point x="39" y="162" type="line" smooth="yes"/>
      <point x="25" y="154"/>
      <point x="22" y="139"/>
      <point x="31" y="125" type="curve" smooth="yes"/>
      <point x="82" y="47"/>
      <point x="203" y="-8"/>
      <point x="326" y="-8" type="curve" smooth="yes"/>
      <point x="550" y="-8"/>
      <point x="660" y="67"/>
      <point x="660" y="221" type="curve" smooth="yes"/>
      <point x="660" y="294"/>
      <point x="608" y="358"/>
      <point x="524" y="387" type="curve" smooth="yes"/>
      <point x="509" y="392"/>
      <point x="510" y="401"/>
      <point x="525" y="408" type="curve" smooth="yes"/>
      <point x="589" y="436"/>
      <point x="633" y="497"/>
      <point x="633" y="554" type="curve" smooth="yes"/>
      <point x="633" y="673"/>
      <point x="515" y="750"/>
      <point x="338" y="750" type="curve" smooth="yes"/>
      <point x="223" y="750"/>
      <point x="109" y="707"/>
      <point x="61" y="644" type="curve" smooth="yes"/>
      <point x="54" y="633"/>
      <point x="54" y="626"/>
      <point x="61" y="618" type="curve" smooth="yes"/>
    </contour>
  </outline>
</glyph>
<glyph name="four" format="1">
  <advance width="650"/>
  <unicode hex="0034"/>
  <outline>
    <contour>
      <point x="345" y="701"/>
      <point x="338" y="694"/>
      <point x="327" y="679" type="curve" smooth="yes"/>
      <point x="323" y="674"/>
      <point x="316" y="665"/>
      <point x="311" y="660" type="curve" smooth="yes"/>
      <point x="300" y="647"/>
      <point x="300" y="646"/>
      <point x="283" y="624" type="curve" smooth="yes"/>
      <point x="275" y="614"/>
      <point x="267" y="604"/>
      <point x="266" y="602" type="curve" smooth="yes"/>
      <point x="264" y="601"/>
      <point x="260" y="595"/>
      <point x="257" y="590" type="curve" smooth="yes"/>
      <point x="252" y="579"/>
      <point x="236" y="558"/>
      <point x="232" y="557" type="curve" smooth="yes"/>
      <point x="231" y="556"/>
      <point x="226" y="551"/>
      <point x="223" y="545" type="curve" smooth="yes"/>
      <point x="219" y="540"/>
      <point x="213" y="531"/>
      <point x="209" y="526" type="curve" smooth="yes"/>
      <point x="205" y="521"/>
      <point x="202" y="516"/>
      <point x="202" y="515" type="curve" smooth="yes"/>
      <point x="202" y="514"/>
      <point x="199" y="510"/>
      <point x="195" y="507" type="curve" smooth="yes"/>
      <point x="191" y="504"/>
      <point x="185" y="498"/>
      <point x="181" y="492" type="curve" smooth="yes"/>
      <point x="175" y="482"/>
      <point x="165" y="470"/>
      <point x="159" y="463" type="curve" smooth="yes"/>
      <point x="154" y="456"/>
      <point x="139" y="437"/>
      <point x="131" y="425" type="curve" smooth="yes"/>
      <point x="127" y="419"/>
      <point x="117" y="406"/>
      <point x="109" y="397" type="curve" smooth="yes"/>
      <point x="101" y="388"/>
      <point x="92" y="376"/>
      <point x="88" y="371" type="curve" smooth="yes"/>
      <point x="70" y="347"/>
      <point x="51" y="321"/>
      <point x="41" y="310" type="curve" smooth="yes"/>
      <point x="37" y="306"/>
      <point x="32" y="297"/>
      <point x="29" y="290" type="curve" smooth="yes"/>
      <point x="23" y="279"/>
      <point x="23" y="278"/>
      <point x="23" y="245" type="curve" smooth="yes"/>
      <point x="23" y="226"/>
      <point x="22" y="201"/>
      <point x="22" y="189" type="curve" smooth="yes"/>
      <point x="22" y="163"/>
      <point x="23" y="158"/>
      <point x="34" y="152" type="curve" smooth="yes"/>
      <point x="41" y="149"/>
      <point x="47" y="149"/>
      <point x="118" y="150" type="curve" smooth="yes"/>
      <point x="303" y="151"/>
      <point x="325" y="151"/>
      <point x="328" y="147" type="curve" smooth="yes"/>
      <point x="330" y="145"/>
      <point x="330" y="132"/>
      <point x="329" y="97" type="curve" smooth="yes"/>
      <point x="328" y="11"/>
      <point x="328" y="13"/>
      <point x="335" y="7" type="curve" smooth="yes"/>
      <point x="344" y="-1"/>
      <point x="357" y="-2"/>
      <point x="435" y="0" type="curve" smooth="yes"/>
      <point x="480" y="1"/>
      <point x="507" y="5"/>
      <point x="518" y="10" type="curve" smooth="yes"/>
      <point x="529" y="16"/>
      <point x="530" y="17"/>
      <point x="531" y="83" type="curve" smooth="yes"/>
      <point x="532" y="138"/>
      <point x="533" y="144"/>
      <point x="536" y="147" type="curve" smooth="yes"/>
      <point x="539" y="150"/>
      <point x="544" y="151"/>
      <point x="581" y="150" type="curve" smooth="yes"/>
      <point x="629" y="150"/>
      <point x="635" y="151"/>
      <point x="642" y="161" type="curve" smooth="yes"/>
      <point x="647" y="168" type="line"/>
      <point x="647" y="221" type="line" smooth="yes"/>
      <point x="647" y="278"/>
      <point x="646" y="282"/>
      <point x="636" y="290" type="curve" smooth="yes"/>
      <point x="630" y="295"/>
      <point x="630" y="295"/>
      <point x="583" y="293" type="curve" smooth="yes"/>
      <point x="544" y="292"/>
      <point x="536" y="293"/>
      <point x="534" y="295" type="curve" smooth="yes"/>
      <point x="529" y="300"/>
      <point x="528" y="318"/>
      <point x="529" y="341" type="curve" smooth="yes"/>
      <point x="530" y="353"/>
      <point x="530" y="366"/>
      <point x="529" y="370" type="curve" smooth="yes"/>
      <point x="528" y="374"/>
      <point x="529" y="395"/>
      <point x="530" y="418" type="curve" smooth="yes"/>
      <point x="531" y="440"/>
      <point x="532" y="510"/>
      <point x="532" y="573" type="curve" smooth="yes"/>
      <point x="532" y="700"/>
      <point x="533" y="693"/>
      <point x="519" y="702" type="curve" smooth="yes"/>
      <point x="512" y="706"/>
      <point x="509" y="706"/>
      <point x="438" y="706" type="curve" smooth="yes"/>
      <point x="377" y="707"/>
      <point x="363" y="706"/>
      <point x="355" y="704" type="curve" smooth="yes"/>
    </contour>
    <contour>
      <point x="333" y="417"/>
      <point x="332" y="386"/>
      <point x="332" y="376" type="curve" smooth="yes"/>
      <point x="331" y="366"/>
      <point x="331" y="345"/>
      <point x="331" y="329" type="curve" smooth="yes"/>
      <point x="331" y="307"/>
      <point x="330" y="300"/>
      <point x="328" y="297" type="curve" smooth="yes"/>
      <point x="325" y="293"/>
      <point x="322" y="293"/>
      <point x="258" y="293" type="curve" smooth="yes"/>
      <point x="195" y="293"/>
      <point x="185" y="294"/>
      <point x="185" y="298" type="curve" smooth="yes"/>
      <point x="185" y="299"/>
      <point x="190" y="307"/>
      <point x="197" y="316" type="curve" smooth="yes"/>
      <point x="204" y="325"/>
      <point x="211" y="334"/>
      <point x="212" y="337" type="curve" smooth="yes"/>
      <point x="214" y="340"/>
      <point x="219" y="346"/>
      <point x="223" y="351" type="curve" smooth="yes"/>
      <point x="226" y="356"/>
      <point x="232" y="363"/>
      <point x="235" y="367" type="curve" smooth="yes"/>
      <point x="237" y="372"/>
      <point x="244" y="380"/>
      <point x="250" y="387" type="curve" smooth="yes"/>
      <point x="255" y="393"/>
      <point x="262" y="402"/>
      <point x="264" y="406" type="curve" smooth="yes"/>
      <point x="266" y="410"/>
      <point x="272" y="418"/>
      <point x="276" y="423" type="curve" smooth="yes"/>
      <point x="281" y="427"/>
      <point x="285" y="433"/>
      <point x="286" y="435" type="curve" smooth="yes"/>
      <point x="288" y="438"/>
      <point x="291" y="442"/>
      <point x="294" y="446" type="curve" smooth="yes"/>
      <point x="297" y="450"/>
      <point x="302" y="458"/>
      <point x="306" y="463" type="curve" smooth="yes"/>
      <point x="322" y="489"/>
      <point x="327" y="495"/>
      <point x="330" y="495" type="curve" smooth="yes"/>
      <point x="333" y="494"/>
      <point x="334" y="490"/>
      <point x="333" y="444" type="curve" smooth="yes"/>
    </contour>
  </outline>
</glyph>
<glyph name="five" format="1">
  <advance width="703"/>
  <unicode hex="0035"/>
  <outline>
    <contour>
      <point x="109" y="742"/>
      <point x="101" y="735"/>
      <point x="99" y="712" type="curve" smooth="yes"/>
      <point x="70" y="403" type="line" smooth="yes"/>
      <point x="67" y="379"/>
      <point x="71" y="372"/>
      <point x="83" y="365" type="curve" smooth="yes"/>
      <point x="202" y="301" type="line" smooth="yes"/>
      <point x="213" y="294"/>
      <point x="221" y="293"/>
      <point x="232" y="299" type="curve" smooth="yes"/>
      <point x="274" y="318"/>
      <point x="301" y="326"/>
      <point x="332" y="326" type="curve" smooth="yes"/>
      <point x="410" y="326"/>
      <point x="443" y="280"/>
      <point x="443" y="237" type="curve" smooth="yes"/>
      <point x="443" y="186"/>
      <point x="403" y="144"/>
      <point x="327" y="144" type="curve" smooth="yes"/>
      <point x="265" y="144"/>
      <point x="224" y="177"/>
      <point x="180" y="232" type="curve" smooth="yes"/>
      <point x="171" y="243"/>
      <point x="158" y="244"/>
      <point x="147" y="236" type="curve" smooth="yes"/>
      <point x="39" y="163" type="line" smooth="yes"/>
      <point x="24" y="154"/>
      <point x="24" y="135"/>
      <point x="37" y="121" type="curve" smooth="yes"/>
      <point x="117" y="34"/>
      <point x="203" y="-7"/>
      <point x="336" y="-7" type="curve" smooth="yes"/>
      <point x="546" y="-7"/>
      <point x="665" y="83"/>
      <point x="665" y="235" type="curve" smooth="yes"/>
      <point x="665" y="398"/>
      <point x="550" y="484"/>
      <point x="390" y="484" type="curve" smooth="yes"/>
      <point x="350" y="484"/>
      <point x="310" y="477"/>
      <point x="261" y="463" type="curve" smooth="yes"/>
      <point x="250" y="460"/>
      <point x="244" y="466"/>
      <point x="245" y="477" type="curve" smooth="yes"/>
      <point x="252" y="541" type="line" smooth="yes"/>
      <point x="253" y="554"/>
      <point x="260" y="559"/>
      <point x="273" y="559" type="curve" smooth="yes"/>
      <point x="572" y="559" type="line" smooth="yes"/>
      <point x="591" y="559"/>
      <point x="599" y="565"/>
      <point x="600" y="582" type="curve" smooth="yes"/>
      <point x="607" y="713" type="line" smooth="yes"/>
      <point x="608" y="737"/>
      <point x="606" y="742"/>
      <point x="577" y="742" type="curve" smooth="yes"/>
      <point x="144" y="742" type="line" smooth="yes"/>
    </contour>
  </outline>
</glyph>
<glyph name="six" format="1">
  <advance width="650"/>
  <unicode hex="0036"/>
  <outline>
    <contour>
      <point x="305" y="704"/>
      <point x="285" y="702"/>
      <point x="279" y="700" type="curve" smooth="yes"/>
      <point x="272" y="699"/>
      <point x="263" y="696"/>
      <point x="258" y="695" type="curve" smooth="yes"/>
      <point x="253" y="694"/>
      <point x="246" y="691"/>
      <point x="242" y="689" type="curve" smooth="yes"/>
      <point x="237" y="687"/>
      <point x="230" y="684"/>
      <point x="224" y="682" type="curve" smooth="yes"/>
      <point x="219" y="679"/>
      <point x="209" y="674"/>
      <point x="202" y="669" type="curve" smooth="yes"/>
      <point x="195" y="664"/>
      <point x="184" y="658"/>
      <point x="178" y="654" type="curve" smooth="yes"/>
      <point x="164" y="645"/>
      <point x="121" y="603"/>
      <point x="110" y="588" type="curve" smooth="yes"/>
      <point x="105" y="581"/>
      <point x="98" y="572"/>
      <point x="95" y="567" type="curve" smooth="yes"/>
      <point x="87" y="557"/>
      <point x="76" y="534"/>
      <point x="69" y="518" type="curve" smooth="yes"/>
      <point x="67" y="512"/>
      <point x="62" y="500"/>
      <point x="58" y="492" type="curve" smooth="yes"/>
      <point x="50" y="477"/>
      <point x="40" y="446"/>
      <point x="35" y="421" type="curve" smooth="yes"/>
      <point x="34" y="413"/>
      <point x="32" y="403"/>
      <point x="31" y="400" type="curve" smooth="yes"/>
      <point x="28" y="386"/>
      <point x="27" y="336"/>
      <point x="28" y="304" type="curve" smooth="yes"/>
      <point x="30" y="260"/>
      <point x="36" y="232"/>
      <point x="49" y="192" type="curve" smooth="yes"/>
      <point x="54" y="179"/>
      <point x="78" y="128"/>
      <point x="81" y="127" type="curve" smooth="yes"/>
      <point x="82" y="126"/>
      <point x="89" y="117"/>
      <point x="97" y="107" type="curve" smooth="yes"/>
      <point x="104" y="96"/>
      <point x="115" y="83"/>
      <point x="121" y="77" type="curve" smooth="yes"/>
      <point x="133" y="66"/>
      <point x="158" y="46"/>
      <point x="160" y="46" type="curve" smooth="yes"/>
      <point x="161" y="46"/>
      <point x="165" y="43"/>
      <point x="169" y="40" type="curve" smooth="yes"/>
      <point x="178" y="32"/>
      <point x="221" y="11"/>
      <point x="227" y="11" type="curve" smooth="yes"/>
      <point x="229" y="11"/>
      <point x="233" y="10"/>
      <point x="235" y="9" type="curve" smooth="yes"/>
      <point x="247" y="2"/>
      <point x="277" y="-4"/>
      <point x="305" y="-6" type="curve" smooth="yes"/>
      <point x="310" y="-6"/>
      <point x="317" y="-7"/>
      <point x="322" y="-8" type="curve" smooth="yes"/>
      <point x="326" y="-8"/>
      <point x="340" y="-8"/>
      <point x="353" y="-6" type="curve" smooth="yes"/>
      <point x="366" y="-4"/>
      <point x="383" y="-2"/>
      <point x="392" y="-1" type="curve" smooth="yes"/>
      <point x="407" y="0"/>
      <point x="411" y="1"/>
      <point x="426" y="5" type="curve" smooth="yes"/>
      <point x="430" y="6"/>
      <point x="438" y="8"/>
      <point x="445" y="9" type="curve" smooth="yes"/>
      <point x="451" y="10"/>
      <point x="459" y="12"/>
      <point x="461" y="14" type="curve" smooth="yes"/>
      <point x="464" y="15"/>
      <point x="469" y="17"/>
      <point x="472" y="17" type="curve" smooth="yes"/>
      <point x="478" y="17"/>
      <point x="508" y="32"/>
      <point x="520" y="41" type="curve" smooth="yes"/>
      <point x="525" y="44"/>
      <point x="531" y="48"/>
      <point x="533" y="50" type="curve" smooth="yes"/>
      <point x="544" y="55"/>
      <point x="558" y="67"/>
      <point x="573" y="82" type="curve" smooth="yes"/>
      <point x="597" y="107"/>
      <point x="609" y="126"/>
      <point x="619" y="158" type="curve" smooth="yes"/>
      <point x="628" y="189"/>
      <point x="631" y="204"/>
      <point x="631" y="233" type="curve" smooth="yes"/>
      <point x="631" y="263"/>
      <point x="628" y="279"/>
      <point x="616" y="305" type="curve" smooth="yes"/>
      <point x="612" y="313"/>
      <point x="609" y="321"/>
      <point x="609" y="322" type="curve" smooth="yes"/>
      <point x="609" y="328"/>
      <point x="591" y="355"/>
      <point x="579" y="365" type="curve" smooth="yes"/>
      <point x="565" y="378"/>
      <point x="541" y="394"/>
      <point x="532" y="397" type="curve" smooth="yes"/>
      <point x="529" y="398"/>
      <point x="523" y="400"/>
      <point x="520" y="402" type="curve" smooth="yes"/>
      <point x="517" y="404"/>
      <point x="506" y="409"/>
      <point x="496" y="413" type="curve" smooth="yes"/>
      <point x="486" y="417"/>
      <point x="473" y="422"/>
      <point x="468" y="424" type="curve" smooth="yes"/>
      <point x="462" y="427"/>
      <point x="450" y="429"/>
      <point x="437" y="430" type="curve" smooth="yes"/>
      <point x="425" y="431"/>
      <point x="406" y="433"/>
      <point x="395" y="434" type="curve" smooth="yes"/>
      <point x="381" y="435"/>
      <point x="372" y="435"/>
      <point x="368" y="434" type="curve" smooth="yes"/>
      <point x="364" y="433"/>
      <point x="355" y="432"/>
      <point x="349" y="432" type="curve" smooth="yes"/>
      <point x="338" y="432"/>
      <point x="322" y="428"/>
      <point x="303" y="421" type="curve" smooth="yes"/>
      <point x="299" y="420"/>
      <point x="289" y="416"/>
      <point x="280" y="413" type="curve" smooth="yes"/>
      <point x="271" y="410"/>
      <point x="261" y="407"/>
      <point x="259" y="405" type="curve" smooth="yes"/>
      <point x="254" y="402"/>
      <point x="246" y="402"/>
      <point x="243" y="405" type="curve" smooth="yes"/>
      <point x="238" y="410"/>
      <point x="241" y="444"/>
      <point x="249" y="473" type="curve" smooth="yes"/>
      <point x="251" y="481"/>
      <point x="256" y="494"/>
      <point x="260" y="503" type="curve" smooth="yes"/>
      <point x="272" y="529"/>
      <point x="301" y="556"/>
      <point x="323" y="563" type="curve" smooth="yes"/>
      <point x="333" y="566"/>
      <point x="357" y="567"/>
      <point x="369" y="565" type="curve" smooth="yes"/>
      <point x="381" y="562"/>
      <point x="400" y="552"/>
      <point x="410" y="541" type="curve" smooth="yes"/>
      <point x="417" y="535"/>
      <point x="421" y="527"/>
      <point x="433" y="504" type="curve" smooth="yes"/>
      <point x="440" y="491"/>
      <point x="444" y="489"/>
      <point x="465" y="495" type="curve" smooth="yes"/>
      <point x="474" y="498"/>
      <point x="483" y="500"/>
      <point x="484" y="500" type="curve" smooth="yes"/>
      <point x="485" y="500"/>
      <point x="490" y="502"/>
      <point x="495" y="504" type="curve" smooth="yes"/>
      <point x="507" y="509"/>
      <point x="522" y="514"/>
      <point x="527" y="514" type="curve" smooth="yes"/>
      <point x="529" y="514"/>
      <point x="535" y="515"/>
      <point x="539" y="516" type="curve" smooth="yes"/>
      <point x="544" y="518"/>
      <point x="554" y="520"/>
      <point x="561" y="521" type="curve" smooth="yes"/>
      <point x="568" y="523"/>
      <point x="579" y="526"/>
      <point x="585" y="529" type="curve" smooth="yes"/>
      <point x="599" y="536"/>
      <point x="603" y="542"/>
      <point x="601" y="554" type="curve" smooth="yes"/>
      <point x="599" y="564"/>
      <point x="586" y="587"/>
      <point x="573" y="606" type="curve" smooth="yes"/>
      <point x="560" y="623"/>
      <point x="530" y="654"/>
      <point x="518" y="661" type="curve" smooth="yes"/>
      <point x="495" y="675"/>
      <point x="474" y="685"/>
      <point x="470" y="685" type="curve" smooth="yes"/>
      <point x="468" y="685"/>
      <point x="461" y="687"/>
      <point x="455" y="690" type="curve" smooth="yes"/>
      <point x="431" y="701"/>
      <point x="402" y="707"/>
      <point x="374" y="707" type="curve" smooth="yes"/>
      <point x="366" y="707"/>
      <point x="358" y="707"/>
      <point x="356" y="707" type="curve" smooth="yes"/>
      <point x="354" y="708"/>
      <point x="339" y="707"/>
      <point x="322" y="706" type="curve" smooth="yes"/>
    </contour>
    <contour>
      <point x="382" y="291"/>
      <point x="400" y="279"/>
      <point x="408" y="270" type="curve" smooth="yes"/>
      <point x="411" y="267"/>
      <point x="415" y="260"/>
      <point x="419" y="253" type="curve" smooth="yes"/>
      <point x="425" y="242"/>
      <point x="425" y="241"/>
      <point x="425" y="219" type="curve" smooth="yes"/>
      <point x="425" y="196" type="line"/>
      <point x="416" y="179" type="line" smooth="yes"/>
      <point x="406" y="159"/>
      <point x="393" y="145"/>
      <point x="377" y="138" type="curve" smooth="yes"/>
      <point x="367" y="133"/>
      <point x="335" y="127"/>
      <point x="323" y="127" type="curve" smooth="yes"/>
      <point x="306" y="128"/>
      <point x="284" y="142"/>
      <point x="272" y="160" type="curve" smooth="yes"/>
      <point x="263" y="174"/>
      <point x="252" y="195"/>
      <point x="250" y="202" type="curve" smooth="yes"/>
      <point x="249" y="206"/>
      <point x="248" y="212"/>
      <point x="247" y="216" type="curve" smooth="yes"/>
      <point x="246" y="221"/>
      <point x="244" y="234"/>
      <point x="243" y="246" type="curve" smooth="yes"/>
      <point x="242" y="267"/>
      <point x="242" y="268"/>
      <point x="247" y="272" type="curve" smooth="yes"/>
      <point x="253" y="277"/>
      <point x="275" y="288"/>
      <point x="281" y="288" type="curve" smooth="yes"/>
      <point x="283" y="288"/>
      <point x="286" y="288"/>
      <point x="287" y="289" type="curve" smooth="yes"/>
      <point x="288" y="291"/>
      <point x="307" y="295"/>
      <point x="323" y="298" type="curve" smooth="yes"/>
      <point x="332" y="300"/>
      <point x="360" y="298"/>
      <point x="371" y="294" type="curve" smooth="yes"/>
    </contour>
  </outline>
</glyph>
<glyph name="seven" format="1">
  <advance width="580"/>
  <unicode hex="0037"/>
  <outline>
    <contour>
      <point x="41" y="700"/>
      <point x="30" y="695"/>
      <point x="29" y="684" type="curve" smooth="yes"/>
      <point x="15" y="547" type="line" smooth="yes"/>
      <point x="13" y="532"/>
      <point x="21" y="523"/>
      <point x="41" y="523" type="curve" smooth="yes"/>
      <point x="329" y="529" type="line" smooth="yes"/>
      <point x="345" y="529"/>
      <point x="344" y="521"/>
      <point x="338" y="512" type="curve" smooth="yes"/>
      <point x="192" y="278"/>
      <point x="144" y="167"/>
      <point x="103" y="27" type="curve" smooth="yes"/>
      <point x="98" y="10"/>
      <point x="105" y="0"/>
      <point x="122" y="0" type="curve" smooth="yes"/>
      <point x="323" y="0" type="line" smooth="yes"/>
      <point x="338" y="0"/>
      <point x="346" y="12"/>
      <point x="346" y="39" type="curve" smooth="yes"/>
      <point x="346" y="159"/>
      <point x="423" y="383"/>
      <point x="529" y="546" type="curve" smooth="yes"/>
      <point x="540" y="563"/>
      <point x="558" y="598"/>
      <point x="559" y="611" type="curve" smooth="yes"/>
      <point x="563" y="674" type="line" smooth="yes"/>
      <point x="564" y="688"/>
      <point x="551" y="700"/>
      <point x="528" y="700" type="curve" smooth="yes"/>
      <point x="65" y="700" type="line" smooth="yes"/>
    </contour>
  </outline>
</glyph>
<glyph name="nine" format="1">
  <advance width="650"/>
  <unicode hex="0039"/>
  <outline>
    <contour>
      <point x="309" y="706"/>
      <point x="300" y="705"/>
      <point x="293" y="705" type="curve" smooth="yes"/>
      <point x="271" y="705"/>
      <point x="230" y="699"/>
      <point x="218" y="694" type="curve" smooth="yes"/>
      <point x="211" y="691"/>
      <point x="203" y="688"/>
      <point x="198" y="687" type="curve" smooth="yes"/>
      <point x="184" y="683"/>
      <point x="136" y="658"/>
      <point x="125" y="650" type="curve" smooth="yes"/>
      <point x="119" y="645"/>
      <point x="110" y="639"/>
      <point x="105" y="635" type="curve" smooth="yes"/>
      <point x="90" y="625"/>
      <point x="63" y="592"/>
      <point x="52" y="571" type="curve" smooth="yes"/>
      <point x="41" y="551"/>
      <point x="36" y="536"/>
      <point x="29" y="503" type="curve" smooth="yes"/>
      <point x="22" y="468"/>
      <point x="27" y="423"/>
      <point x="41" y="391" type="curve" smooth="yes"/>
      <point x="49" y="373"/>
      <point x="57" y="357"/>
      <point x="63" y="349" type="curve" smooth="yes"/>
      <point x="77" y="331"/>
      <point x="107" y="306"/>
      <point x="125" y="297" type="curve" smooth="yes"/>
      <point x="157" y="281"/>
      <point x="166" y="277"/>
      <point x="174" y="276" type="curve" smooth="yes"/>
      <point x="179" y="275"/>
      <point x="191" y="272"/>
      <point x="201" y="270" type="curve" smooth="yes"/>
      <point x="229" y="264"/>
      <point x="267" y="261"/>
      <point x="298" y="264" type="curve" smooth="yes"/>
      <point x="312" y="265"/>
      <point x="325" y="268"/>
      <point x="328" y="269" type="curve" smooth="yes"/>
      <point x="331" y="270"/>
      <point x="337" y="272"/>
      <point x="342" y="273" type="curve" smooth="yes"/>
      <point x="357" y="275"/>
      <point x="394" y="288"/>
      <point x="410" y="297" type="curve" smooth="yes"/>
      <point x="416" y="300"/>
      <point x="420" y="295"/>
      <point x="421" y="282" type="curve" smooth="yes"/>
      <point x="422" y="264"/>
      <point x="407" y="208"/>
      <point x="395" y="186" type="curve" smooth="yes"/>
      <point x="383" y="164"/>
      <point x="378" y="156"/>
      <point x="371" y="153" type="curve" smooth="yes"/>
      <point x="368" y="151"/>
      <point x="364" y="148"/>
      <point x="363" y="146" type="curve" smooth="yes"/>
      <point x="361" y="143"/>
      <point x="358" y="141"/>
      <point x="356" y="141" type="curve" smooth="yes"/>
      <point x="354" y="141"/>
      <point x="349" y="139"/>
      <point x="344" y="136" type="curve" smooth="yes"/>
      <point x="336" y="132"/>
      <point x="331" y="131"/>
      <point x="311" y="131" type="curve" smooth="yes"/>
      <point x="290" y="131"/>
      <point x="287" y="131"/>
      <point x="279" y="135" type="curve" smooth="yes"/>
      <point x="258" y="146"/>
      <point x="242" y="164"/>
      <point x="229" y="189" type="curve" smooth="yes"/>
      <point x="221" y="205"/>
      <point x="219" y="206"/>
      <point x="204" y="205" type="curve" smooth="yes"/>
      <point x="193" y="204"/>
      <point x="163" y="195"/>
      <point x="157" y="191" type="curve" smooth="yes"/>
      <point x="155" y="190"/>
      <point x="149" y="188"/>
      <point x="145" y="188" type="curve" smooth="yes"/>
      <point x="140" y="187"/>
      <point x="128" y="184"/>
      <point x="118" y="181" type="curve" smooth="yes"/>
      <point x="109" y="179"/>
      <point x="96" y="176"/>
      <point x="89" y="174" type="curve" smooth="yes"/>
      <point x="74" y="171"/>
      <point x="62" y="164"/>
      <point x="59" y="157" type="curve" smooth="yes"/>
      <point x="57" y="152"/>
      <point x="57" y="149"/>
      <point x="60" y="139" type="curve" smooth="yes"/>
      <point x="62" y="132"/>
      <point x="64" y="126"/>
      <point x="65" y="125" type="curve" smooth="yes"/>
      <point x="66" y="123"/>
      <point x="67" y="120"/>
      <point x="68" y="118" type="curve" smooth="yes"/>
      <point x="72" y="103"/>
      <point x="107" y="62"/>
      <point x="117" y="58" type="curve" smooth="yes"/>
      <point x="119" y="58"/>
      <point x="123" y="54"/>
      <point x="125" y="51" type="curve" smooth="yes"/>
      <point x="127" y="46"/>
      <point x="136" y="40"/>
      <point x="154" y="29" type="curve" smooth="yes"/>
      <point x="184" y="11"/>
      <point x="212" y="1"/>
      <point x="247" y="-4" type="curve" smooth="yes"/>
      <point x="286" y="-10"/>
      <point x="340" y="-9"/>
      <point x="366" y="0" type="curve" smooth="yes"/>
      <point x="371" y="1"/>
      <point x="378" y="3"/>
      <point x="382" y="3" type="curve" smooth="yes"/>
      <point x="388" y="3"/>
      <point x="415" y="10"/>
      <point x="419" y="12" type="curve" smooth="yes"/>
      <point x="420" y="13"/>
      <point x="426" y="16"/>
      <point x="433" y="18" type="curve" smooth="yes"/>
      <point x="440" y="20"/>
      <point x="448" y="24"/>
      <point x="452" y="27" type="curve" smooth="yes"/>
      <point x="455" y="30"/>
      <point x="459" y="32"/>
      <point x="459" y="32" type="curve" smooth="yes"/>
      <point x="461" y="32"/>
      <point x="488" y="48"/>
      <point x="493" y="52" type="curve" smooth="yes"/>
      <point x="509" y="66"/>
      <point x="545" y="105"/>
      <point x="554" y="117" type="curve" smooth="yes"/>
      <point x="560" y="125"/>
      <point x="566" y="135"/>
      <point x="569" y="138" type="curve" smooth="yes"/>
      <point x="580" y="151"/>
      <point x="591" y="170"/>
      <point x="597" y="186" type="curve" smooth="yes"/>
      <point x="608" y="214"/>
      <point x="615" y="235"/>
      <point x="618" y="252" type="curve" smooth="yes"/>
      <point x="620" y="261"/>
      <point x="623" y="271"/>
      <point x="624" y="275" type="curve" smooth="yes"/>
      <point x="627" y="283"/>
      <point x="634" y="364"/>
      <point x="633" y="374" type="curve" smooth="yes"/>
      <point x="632" y="376"/>
      <point x="632" y="384"/>
      <point x="631" y="392" type="curve" smooth="yes"/>
      <point x="630" y="417"/>
      <point x="626" y="446"/>
      <point x="624" y="458" type="curve" smooth="yes"/>
      <point x="622" y="464"/>
      <point x="620" y="475"/>
      <point x="618" y="481" type="curve" smooth="yes"/>
      <point x="615" y="499"/>
      <point x="597" y="539"/>
      <point x="586" y="554" type="curve" smooth="yes"/>
      <point x="584" y="557"/>
      <point x="581" y="562"/>
      <point x="579" y="566" type="curve" smooth="yes"/>
      <point x="570" y="583"/>
      <point x="533" y="625"/>
      <point x="516" y="636" type="curve" smooth="yes"/>
      <point x="512" y="639"/>
      <point x="507" y="643"/>
      <point x="505" y="645" type="curve" smooth="yes"/>
      <point x="503" y="648"/>
      <point x="497" y="652"/>
      <point x="492" y="656" type="curve" smooth="yes"/>
      <point x="486" y="659"/>
      <point x="482" y="663"/>
      <point x="482" y="664" type="curve" smooth="yes"/>
      <point x="482" y="665"/>
      <point x="481" y="666"/>
      <point x="479" y="666" type="curve" smooth="yes"/>
      <point x="478" y="666"/>
      <point x="473" y="668"/>
      <point x="468" y="670" type="curve" smooth="yes"/>
      <point x="463" y="673"/>
      <point x="456" y="676"/>
      <point x="452" y="677" type="curve" smooth="yes"/>
      <point x="447" y="679"/>
      <point x="442" y="681"/>
      <point x="439" y="683" type="curve" smooth="yes"/>
      <point x="436" y="685"/>
      <point x="429" y="688"/>
      <point x="422" y="690" type="curve" smooth="yes"/>
      <point x="415" y="692"/>
      <point x="406" y="694"/>
      <point x="403" y="696" type="curve" smooth="yes"/>
      <point x="399" y="697"/>
      <point x="387" y="699"/>
      <point x="376" y="701" type="curve" smooth="yes"/>
      <point x="364" y="702"/>
      <point x="353" y="704"/>
      <point x="351" y="705" type="curve" smooth="yes"/>
      <point x="346" y="707"/>
      <point x="324" y="708"/>
      <point x="314" y="706" type="curve" smooth="yes"/>
    </contour>
    <contour>
      <point x="385" y="542"/>
      <point x="395" y="531"/>
      <point x="397" y="527" type="curve" smooth="yes"/>
      <point x="404" y="514"/>
      <point x="410" y="499"/>
      <point x="413" y="487" type="curve" smooth="yes"/>
      <point x="416" y="472"/>
      <point x="418" y="429"/>
      <point x="416" y="426" type="curve" smooth="yes"/>
      <point x="415" y="425"/>
      <point x="410" y="422"/>
      <point x="403" y="419" type="curve" smooth="yes"/>
      <point x="396" y="416"/>
      <point x="392" y="413"/>
      <point x="390" y="409" type="curve" smooth="yes"/>
      <point x="389" y="405"/>
      <point x="388" y="405"/>
      <point x="384" y="406" type="curve" smooth="yes"/>
      <point x="380" y="408"/>
      <point x="376" y="408"/>
      <point x="366" y="404" type="curve" smooth="yes"/>
      <point x="356" y="401"/>
      <point x="347" y="400"/>
      <point x="332" y="400" type="curve" smooth="yes"/>
      <point x="297" y="400"/>
      <point x="281" y="404"/>
      <point x="259" y="421" type="curve" smooth="yes"/>
      <point x="252" y="426"/>
      <point x="235" y="456"/>
      <point x="233" y="467" type="curve" smooth="yes"/>
      <point x="232" y="476"/>
      <point x="235" y="497"/>
      <point x="240" y="509" type="curve" smooth="yes"/>
      <point x="246" y="526"/>
      <point x="270" y="558"/>
      <point x="276" y="558" type="curve" smooth="yes"/>
      <point x="277" y="558"/>
      <point x="280" y="560"/>
      <point x="283" y="562" type="curve" smooth="yes"/>
      <point x="295" y="571"/>
      <point x="302" y="572"/>
      <point x="330" y="571" type="curve" smooth="yes"/>
      <point x="357" y="571" type="line"/>
      <point x="375" y="552" type="line" smooth="yes"/>
    </contour>
  </outline>
</glyph>
<glyph name="colon" format="1">
  <advance width="250"/>
  <unicode hex="003A"/>
  <outline>
    <contour>
      <point x="222" y="489"/>
      <point x="216" y="496"/>
      <point x="205" y="496" type="curve" smooth="yes"/>
      <point x="42" y="496" type="line" smooth="yes"/>
      <point x="31" y="496"/>
      <point x="24" y="489"/>
      <point x="24" y="475" type="curve" smooth="yes"/>
      <point x="24" y="334" type="line" smooth="yes"/>
      <point x="24" y="318"/>
      <point x="30" y="310"/>
      <point x="49" y="310" type="curve" smooth="yes"/>
      <point x="191" y="310" type="line" smooth="yes"/>
      <point x="213" y="310"/>
      <point x="222" y="318"/>
      <point x="222" y="337" type="curve" smooth="yes"/>
      <point x="222" y="477" type="line" smooth="yes"/>
    </contour>
    <contour>
      <point x="222" y="182"/>
      <point x="216" y="189"/>
      <point x="205" y="189" type="curve" smooth="yes"/>
      <point x="42" y="189" type="line" smooth="yes"/>
      <point x="31" y="189"/>
      <point x="24" y="182"/>
      <point x="24" y="168" type="curve" smooth="yes"/>
      <point x="24" y="27" type="line" smooth="yes"/>
      <point x="24" y="11"/>
      <point x="30" y="3"/>
      <point x="49" y="3" type="curve" smooth="yes"/>
      <point x="191" y="3" type="line" smooth="yes"/>
      <point x="213" y="3"/>
      <point x="222" y="11"/>
      <point x="222" y="30" type="curve" smooth="yes"/>
      <point x="222" y="170" type="line" smooth="yes"/>
    </contour>
  </outline>
</glyph>
<glyph name="semicolon" format="1">
  <advance width="250"/>
  <unicode hex="003B"/>
  <outline>
    <contour>
      <point x="33" y="491"/>
      <point x="29" y="490"/>
      <point x="25" y="480" type="curve" smooth="yes"/>
      <point x="24" y="478"/>
      <point x="23" y="440"/>
      <point x="23" y="396" type="curve" smooth="yes"/>
      <point x="23" y="325"/>
      <point x="23" y="316"/>
      <point x="26" y="311" type="curve" smooth="yes"/>
      <point x="31" y="303"/>
      <point x="33" y="303"/>
      <point x="99" y="305" type="curve" smooth="yes"/>
      <point x="121" y="305"/>
      <point x="148" y="305"/>
      <point x="158" y="304" type="curve" smooth="yes"/>
      <point x="168" y="303"/>
      <point x="178" y="302"/>
      <point x="179" y="302" type="curve" smooth="yes"/>
      <point x="187" y="302"/>
      <point x="211" y="304"/>
      <point x="214" y="306" type="curve" smooth="yes"/>
      <point x="217" y="307"/>
      <point x="219" y="310"/>
      <point x="220" y="312" type="curve" smooth="yes"/>
      <point x="221" y="314"/>
      <point x="222" y="339"/>
      <point x="221" y="374" type="curve" smooth="yes"/>
      <point x="220" y="408"/>
      <point x="221" y="437"/>
      <point x="222" y="443" type="curve" smooth="yes"/>
      <point x="224" y="455"/>
      <point x="222" y="481"/>
      <point x="219" y="484" type="curve" smooth="yes"/>
      <point x="213" y="490"/>
      <point x="194" y="492"/>
      <point x="134" y="492" type="curve" smooth="yes"/>
      <point x="100" y="492"/>
      <point x="64" y="492"/>
      <point x="54" y="492" type="curve" smooth="yes"/>
    </contour>
    <contour>
      <point x="38" y="184"/>
      <point x="34" y="180"/>
      <point x="32" y="175" type="curve" smooth="yes"/>
      <point x="26" y="167" type="line"/>
      <point x="26" y="90" type="line" smooth="yes"/>
      <point x="25" y="5"/>
      <point x="25" y="6"/>
      <point x="38" y="1" type="curve" smooth="yes"/>
      <point x="42" y="-1"/>
      <point x="50" y="-1"/>
      <point x="65" y="0" type="curve" smooth="yes"/>
      <point x="83" y="0"/>
      <point x="86" y="0"/>
      <point x="87" y="-3" type="curve" smooth="yes"/>
      <point x="90" y="-8"/>
      <point x="82" y="-35"/>
      <point x="72" y="-55" type="curve" smooth="yes"/>
      <point x="49" y="-103"/>
      <point x="44" y="-113"/>
      <point x="38" y="-125" type="curve" smooth="yes"/>
      <point x="28" y="-143"/>
      <point x="27" y="-149"/>
      <point x="34" y="-158" type="curve" smooth="yes"/>
      <point x="40" y="-164" type="line"/>
      <point x="58" y="-163" type="line" smooth="yes"/>
      <point x="79" y="-162"/>
      <point x="95" y="-157"/>
      <point x="105" y="-147" type="curve" smooth="yes"/>
      <point x="113" y="-139"/>
      <point x="124" y="-123"/>
      <point x="127" y="-114" type="curve" smooth="yes"/>
      <point x="129" y="-109"/>
      <point x="133" y="-103"/>
      <point x="136" y="-100" type="curve" smooth="yes"/>
      <point x="146" y="-89"/>
      <point x="162" y="-69"/>
      <point x="167" y="-60" type="curve" smooth="yes"/>
      <point x="170" y="-55"/>
      <point x="174" y="-49"/>
      <point x="177" y="-46" type="curve" smooth="yes"/>
      <point x="180" y="-42"/>
      <point x="186" y="-34"/>
      <point x="191" y="-27" type="curve" smooth="yes"/>
      <point x="196" y="-20"/>
      <point x="203" y="-10"/>
      <point x="207" y="-5" type="curve" smooth="yes"/>
      <point x="211" y="0"/>
      <point x="216" y="9"/>
      <point x="219" y="15" type="curve" smooth="yes"/>
      <point x="222" y="26"/>
      <point x="223" y="29"/>
      <point x="222" y="61" type="curve" smooth="yes"/>
      <point x="222" y="79"/>
      <point x="222" y="113"/>
      <point x="221" y="135" type="curve" smooth="yes"/>
      <point x="221" y="181"/>
      <point x="221" y="181"/>
      <point x="204" y="185" type="curve" smooth="yes"/>
      <point x="196" y="187"/>
      <point x="191" y="187"/>
      <point x="185" y="185" type="curve" smooth="yes"/>
      <point x="180" y="184"/>
      <point x="166" y="184"/>
      <point x="147" y="184" type="curve" smooth="yes"/>
      <point x="123" y="185"/>
      <point x="117" y="184"/>
      <point x="114" y="182" type="curve" smooth="yes"/>
      <point x="109" y="178"/>
      <point x="103" y="178"/>
      <point x="95" y="182" type="curve" smooth="yes"/>
      <point x="86" y="186"/>
      <point x="46" y="189"/>
      <point x="40" y="185" type="curve" smooth="yes"/>
    </contour>
  </outline>
</glyph>
<glyph name="less" format="1">
  <advance width="599"/>
  <unicode hex="003C"/>
  <outline>
    <contour>
      <point x="544" y="234"/>
      <point x="531" y="244"/>
      <point x="499" y="256" type="curve" smooth="yes"/>
      <point x="246" y="348" type="line"/>
      <point x="499" y="443" type="line" smooth="yes"/>
      <point x="530" y="455"/>
      <point x="544" y="468"/>
      <point x="544" y="490" type="curve" smooth="yes"/>
      <point x="544" y="586" type="line" smooth="yes"/>
      <point x="544" y="605"/>
      <point x="527" y="619"/>
      <point x="507" y="611" type="curve" smooth="yes"/>
      <point x="63" y="440" type="line" smooth="yes"/>
      <point x="46" y="434"/>
      <point x="35" y="424"/>
      <point x="35" y="404" type="curve" smooth="yes"/>
      <point x="35" y="293" type="line" smooth="yes"/>
      <point x="35" y="275"/>
      <point x="47" y="265"/>
      <point x="63" y="259" type="curve" smooth="yes"/>
      <point x="506" y="89" type="line" smooth="yes"/>
      <point x="527" y="81"/>
      <point x="544" y="88"/>
      <point x="544" y="114" type="curve" smooth="yes"/>
      <point x="544" y="210" type="line" smooth="yes"/>
    </contour>
  </outline>
</glyph>
<glyph name="question" format="1">
  <advance width="495"/>
  <unicode hex="003F"/>
  <outline>
    <contour>
      <point x="206" y="704"/>
      <point x="195" y="702"/>
      <point x="193" y="702" type="curve" smooth="yes"/>
      <point x="192" y="701"/>
      <point x="184" y="700"/>
      <point x="175" y="698" type="curve" smooth="yes"/>
      <point x="166" y="697"/>
      <point x="155" y="694"/>
      <point x="149" y="692" type="curve" smooth="yes"/>
      <point x="144" y="689"/>
      <point x="134" y="685"/>
      <point x="128" y="683" type="curve" smooth="yes"/>
      <point x="122" y="681"/>
      <point x="113" y="676"/>
      <point x="108" y="673" type="curve" smooth="yes"/>
      <point x="103" y="670"/>
      <point x="99" y="667"/>
      <point x="98" y="667" type="curve" smooth="yes"/>
      <point x="97" y="667"/>
      <point x="93" y="665"/>
      <point x="89" y="662" type="curve" smooth="yes"/>
      <point x="86" y="659"/>
      <point x="78" y="655"/>
      <point x="74" y="652" type="curve" smooth="yes"/>
      <point x="50" y="641"/>
      <point x="17" y="595"/>
      <point x="3" y="555" type="curve" smooth="yes"/>
      <point x="-1" y="546"/>
      <point x="-1" y="546"/>
      <point x="2" y="539" type="curve" smooth="yes"/>
      <point x="8" y="530"/>
      <point x="19" y="525"/>
      <point x="43" y="521" type="curve" smooth="yes"/>
      <point x="55" y="519"/>
      <point x="72" y="516"/>
      <point x="80" y="514" type="curve" smooth="yes"/>
      <point x="88" y="512"/>
      <point x="100" y="510"/>
      <point x="107" y="509" type="curve" smooth="yes"/>
      <point x="114" y="508"/>
      <point x="126" y="506"/>
      <point x="134" y="505" type="curve" smooth="yes"/>
      <point x="148" y="503" type="line"/>
      <point x="153" y="508" type="line" smooth="yes"/>
      <point x="155" y="511"/>
      <point x="158" y="517"/>
      <point x="159" y="521" type="curve" smooth="yes"/>
      <point x="163" y="531"/>
      <point x="174" y="550"/>
      <point x="182" y="558" type="curve" smooth="yes"/>
      <point x="189" y="566"/>
      <point x="199" y="572"/>
      <point x="219" y="582" type="curve" smooth="yes"/>
      <point x="232" y="588"/>
      <point x="235" y="589"/>
      <point x="248" y="589" type="curve" smooth="yes"/>
      <point x="278" y="589"/>
      <point x="303" y="577"/>
      <point x="312" y="559" type="curve" smooth="yes"/>
      <point x="315" y="551"/>
      <point x="316" y="549"/>
      <point x="314" y="541" type="curve" smooth="yes"/>
      <point x="312" y="536"/>
      <point x="308" y="527"/>
      <point x="304" y="521" type="curve" smooth="yes"/>
      <point x="299" y="515"/>
      <point x="293" y="507"/>
      <point x="291" y="502" type="curve" smooth="yes"/>
      <point x="288" y="498"/>
      <point x="283" y="493"/>
      <point x="281" y="491" type="curve" smooth="yes"/>
      <point x="279" y="489"/>
      <point x="276" y="486"/>
      <point x="276" y="484" type="curve" smooth="yes"/>
      <point x="275" y="482"/>
      <point x="270" y="478"/>
      <point x="266" y="475" type="curve" smooth="yes"/>
      <point x="261" y="472"/>
      <point x="255" y="467"/>
      <point x="254" y="464" type="curve" smooth="yes"/>
      <point x="250" y="456"/>
      <point x="245" y="449"/>
      <point x="233" y="437" type="curve" smooth="yes"/>
      <point x="228" y="431"/>
      <point x="219" y="418"/>
      <point x="212" y="408" type="curve" smooth="yes"/>
      <point x="191" y="377"/>
      <point x="174" y="327"/>
      <point x="172" y="288" type="curve" smooth="yes"/>
      <point x="171" y="269"/>
      <point x="171" y="268"/>
      <point x="176" y="262" type="curve" smooth="yes"/>
      <point x="181" y="256"/>
      <point x="193" y="252"/>
      <point x="200" y="253" type="curve" smooth="yes"/>
      <point x="202" y="254"/>
      <point x="226" y="254"/>
      <point x="253" y="254" type="curve" smooth="yes"/>
      <point x="287" y="255"/>
      <point x="304" y="256"/>
      <point x="307" y="257" type="curve" smooth="yes"/>
      <point x="314" y="261"/>
      <point x="318" y="269"/>
      <point x="320" y="280" type="curve" smooth="yes"/>
      <point x="324" y="309"/>
      <point x="325" y="314"/>
      <point x="330" y="325" type="curve" smooth="yes"/>
      <point x="333" y="331"/>
      <point x="340" y="341"/>
      <point x="345" y="347" type="curve" smooth="yes"/>
      <point x="360" y="366"/>
      <point x="391" y="396"/>
      <point x="400" y="401" type="curve" smooth="yes"/>
      <point x="414" y="411"/>
      <point x="447" y="438"/>
      <point x="460" y="453" type="curve" smooth="yes"/>
      <point x="480" y="475"/>
      <point x="495" y="501"/>
      <point x="495" y="514" type="curve" smooth="yes"/>
      <point x="495" y="516"/>
      <point x="495" y="531"/>
      <point x="495" y="546" type="curve" smooth="yes"/>
      <point x="495" y="575" type="line"/>
      <point x="487" y="595" type="line" smooth="yes"/>
      <point x="481" y="609"/>
      <point x="476" y="618"/>
      <point x="468" y="626" type="curve" smooth="yes"/>
      <point x="463" y="632"/>
      <point x="458" y="638"/>
      <point x="458" y="639" type="curve" smooth="yes"/>
      <point x="456" y="644"/>
      <point x="430" y="663"/>
      <point x="424" y="665" type="curve" smooth="yes"/>
      <point x="419" y="667"/>
      <point x="413" y="670"/>
      <point x="410" y="672" type="curve" smooth="yes"/>
      <point x="407" y="675"/>
      <point x="404" y="677"/>
      <point x="403" y="677" type="curve" smooth="yes"/>
      <point x="402" y="677"/>
      <point x="393" y="681"/>
      <point x="384" y="686" type="curve" smooth="yes"/>
      <point x="374" y="691"/>
      <point x="364" y="695"/>
      <point x="361" y="695" type="curve" smooth="yes"/>
      <point x="359" y="695"/>
      <point x="352" y="696"/>
      <point x="347" y="698" type="curve" smooth="yes"/>
      <point x="335" y="702"/>
      <point x="306" y="704"/>
      <point x="292" y="701" type="curve" smooth="yes"/>
      <point x="286" y="700"/>
      <point x="283" y="701"/>
      <point x="280" y="703" type="curve" smooth="yes"/>
      <point x="275" y="708"/>
      <point x="250" y="709"/>
      <point x="219" y="705" type="curve" smooth="yes"/>
    </contour>
    <contour>
      <point x="306" y="188"/>
      <point x="296" y="187"/>
      <point x="289" y="187" type="curve" smooth="yes"/>
      <point x="283" y="188"/>
      <point x="277" y="187"/>
      <point x="275" y="185" type="curve" smooth="yes"/>
      <point x="273" y="183"/>
      <point x="271" y="183"/>
      <point x="267" y="186" type="curve" smooth="yes"/>
      <point x="264" y="188"/>
      <point x="260" y="189"/>
      <point x="259" y="188" type="curve" smooth="yes"/>
      <point x="256" y="188"/>
      <point x="237" y="186"/>
      <point x="210" y="185" type="curve" smooth="yes"/>
      <point x="206" y="185"/>
      <point x="202" y="186"/>
      <point x="186" y="189" type="curve" smooth="yes"/>
      <point x="179" y="190"/>
      <point x="153" y="183"/>
      <point x="150" y="179" type="curve" smooth="yes"/>
      <point x="148" y="177"/>
      <point x="148" y="162"/>
      <point x="148" y="130" type="curve" smooth="yes"/>
      <point x="148" y="71"/>
      <point x="148" y="77"/>
      <point x="146" y="50" type="curve" smooth="yes"/>
      <point x="144" y="21"/>
      <point x="145" y="16"/>
      <point x="152" y="7" type="curve" smooth="yes"/>
      <point x="160" y="-1"/>
      <point x="150" y="0"/>
      <point x="252" y="0" type="curve" smooth="yes"/>
      <point x="327" y="0" type="line"/>
      <point x="333" y="5" type="line" smooth="yes"/>
      <point x="341" y="13"/>
      <point x="344" y="21"/>
      <point x="343" y="46" type="curve" smooth="yes"/>
      <point x="342" y="83"/>
      <point x="342" y="113"/>
      <point x="343" y="166" type="curve" smooth="yes"/>
      <point x="343" y="176"/>
      <point x="342" y="178"/>
      <point x="337" y="183" type="curve" smooth="yes"/>
      <point x="329" y="191"/>
      <point x="327" y="191"/>
      <point x="313" y="189" type="curve" smooth="yes"/>
    </contour>
  </outline>
</glyph>
<glyph name="A" format="1">
  <advance width="756"/>
  <unicode hex="0041"/>
  <outline>
    <contour>
      <point x="473" y="742" type="line" smooth="yes"/>
      <point x="490" y="742"/>
      <point x="503" y="731"/>
      <point x="508" y="715" type="curve" smooth="yes"/>
      <point x="740" y="34" type="line" smooth="yes"/>
      <point x="744" y="20"/>
      <point x="741" y="0"/>
      <point x="726" y="0" type="curve" smooth="yes"/>
      <point x="533" y="0" type="line" smooth="yes"/>
      <point x="523" y="0"/>
      <point x="514" y="4"/>
      <point x="511" y="17" type="curve" smooth="yes"/>
      <point x="475" y="141" type="line" smooth="yes"/>
      <point x="473" y="148"/>
      <point x="470" y="153"/>
      <point x="460" y="153" type="curve" smooth="yes"/>
      <point x="259" y="153" type="line" smooth="yes"/>
      <point x="251" y="153"/>
      <point x="246" y="149"/>
      <point x="244" y="142" type="curve" smooth="yes"/>
      <point x="206" y="15" type="line" smooth="yes"/>
      <point x="204" y="7"/>
      <point x="196" y="0"/>
      <point x="182" y="0" type="curve" smooth="yes"/>
      <point x="30" y="0" type="line" smooth="yes"/>
      <point x="15" y="0"/>
      <point x="8" y="15"/>
      <point x="15" y="37" type="curve" smooth="yes"/>
      <point x="249" y="719" type="line" smooth="yes"/>
      <point x="254" y="735"/>
      <point x="261" y="742"/>
      <point x="278" y="742" type="curve" smooth="yes"/>
    </contour>
    <contour>
      <point x="364" y="505" type="line" smooth="yes"/>
      <point x="362" y="512"/>
      <point x="356" y="512"/>
      <point x="353" y="505" type="curve" smooth="yes"/>
      <point x="297" y="335" type="line" smooth="yes"/>
      <point x="293" y="322"/>
      <point x="295" y="314"/>
      <point x="307" y="314" type="curve" smooth="yes"/>
      <point x="410" y="314" type="line" smooth="yes"/>
      <point x="421" y="314"/>
      <point x="423" y="321"/>
      <point x="419" y="334" type="curve" smooth="yes"/>
    </contour>
  </outline>
</glyph>
<glyph name="B" format="1">
  <advance width="700"/>
  <unicode hex="0042"/>
  <outline>
    <contour>
      <point x="53" y="698"/>
      <point x="50" y="693"/>
      <point x="47" y="689" type="curve" smooth="yes"/>
      <point x="43" y="680"/>
      <point x="43" y="679"/>
      <point x="42" y="524" type="curve" smooth="yes"/>
      <point x="41" y="438"/>
      <point x="41" y="348"/>
      <point x="41" y="324" type="curve" smooth="yes"/>
      <point x="41" y="300"/>
      <point x="42" y="220"/>
      <point x="42" y="148" type="curve" smooth="yes"/>
      <point x="42" y="25"/>
      <point x="43" y="14"/>
      <point x="46" y="10" type="curve" smooth="yes"/>
      <point x="52" y="0"/>
      <point x="56" y="-1"/>
      <point x="163" y="0" type="curve" smooth="yes"/>
      <point x="242" y="1"/>
      <point x="264" y="1"/>
      <point x="324" y="1" type="curve" smooth="yes"/>
      <point x="390" y="0"/>
      <point x="480" y="3"/>
      <point x="492" y="6" type="curve" smooth="yes"/>
      <point x="497" y="7"/>
      <point x="508" y="9"/>
      <point x="517" y="11" type="curve" smooth="yes"/>
      <point x="542" y="16"/>
      <point x="547" y="17"/>
      <point x="553" y="20" type="curve" smooth="yes"/>
      <point x="556" y="21"/>
      <point x="563" y="23"/>
      <point x="568" y="24" type="curve" smooth="yes"/>
      <point x="579" y="27"/>
      <point x="600" y="37"/>
      <point x="604" y="42" type="curve" smooth="yes"/>
      <point x="606" y="44"/>
      <point x="611" y="47"/>
      <point x="615" y="49" type="curve" smooth="yes"/>
      <point x="626" y="55"/>
      <point x="642" y="70"/>
      <point x="651" y="83" type="curve" smooth="yes"/>
      <point x="661" y="97"/>
      <point x="675" y="128"/>
      <point x="675" y="135" type="curve" smooth="yes"/>
      <point x="675" y="138"/>
      <point x="677" y="145"/>
      <point x="679" y="153" type="curve" smooth="yes"/>
      <point x="685" y="172"/>
      <point x="685" y="205"/>
      <point x="678" y="233" type="curve" smooth="yes"/>
      <point x="675" y="245"/>
      <point x="670" y="257"/>
      <point x="668" y="261" type="curve" smooth="yes"/>
      <point x="666" y="264"/>
      <point x="663" y="270"/>
      <point x="662" y="273" type="curve" smooth="yes"/>
      <point x="658" y="286"/>
      <point x="631" y="315"/>
      <point x="617" y="320" type="curve" smooth="yes"/>
      <point x="612" y="322"/>
      <point x="606" y="327"/>
      <point x="601" y="330" type="curve" smooth="yes"/>
      <point x="591" y="338"/>
      <point x="564" y="351"/>
      <point x="558" y="351" type="curve" smooth="yes"/>
      <point x="556" y="351"/>
      <point x="552" y="353"/>
      <point x="547" y="355" type="curve" smooth="yes"/>
      <point x="538" y="358"/>
      <point x="536" y="363"/>
      <point x="543" y="363" type="curve" smooth="yes"/>
      <point x="545" y="363"/>
      <point x="547" y="364"/>
      <point x="547" y="365" type="curve" smooth="yes"/>
      <point x="547" y="366"/>
      <point x="551" y="369"/>
      <point x="557" y="371" type="curve" smooth="yes"/>
      <point x="578" y="380"/>
      <point x="603" y="397"/>
      <point x="623" y="416" type="curve" smooth="yes"/>
      <point x="646" y="439"/>
      <point x="656" y="459"/>
      <point x="662" y="491" type="curve" smooth="yes"/>
      <point x="664" y="504"/>
      <point x="665" y="518"/>
      <point x="665" y="523" type="curve" smooth="yes"/>
      <point x="665" y="540"/>
      <point x="656" y="574"/>
      <point x="648" y="585" type="curve" smooth="yes"/>
      <point x="647" y="588"/>
      <point x="644" y="593"/>
      <point x="642" y="596" type="curve" smooth="yes"/>
      <point x="639" y="602"/>
      <point x="624" y="621"/>
      <point x="611" y="634" type="curve" smooth="yes"/>
      <point x="607" y="639"/>
      <point x="599" y="645"/>
      <point x="594" y="648" type="curve" smooth="yes"/>
      <point x="589" y="650"/>
      <point x="582" y="654"/>
      <point x="579" y="657" type="curve" smooth="yes"/>
      <point x="570" y="663"/>
      <point x="559" y="668"/>
      <point x="546" y="672" type="curve" smooth="yes"/>
      <point x="540" y="674"/>
      <point x="534" y="676"/>
      <point x="534" y="677" type="curve" smooth="yes"/>
      <point x="529" y="685"/>
      <point x="449" y="696"/>
      <point x="390" y="697" type="curve" smooth="yes"/>
      <point x="369" y="697"/>
      <point x="311" y="697"/>
      <point x="260" y="698" type="curve" smooth="yes"/>
      <point x="209" y="698"/>
      <point x="143" y="699"/>
      <point x="114" y="699" type="curve" smooth="yes"/>
      <point x="82" y="700"/>
      <point x="58" y="700"/>
      <point x="56" y="699" type="curve" smooth="yes"/>
    </contour>
    <contour>
      <point x="412" y="556"/>
      <point x="431" y="546"/>
      <point x="446" y="520" type="curve" smooth="yes"/>
      <point x="455" y="505"/>
      <point x="455" y="482"/>
      <point x="445" y="461" type="curve" smooth="yes"/>
      <point x="441" y="453"/>
      <point x="423" y="437"/>
      <point x="417" y="437" type="curve" smooth="yes"/>
      <point x="415" y="437"/>
      <point x="411" y="436"/>
      <point x="408" y="435" type="curve" smooth="yes"/>
      <point x="406" y="433"/>
      <point x="397" y="431"/>
      <point x="389" y="430" type="curve" smooth="yes"/>
      <point x="373" y="428"/>
      <point x="271" y="428"/>
      <point x="265" y="430" type="curve" smooth="yes"/>
      <point x="256" y="433"/>
      <point x="255" y="437"/>
      <point x="256" y="489" type="curve" smooth="yes"/>
      <point x="256" y="538"/>
      <point x="257" y="552"/>
      <point x="262" y="555" type="curve" smooth="yes"/>
      <point x="266" y="558"/>
      <point x="307" y="560"/>
      <point x="336" y="559" type="curve" smooth="yes"/>
      <point x="350" y="558"/>
      <point x="371" y="557"/>
      <point x="381" y="557" type="curve" smooth="yes"/>
    </contour>
    <contour>
      <point x="398" y="280"/>
      <point x="401" y="279"/>
      <point x="425" y="267" type="curve" smooth="yes"/>
      <point x="445" y="257"/>
      <point x="449" y="254"/>
      <point x="455" y="240" type="curve" smooth="yes"/>
      <point x="459" y="232"/>
      <point x="460" y="227"/>
      <point x="459" y="214" type="curve" smooth="yes"/>
      <point x="459" y="193"/>
      <point x="454" y="180"/>
      <point x="441" y="166" type="curve" smooth="yes"/>
      <point x="426" y="151"/>
      <point x="414" y="145"/>
      <point x="388" y="142" type="curve" smooth="yes"/>
      <point x="365" y="140"/>
      <point x="363" y="140"/>
      <point x="339" y="142" type="curve" smooth="yes"/>
      <point x="315" y="143"/>
      <point x="303" y="143"/>
      <point x="287" y="142" type="curve" smooth="yes"/>
      <point x="271" y="141"/>
      <point x="261" y="143"/>
      <point x="258" y="149" type="curve" smooth="yes"/>
      <point x="256" y="153"/>
      <point x="255" y="206"/>
      <point x="257" y="209" type="curve" smooth="yes"/>
      <point x="257" y="210"/>
      <point x="257" y="214"/>
      <point x="256" y="220" type="curve" smooth="yes"/>
      <point x="254" y="230"/>
      <point x="257" y="267"/>
      <point x="260" y="275" type="curve" smooth="yes"/>
      <point x="261" y="278"/>
      <point x="263" y="279"/>
      <point x="266" y="278" type="curve" smooth="yes"/>
      <point x="269" y="278"/>
      <point x="275" y="278"/>
      <point x="280" y="279" type="curve" smooth="yes"/>
      <point x="286" y="280"/>
      <point x="306" y="280"/>
      <point x="326" y="280" type="curve" smooth="yes"/>
      <point x="346" y="279"/>
      <point x="370" y="279"/>
      <point x="380" y="279" type="curve" smooth="yes"/>
    </contour>
  </outline>
</glyph>
<glyph name="C" format="1">
  <advance width="700"/>
  <unicode hex="0043"/>
  <outline>
    <contour>
      <point x="363" y="706"/>
      <point x="353" y="705"/>
      <point x="341" y="705" type="curve" smooth="yes"/>
      <point x="330" y="705"/>
      <point x="317" y="704"/>
      <point x="314" y="704" type="curve" smooth="yes"/>
      <point x="310" y="703"/>
      <point x="298" y="701"/>
      <point x="288" y="699" type="curve" smooth="yes"/>
      <point x="262" y="695"/>
      <point x="239" y="688"/>
      <point x="220" y="679" type="curve" smooth="yes"/>
      <point x="214" y="675"/>
      <point x="207" y="673"/>
      <point x="205" y="673" type="curve" smooth="yes"/>
      <point x="204" y="673"/>
      <point x="198" y="669"/>
      <point x="192" y="665" type="curve" smooth="yes"/>
      <point x="186" y="660"/>
      <point x="178" y="655"/>
      <point x="172" y="652" type="curve" smooth="yes"/>
      <point x="164" y="648"/>
      <point x="146" y="635"/>
      <point x="131" y="622" type="curve" smooth="yes"/>
      <point x="122" y="614"/>
      <point x="107" y="596"/>
      <point x="104" y="590" type="curve" smooth="yes"/>
      <point x="103" y="586"/>
      <point x="100" y="583"/>
      <point x="99" y="583" type="curve" smooth="yes"/>
      <point x="94" y="583"/>
      <point x="61" y="523"/>
      <point x="48" y="490" type="curve" smooth="yes"/>
      <point x="44" y="480"/>
      <point x="39" y="464"/>
      <point x="38" y="456" type="curve" smooth="yes"/>
      <point x="36" y="447"/>
      <point x="34" y="437"/>
      <point x="33" y="434" type="curve" smooth="yes"/>
      <point x="28" y="416"/>
      <point x="26" y="351"/>
      <point x="30" y="303" type="curve" smooth="yes"/>
      <point x="32" y="269"/>
      <point x="34" y="259"/>
      <point x="44" y="226" type="curve" smooth="yes"/>
      <point x="47" y="217"/>
      <point x="50" y="206"/>
      <point x="51" y="201" type="curve" smooth="yes"/>
      <point x="54" y="191"/>
      <point x="72" y="155"/>
      <point x="79" y="143" type="curve" smooth="yes"/>
      <point x="82" y="139"/>
      <point x="87" y="132"/>
      <point x="90" y="127" type="curve" smooth="yes"/>
      <point x="93" y="123"/>
      <point x="95" y="119"/>
      <point x="95" y="118" type="curve" smooth="yes"/>
      <point x="95" y="117"/>
      <point x="100" y="112"/>
      <point x="105" y="106" type="curve" smooth="yes"/>
      <point x="111" y="101"/>
      <point x="116" y="95"/>
      <point x="118" y="92" type="curve" smooth="yes"/>
      <point x="124" y="83"/>
      <point x="171" y="44"/>
      <point x="184" y="38" type="curve" smooth="yes"/>
      <point x="187" y="37"/>
      <point x="195" y="33"/>
      <point x="200" y="29" type="curve" smooth="yes"/>
      <point x="218" y="19"/>
      <point x="262" y="4"/>
      <point x="283" y="0" type="curve" smooth="yes"/>
      <point x="290" y="-1"/>
      <point x="300" y="-2"/>
      <point x="307" y="-4" type="curve" smooth="yes"/>
      <point x="317" y="-5"/>
      <point x="350" y="-7"/>
      <point x="375" y="-8" type="curve" smooth="yes"/>
      <point x="405" y="-9"/>
      <point x="471" y="4"/>
      <point x="482" y="12" type="curve" smooth="yes"/>
      <point x="483" y="13"/>
      <point x="486" y="14"/>
      <point x="489" y="15" type="curve" smooth="yes"/>
      <point x="498" y="18"/>
      <point x="542" y="40"/>
      <point x="553" y="47" type="curve" smooth="yes"/>
      <point x="559" y="51"/>
      <point x="569" y="58"/>
      <point x="575" y="64" type="curve" smooth="yes"/>
      <point x="582" y="70"/>
      <point x="587" y="74"/>
      <point x="588" y="74" type="curve" smooth="yes"/>
      <point x="589" y="74"/>
      <point x="594" y="79"/>
      <point x="598" y="85" type="curve" smooth="yes"/>
      <point x="603" y="91"/>
      <point x="610" y="100"/>
      <point x="614" y="104" type="curve" smooth="yes"/>
      <point x="619" y="108"/>
      <point x="624" y="115"/>
      <point x="627" y="119" type="curve" smooth="yes"/>
      <point x="637" y="132"/>
      <point x="665" y="190"/>
      <point x="670" y="210" type="curve" smooth="yes"/>
      <point x="674" y="223"/>
      <point x="669" y="233"/>
      <point x="657" y="239" type="curve" smooth="yes"/>
      <point x="647" y="243"/>
      <point x="633" y="246"/>
      <point x="616" y="247" type="curve" smooth="yes"/>
      <point x="601" y="248"/>
      <point x="595" y="249"/>
      <point x="577" y="255" type="curve" smooth="yes"/>
      <point x="550" y="264"/>
      <point x="523" y="266"/>
      <point x="516" y="261" type="curve" smooth="yes"/>
      <point x="514" y="259"/>
      <point x="509" y="248"/>
      <point x="504" y="236" type="curve" smooth="yes"/>
      <point x="498" y="223"/>
      <point x="491" y="209"/>
      <point x="487" y="203" type="curve" smooth="yes"/>
      <point x="475" y="185"/>
      <point x="455" y="171"/>
      <point x="427" y="158" type="curve" smooth="yes"/>
      <point x="424" y="157"/>
      <point x="421" y="155"/>
      <point x="419" y="154" type="curve" smooth="yes"/>
      <point x="405" y="147"/>
      <point x="363" y="145"/>
      <point x="341" y="152" type="curve" smooth="yes"/>
      <point x="323" y="158"/>
      <point x="316" y="162"/>
      <point x="301" y="176" type="curve" smooth="yes"/>
      <point x="290" y="186"/>
      <point x="286" y="191"/>
      <point x="280" y="205" type="curve" smooth="yes"/>
      <point x="265" y="238"/>
      <point x="259" y="258"/>
      <point x="258" y="287" type="curve" smooth="yes"/>
      <point x="258" y="294"/>
      <point x="256" y="308"/>
      <point x="255" y="318" type="curve" smooth="yes"/>
      <point x="254" y="329"/>
      <point x="253" y="352"/>
      <point x="254" y="375" type="curve" smooth="yes"/>
      <point x="255" y="419"/>
      <point x="256" y="434"/>
      <point x="260" y="450" type="curve" smooth="yes"/>
      <point x="271" y="497"/>
      <point x="271" y="497"/>
      <point x="285" y="518" type="curve" smooth="yes"/>
      <point x="307" y="552"/>
      <point x="342" y="567"/>
      <point x="383" y="561" type="curve" smooth="yes"/>
      <point x="408" y="557"/>
      <point x="415" y="554"/>
      <point x="433" y="536" type="curve" smooth="yes"/>
      <point x="444" y="526"/>
      <point x="450" y="517"/>
      <point x="451" y="514" type="curve" smooth="yes"/>
      <point x="452" y="511"/>
      <point x="454" y="506"/>
      <point x="456" y="502" type="curve" smooth="yes"/>
      <point x="461" y="492"/>
      <point x="466" y="477"/>
      <point x="466" y="470" type="curve" smooth="yes"/>
      <point x="466" y="460"/>
      <point x="470" y="451"/>
      <point x="477" y="449" type="curve" smooth="yes"/>
      <point x="479" y="449"/>
      <point x="492" y="449"/>
      <point x="505" y="450" type="curve" smooth="yes"/>
      <point x="518" y="452"/>
      <point x="533" y="453"/>
      <point x="538" y="453" type="curve" smooth="yes"/>
      <point x="543" y="452"/>
      <point x="551" y="453"/>
      <point x="557" y="453" type="curve" smooth="yes"/>
      <point x="567" y="454"/>
      <point x="594" y="456"/>
      <point x="634" y="459" type="curve" smooth="yes"/>
      <point x="641" y="460"/>
      <point x="648" y="460"/>
      <point x="651" y="460" type="curve" smooth="yes"/>
      <point x="658" y="460"/>
      <point x="665" y="469"/>
      <point x="665" y="478" type="curve" smooth="yes"/>
      <point x="665" y="490"/>
      <point x="654" y="522"/>
      <point x="643" y="544" type="curve" smooth="yes"/>
      <point x="639" y="552"/>
      <point x="635" y="562"/>
      <point x="634" y="566" type="curve" smooth="yes"/>
      <point x="632" y="570"/>
      <point x="629" y="575"/>
      <point x="626" y="577" type="curve" smooth="yes"/>
      <point x="624" y="580"/>
      <point x="622" y="583"/>
      <point x="622" y="584" type="curve" smooth="yes"/>
      <point x="622" y="585"/>
      <point x="618" y="590"/>
      <point x="614" y="594" type="curve" smooth="yes"/>
      <point x="609" y="598"/>
      <point x="604" y="604"/>
      <point x="603" y="608" type="curve" smooth="yes"/>
      <point x="597" y="619"/>
      <point x="588" y="627"/>
      <point x="570" y="641" type="curve" smooth="yes"/>
      <point x="560" y="648"/>
      <point x="550" y="656"/>
      <point x="548" y="659" type="curve" smooth="yes"/>
      <point x="540" y="665"/>
      <point x="508" y="682"/>
      <point x="492" y="687" type="curve" smooth="yes"/>
      <point x="473" y="694"/>
      <point x="465" y="696"/>
      <point x="449" y="698" type="curve" smooth="yes"/>
      <point x="442" y="699"/>
      <point x="431" y="701"/>
      <point x="426" y="703" type="curve" smooth="yes"/>
      <point x="421" y="704"/>
      <point x="413" y="705"/>
      <point x="409" y="705" type="curve" smooth="yes"/>
      <point x="381" y="708"/>
      <point x="365" y="708"/>
      <point x="364" y="707" type="curve" smooth="yes"/>
    </contour>
  </outline>
</glyph>
<glyph name="D" format="1">
  <advance width="700"/>
  <unicode hex="0044"/>
  <outline>
    <contour>
      <point x="87" y="700"/>
      <point x="264" y="695"/>
      <point x="319" y="693" type="curve" smooth="yes"/>
      <point x="565" y="683"/>
      <point x="683" y="549"/>
      <point x="683" y="348" type="curve" smooth="yes"/>
      <point x="683" y="146"/>
      <point x="559" y="0"/>
      <point x="317" y="0" type="curve" smooth="yes"/>
      <point x="69" y="0" type="line" smooth="yes"/>
      <point x="50" y="0"/>
      <point x="42" y="8"/>
      <point x="42" y="28" type="curve" smooth="yes"/>
      <point x="42" y="677" type="line" smooth="yes"/>
      <point x="42" y="693"/>
      <point x="48" y="700"/>
      <point x="62" y="700" type="curve" smooth="yes"/>
    </contour>
    <contour>
      <point x="256" y="552"/>
      <point x="253" y="549"/>
      <point x="253" y="539" type="curve" smooth="yes"/>
      <point x="253" y="162" type="line" smooth="yes"/>
      <point x="253" y="149"/>
      <point x="257" y="148"/>
      <point x="273" y="148" type="curve" smooth="yes"/>
      <point x="394" y="148"/>
      <point x="464" y="203"/>
      <point x="464" y="353" type="curve" smooth="yes"/>
      <point x="464" y="487"/>
      <point x="408" y="540"/>
      <point x="322" y="548" type="curve" smooth="yes"/>
      <point x="299" y="550"/>
      <point x="268" y="552"/>
      <point x="262" y="552" type="curve" smooth="yes"/>
    </contour>
  </outline>
</glyph>
<glyph name="E" format="1">
  <advance width="620"/>
  <unicode hex="0045"/>
  <outline>
    <contour>
      <point x="44" y="693"/>
      <point x="51" y="700"/>
      <point x="62" y="700" type="curve" smooth="yes"/>
      <point x="571" y="700" type="line" smooth="yes"/>
      <point x="582" y="700"/>
      <point x="588" y="693"/>
      <point x="588" y="681" type="curve" smooth="yes"/>
      <point x="587" y="571" type="line" smooth="yes"/>
      <point x="587" y="556"/>
      <point x="580" y="546"/>
      <point x="563" y="546" type="curve" smooth="yes"/>
      <point x="277" y="546" type="line" smooth="yes"/>
      <point x="262" y="546"/>
      <point x="255" y="540"/>
      <point x="255" y="528" type="curve" smooth="yes"/>
      <point x="255" y="447" type="line" smooth="yes"/>
      <point x="255" y="434"/>
      <point x="262" y="428"/>
      <point x="272" y="428" type="curve" smooth="yes"/>
      <point x="445" y="428" type="line" smooth="yes"/>
      <point x="458" y="428"/>
      <point x="464" y="421"/>
      <point x="464" y="409" type="curve" smooth="yes"/>
      <point x="464" y="292" type="line" smooth="yes"/>
      <point x="464" y="283"/>
      <point x="460" y="276"/>
      <point x="447" y="276" type="curve" smooth="yes"/>
      <point x="270" y="276" type="line" smooth="yes"/>
      <point x="261" y="276"/>
      <point x="255" y="270"/>
      <point x="255" y="262" type="curve" smooth="yes"/>
      <point x="255" y="168" type="line" smooth="yes"/>
      <point x="255" y="158"/>
      <point x="258" y="155"/>
      <point x="266" y="155" type="curve" smooth="yes"/>
      <point x="576" y="155" type="line" smooth="yes"/>
      <point x="589" y="155"/>
      <point x="597" y="150"/>
      <point x="597" y="137" type="curve" smooth="yes"/>
      <point x="597" y="21" type="line" smooth="yes"/>
      <point x="597" y="9"/>
      <point x="590" y="0"/>
      <point x="574" y="0" type="curve" smooth="yes"/>
      <point x="65" y="0" type="line" smooth="yes"/>
      <point x="46" y="0"/>
      <point x="40" y="8"/>
      <point x="40" y="24" type="curve" smooth="yes"/>
      <point x="44" y="679" type="line" smooth="yes"/>
    </contour>
  </outline>
</glyph>
<glyph name="F" format="1">
  <advance width="580"/>
  <unicode hex="0046"/>
  <outline>
    <contour>
      <point x="40" y="693"/>
      <point x="47" y="700"/>
      <point x="58" y="700" type="curve" smooth="yes"/>
      <point x="558" y="700" type="line" smooth="yes"/>
      <point x="569" y="700"/>
      <point x="575" y="693"/>
      <point x="575" y="681" type="curve" smooth="yes"/>
      <point x="574" y="571" type="line" smooth="yes"/>
      <point x="574" y="556"/>
      <point x="567" y="546"/>
      <point x="550" y="546" type="curve" smooth="yes"/>
      <point x="273" y="546" type="line" smooth="yes"/>
      <point x="258" y="546"/>
      <point x="251" y="540"/>
      <point x="251" y="528" type="curve" smooth="yes"/>
      <point x="251" y="439" type="line" smooth="yes"/>
      <point x="251" y="426"/>
      <point x="258" y="420"/>
      <point x="268" y="420" type="curve" smooth="yes"/>
      <point x="441" y="420" type="line" smooth="yes"/>
      <point x="454" y="420"/>
      <point x="460" y="413"/>
      <point x="460" y="401" type="curve" smooth="yes"/>
      <point x="460" y="286" type="line" smooth="yes"/>
      <point x="460" y="277"/>
      <point x="456" y="270"/>
      <point x="443" y="270" type="curve" smooth="yes"/>
      <point x="266" y="270" type="line" smooth="yes"/>
      <point x="257" y="270"/>
      <point x="251" y="264"/>
      <point x="251" y="256" type="curve" smooth="yes"/>
      <point x="251" y="27" type="line" smooth="yes"/>
      <point x="251" y="8"/>
      <point x="242" y="0"/>
      <point x="220" y="0" type="curve" smooth="yes"/>
      <point x="61" y="0" type="line"/>
      <point x="42" y="0"/>
      <point x="36" y="8"/>
      <point x="36" y="24" type="curve" smooth="yes"/>
      <point x="40" y="679" type="line" smooth="yes"/>
    </contour>
  </outline>
</glyph>
<glyph name="G" format="1">
  <advance width="693"/>
  <unicode hex="0047"/>
  <outline>
    <contour>
      <point x="313" y="707"/>
      <point x="302" y="705"/>
      <point x="292" y="703" type="curve" smooth="yes"/>
      <point x="282" y="701"/>
      <point x="271" y="699"/>
      <point x="266" y="697" type="curve" smooth="yes"/>
      <point x="261" y="695"/>
      <point x="256" y="694"/>
      <point x="255" y="695" type="curve" smooth="yes"/>
      <point x="253" y="695"/>
      <point x="250" y="695"/>
      <point x="248" y="693" type="curve" smooth="yes"/>
      <point x="245" y="691"/>
      <point x="243" y="690"/>
      <point x="241" y="690" type="curve" smooth="yes"/>
      <point x="238" y="690"/>
      <point x="183" y="663"/>
      <point x="181" y="661" type="curve" smooth="yes"/>
      <point x="180" y="660"/>
      <point x="176" y="658"/>
      <point x="173" y="656" type="curve" smooth="yes"/>
      <point x="169" y="654"/>
      <point x="163" y="650"/>
      <point x="159" y="647" type="curve" smooth="yes"/>
      <point x="156" y="644"/>
      <point x="146" y="636"/>
      <point x="137" y="629" type="curve" smooth="yes"/>
      <point x="119" y="615"/>
      <point x="101" y="598"/>
      <point x="92" y="584" type="curve" smooth="yes"/>
      <point x="88" y="580"/>
      <point x="83" y="573"/>
      <point x="80" y="570" type="curve" smooth="yes"/>
      <point x="75" y="564"/>
      <point x="65" y="547"/>
      <point x="54" y="526" type="curve" smooth="yes"/>
      <point x="48" y="514"/>
      <point x="37" y="481"/>
      <point x="32" y="463" type="curve" smooth="yes"/>
      <point x="31" y="459"/>
      <point x="29" y="451"/>
      <point x="28" y="447" type="curve" smooth="yes"/>
      <point x="26" y="440"/>
      <point x="23" y="405"/>
      <point x="21" y="372" type="curve" smooth="yes"/>
      <point x="19" y="345"/>
      <point x="20" y="300"/>
      <point x="22" y="286" type="curve" smooth="yes"/>
      <point x="23" y="278"/>
      <point x="24" y="269"/>
      <point x="24" y="266" type="curve" smooth="yes"/>
      <point x="24" y="263"/>
      <point x="25" y="258"/>
      <point x="26" y="256" type="curve" smooth="yes"/>
      <point x="27" y="253"/>
      <point x="30" y="244"/>
      <point x="32" y="236" type="curve" smooth="yes"/>
      <point x="37" y="214"/>
      <point x="53" y="170"/>
      <point x="58" y="163" type="curve" smooth="yes"/>
      <point x="59" y="162"/>
      <point x="64" y="154"/>
      <point x="68" y="146" type="curve" smooth="yes"/>
      <point x="72" y="139"/>
      <point x="78" y="129"/>
      <point x="82" y="124" type="curve" smooth="yes"/>
      <point x="85" y="120"/>
      <point x="88" y="116"/>
      <point x="88" y="115" type="curve" smooth="yes"/>
      <point x="88" y="114"/>
      <point x="117" y="84"/>
      <point x="136" y="66" type="curve" smooth="yes"/>
      <point x="150" y="53"/>
      <point x="179" y="34"/>
      <point x="201" y="24" type="curve" smooth="yes"/>
      <point x="205" y="22"/>
      <point x="211" y="19"/>
      <point x="214" y="17" type="curve" smooth="yes"/>
      <point x="220" y="12"/>
      <point x="245" y="5"/>
      <point x="265" y="1" type="curve" smooth="yes"/>
      <point x="272" y="-1"/>
      <point x="285" y="-3"/>
      <point x="293" y="-5" type="curve" smooth="yes"/>
      <point x="309" y="-8"/>
      <point x="361" y="-9"/>
      <point x="384" y="-6" type="curve" smooth="yes"/>
      <point x="392" y="-5"/>
      <point x="404" y="-3"/>
      <point x="412" y="-2" type="curve" smooth="yes"/>
      <point x="424" y="-1"/>
      <point x="466" y="15"/>
      <point x="482" y="23" type="curve" smooth="yes"/>
      <point x="497" y="32"/>
      <point x="512" y="43"/>
      <point x="527" y="58" type="curve" smooth="yes"/>
      <point x="536" y="67"/>
      <point x="544" y="74"/>
      <point x="546" y="75" type="curve" smooth="yes"/>
      <point x="550" y="76"/>
      <point x="549" y="76"/>
      <point x="582" y="28" type="curve" smooth="yes"/>
      <point x="599" y="3"/>
      <point x="603" y="0"/>
      <point x="634" y="-1" type="curve" smooth="yes"/>
      <point x="653" y="-2"/>
      <point x="655" y="-2"/>
      <point x="661" y="1" type="curve" smooth="yes"/>
      <point x="665" y="4"/>
      <point x="668" y="8"/>
      <point x="668" y="11" type="curve" smooth="yes"/>
      <point x="669" y="14"/>
      <point x="670" y="18"/>
      <point x="672" y="20" type="curve" smooth="yes"/>
      <point x="673" y="22"/>
      <point x="673" y="24"/>
      <point x="672" y="25" type="curve" smooth="yes"/>
      <point x="671" y="27"/>
      <point x="668" y="137"/>
      <point x="667" y="190" type="curve" smooth="yes"/>
      <point x="667" y="216"/>
      <point x="666" y="242"/>
      <point x="665" y="247" type="curve" smooth="yes"/>
      <point x="664" y="255"/>
      <point x="665" y="264"/>
      <point x="667" y="275" type="curve" smooth="yes"/>
      <point x="668" y="284"/>
      <point x="670" y="301"/>
      <point x="670" y="312" type="curve" smooth="yes"/>
      <point x="670" y="337"/>
      <point x="668" y="344"/>
      <point x="654" y="350" type="curve" smooth="yes"/>
      <point x="646" y="354"/>
      <point x="643" y="354"/>
      <point x="628" y="353" type="curve" smooth="yes"/>
      <point x="619" y="352"/>
      <point x="605" y="352"/>
      <point x="596" y="352" type="curve" smooth="yes"/>
      <point x="574" y="353"/>
      <point x="489" y="355"/>
      <point x="437" y="356" type="curve" smooth="yes"/>
      <point x="413" y="356"/>
      <point x="387" y="357"/>
      <point x="379" y="358" type="curve" smooth="yes"/>
      <point x="365" y="359"/>
      <point x="364" y="359"/>
      <point x="358" y="354" type="curve" smooth="yes"/>
      <point x="353" y="349" type="line"/>
      <point x="351" y="304" type="line" smooth="yes"/>
      <point x="351" y="279"/>
      <point x="350" y="257"/>
      <point x="350" y="255" type="curve" smooth="yes"/>
      <point x="348" y="247"/>
      <point x="350" y="237"/>
      <point x="353" y="234" type="curve" smooth="yes"/>
      <point x="358" y="229"/>
      <point x="372" y="228"/>
      <point x="387" y="230" type="curve" smooth="yes"/>
      <point x="392" y="230"/>
      <point x="402" y="230"/>
      <point x="407" y="230" type="curve" smooth="yes"/>
      <point x="413" y="229"/>
      <point x="428" y="228"/>
      <point x="441" y="227" type="curve" smooth="yes"/>
      <point x="454" y="227"/>
      <point x="466" y="226"/>
      <point x="467" y="225" type="curve" smooth="yes"/>
      <point x="472" y="222"/>
      <point x="467" y="206"/>
      <point x="455" y="183" type="curve" smooth="yes"/>
      <point x="450" y="174"/>
      <point x="430" y="155"/>
      <point x="419" y="150" type="curve" smooth="yes"/>
      <point x="408" y="144"/>
      <point x="381" y="138"/>
      <point x="364" y="138" type="curve" smooth="yes"/>
      <point x="330" y="138"/>
      <point x="306" y="147"/>
      <point x="286" y="167" type="curve" smooth="yes"/>
      <point x="249" y="205"/>
      <point x="238" y="263"/>
      <point x="243" y="394" type="curve" smooth="yes"/>
      <point x="244" y="431"/>
      <point x="247" y="454"/>
      <point x="255" y="484" type="curve" smooth="yes"/>
      <point x="259" y="499"/>
      <point x="261" y="503"/>
      <point x="271" y="518" type="curve" smooth="yes"/>
      <point x="291" y="548"/>
      <point x="310" y="560"/>
      <point x="338" y="563" type="curve" smooth="yes"/>
      <point x="358" y="565"/>
      <point x="374" y="565"/>
      <point x="384" y="562" type="curve" smooth="yes"/>
      <point x="413" y="553"/>
      <point x="413" y="553"/>
      <point x="425" y="541" type="curve" smooth="yes"/>
      <point x="438" y="528"/>
      <point x="453" y="506"/>
      <point x="457" y="494" type="curve" smooth="yes"/>
      <point x="458" y="490"/>
      <point x="461" y="480"/>
      <point x="463" y="471" type="curve" smooth="yes"/>
      <point x="465" y="461"/>
      <point x="468" y="452"/>
      <point x="470" y="450" type="curve" smooth="yes"/>
      <point x="473" y="446"/>
      <point x="475" y="446"/>
      <point x="488" y="447" type="curve" smooth="yes"/>
      <point x="505" y="449"/>
      <point x="536" y="454"/>
      <point x="547" y="456" type="curve" smooth="yes"/>
      <point x="550" y="457"/>
      <point x="560" y="458"/>
      <point x="569" y="459" type="curve" smooth="yes"/>
      <point x="578" y="459"/>
      <point x="594" y="461"/>
      <point x="606" y="463" type="curve" smooth="yes"/>
      <point x="617" y="465"/>
      <point x="628" y="465"/>
      <point x="629" y="465" type="curve" smooth="yes"/>
      <point x="631" y="463"/>
      <point x="642" y="467"/>
      <point x="653" y="472" type="curve" smooth="yes"/>
      <point x="665" y="478"/>
      <point x="665" y="480"/>
      <point x="658" y="511" type="curve" smooth="yes"/>
      <point x="654" y="525"/>
      <point x="629" y="575"/>
      <point x="618" y="588" type="curve" smooth="yes"/>
      <point x="602" y="608"/>
      <point x="583" y="630"/>
      <point x="582" y="630" type="curve" smooth="yes"/>
      <point x="581" y="630"/>
      <point x="575" y="634"/>
      <point x="569" y="639" type="curve" smooth="yes"/>
      <point x="557" y="650"/>
      <point x="549" y="655"/>
      <point x="529" y="665" type="curve" smooth="yes"/>
      <point x="521" y="669"/>
      <point x="512" y="675"/>
      <point x="509" y="676" type="curve" smooth="yes"/>
      <point x="507" y="678"/>
      <point x="501" y="681"/>
      <point x="497" y="682" type="curve" smooth="yes"/>
      <point x="493" y="684"/>
      <point x="485" y="687"/>
      <point x="479" y="689" type="curve" smooth="yes"/>
      <point x="466" y="695"/>
      <point x="432" y="704"/>
      <point x="419" y="705" type="curve" smooth="yes"/>
      <point x="413" y="705"/>
      <point x="397" y="706"/>
      <point x="382" y="707" type="curve" smooth="yes"/>
      <point x="367" y="707"/>
      <point x="348" y="708"/>
      <point x="340" y="708" type="curve" smooth="yes"/>
      <point x="332" y="709"/>
      <point x="322" y="708"/>
      <point x="317" y="707" type="curve" smooth="yes"/>
    </contour>
  </outline>
</glyph>
<glyph name="H" format="1">
  <advance width="787"/>
  <unicode hex="0048"/>
  <outline>
    <contour>
      <point x="305" y="297" type="line" smooth="yes"/>
      <point x="295" y="297"/>
      <point x="289" y="290"/>
      <point x="289" y="282" type="curve" smooth="yes"/>
      <point x="289" y="29" type="line" smooth="yes"/>
      <point x="289" y="8"/>
      <point x="279" y="0"/>
      <point x="256" y="0" type="curve" smooth="yes"/>
      <point x="88" y="0" type="line"/>
      <point x="67" y="0"/>
      <point x="61" y="8"/>
      <point x="61" y="25" type="curve" smooth="yes"/>
      <point x="65" y="719" type="line" smooth="yes"/>
      <point x="65" y="734"/>
      <point x="73" y="742"/>
      <point x="84" y="742" type="curve" smooth="yes"/>
      <point x="271" y="742" type="line" smooth="yes"/>
      <point x="282" y="742"/>
      <point x="289" y="734"/>
      <point x="289" y="721" type="curve" smooth="yes"/>
      <point x="289" y="489" type="line" smooth="yes"/>
      <point x="289" y="476"/>
      <point x="296" y="469"/>
      <point x="307" y="469" type="curve" smooth="yes"/>
      <point x="474" y="469" type="line" smooth="yes"/>
      <point x="485" y="469"/>
      <point x="492" y="476"/>
      <point x="492" y="489" type="curve" smooth="yes"/>
      <point x="492" y="721" type="line" smooth="yes"/>
      <point x="492" y="734"/>
      <point x="499" y="742"/>
      <point x="510" y="742" type="curve" smooth="yes"/>
      <point x="697" y="742" type="line" smooth="yes"/>
      <point x="708" y="742"/>
      <point x="716" y="734"/>
      <point x="716" y="719" type="curve" smooth="yes"/>
      <point x="720" y="25" type="line" smooth="yes"/>
      <point x="720" y="8"/>
      <point x="714" y="0"/>
      <point x="693" y="0" type="curve"/>
      <point x="525" y="0" type="line" smooth="yes"/>
      <point x="502" y="0"/>
      <point x="492" y="8"/>
      <point x="492" y="29" type="curve" smooth="yes"/>
      <point x="492" y="282" type="line" smooth="yes"/>
      <point x="492" y="290"/>
      <point x="486" y="297"/>
      <point x="476" y="297" type="curve" smooth="yes"/>
    </contour>
  </outline>
</glyph>
<glyph name="I" format="1">
  <advance width="300"/>
  <unicode hex="0049"/>
  <outline>
    <contour>
      <point x="47" y="702"/>
      <point x="42" y="698"/>
      <point x="40" y="686" type="curve" smooth="yes"/>
      <point x="38" y="680"/>
      <point x="38" y="624"/>
      <point x="39" y="497" type="curve" smooth="yes"/>
      <point x="40" y="270"/>
      <point x="40" y="296"/>
      <point x="39" y="146" type="curve" smooth="yes"/>
      <point x="38" y="24"/>
      <point x="38" y="17"/>
      <point x="42" y="12" type="curve" smooth="yes"/>
      <point x="48" y="0"/>
      <point x="42" y="1"/>
      <point x="218" y="0" type="curve" smooth="yes"/>
      <point x="239" y="0"/>
      <point x="250" y="2"/>
      <point x="255" y="8" type="curve" smooth="yes"/>
      <point x="259" y="12"/>
      <point x="262" y="50"/>
      <point x="259" y="66" type="curve" smooth="yes"/>
      <point x="258" y="72"/>
      <point x="258" y="92"/>
      <point x="258" y="112" type="curve" smooth="yes"/>
      <point x="259" y="131"/>
      <point x="260" y="149"/>
      <point x="260" y="152" type="curve" smooth="yes"/>
      <point x="260" y="154"/>
      <point x="259" y="277"/>
      <point x="259" y="424" type="curve" smooth="yes"/>
      <point x="259" y="692" type="line"/>
      <point x="253" y="697" type="line"/>
      <point x="248" y="703" type="line"/>
      <point x="189" y="703" type="line" smooth="yes"/>
      <point x="157" y="703"/>
      <point x="116" y="704"/>
      <point x="100" y="704" type="curve" smooth="yes"/>
      <point x="83" y="705"/>
      <point x="65" y="704"/>
      <point x="59" y="704" type="curve" smooth="yes"/>
    </contour>
  </outline>
</glyph>
<glyph name="J" format="1">
  <advance width="440"/>
  <unicode hex="004A"/>
  <outline>
    <contour>
      <point x="185" y="713"/>
      <point x="180" y="710"/>
      <point x="177" y="707" type="curve" smooth="yes"/>
      <point x="173" y="702"/>
      <point x="173" y="701"/>
      <point x="173" y="660" type="curve" smooth="yes"/>
      <point x="174" y="636"/>
      <point x="174" y="539"/>
      <point x="174" y="442" type="curve" smooth="yes"/>
      <point x="174" y="346"/>
      <point x="174" y="263"/>
      <point x="174" y="260" type="curve" smooth="yes"/>
      <point x="174" y="233"/>
      <point x="165" y="207"/>
      <point x="151" y="194" type="curve" smooth="yes"/>
      <point x="135" y="178"/>
      <point x="101" y="171"/>
      <point x="71" y="177" type="curve" smooth="yes"/>
      <point x="45" y="182"/>
      <point x="39" y="182"/>
      <point x="35" y="180" type="curve" smooth="yes"/>
      <point x="28" y="176"/>
      <point x="26" y="168"/>
      <point x="23" y="145" type="curve" smooth="yes"/>
      <point x="22" y="132"/>
      <point x="21" y="118"/>
      <point x="20" y="113" type="curve" smooth="yes"/>
      <point x="20" y="109"/>
      <point x="18" y="88"/>
      <point x="17" y="68" type="curve" smooth="yes"/>
      <point x="15" y="34"/>
      <point x="15" y="31"/>
      <point x="19" y="25" type="curve" smooth="yes"/>
      <point x="24" y="16"/>
      <point x="34" y="10"/>
      <point x="43" y="10" type="curve" smooth="yes"/>
      <point x="47" y="10"/>
      <point x="58" y="8"/>
      <point x="67" y="6" type="curve" smooth="yes"/>
      <point x="115" y="-5"/>
      <point x="222" y="-1"/>
      <point x="263" y="14" type="curve" smooth="yes"/>
      <point x="269" y="16"/>
      <point x="276" y="19"/>
      <point x="280" y="20" type="curve" smooth="yes"/>
      <point x="290" y="23"/>
      <point x="320" y="38"/>
      <point x="326" y="44" type="curve" smooth="yes"/>
      <point x="330" y="47"/>
      <point x="336" y="52"/>
      <point x="339" y="55" type="curve" smooth="yes"/>
      <point x="355" y="67"/>
      <point x="376" y="100"/>
      <point x="379" y="121" type="curve" smooth="yes"/>
      <point x="380" y="125"/>
      <point x="382" y="132"/>
      <point x="384" y="136" type="curve" smooth="yes"/>
      <point x="388" y="144"/>
      <point x="388" y="152"/>
      <point x="391" y="202" type="curve" smooth="yes"/>
      <point x="394" y="280"/>
      <point x="393" y="694"/>
      <point x="390" y="702" type="curve" smooth="yes"/>
      <point x="385" y="714"/>
      <point x="383" y="714"/>
      <point x="285" y="715" type="curve" smooth="yes"/>
      <point x="236" y="715"/>
      <point x="193" y="715"/>
      <point x="189" y="714" type="curve" smooth="yes"/>
    </contour>
  </outline>
</glyph>
<glyph name="K" format="1">
  <advance width="700"/>
  <unicode hex="004B"/>
  <outline>
    <contour>
      <point x="59" y="698"/>
      <point x="51" y="694"/>
      <point x="49" y="686" type="curve" smooth="yes"/>
      <point x="48" y="684"/>
      <point x="48" y="648"/>
      <point x="48" y="606" type="curve" smooth="yes"/>
      <point x="48" y="565"/>
      <point x="48" y="506"/>
      <point x="48" y="475" type="curve" smooth="yes"/>
      <point x="48" y="443"/>
      <point x="48" y="415"/>
      <point x="48" y="411" type="curve" smooth="yes"/>
      <point x="48" y="408"/>
      <point x="48" y="325"/>
      <point x="48" y="229" type="curve" smooth="yes"/>
      <point x="48" y="132"/>
      <point x="48" y="46"/>
      <point x="48" y="37" type="curve" smooth="yes"/>
      <point x="48" y="15"/>
      <point x="49" y="11"/>
      <point x="58" y="5" type="curve" smooth="yes"/>
      <point x="65" y="0" type="line"/>
      <point x="160" y="0" type="line"/>
      <point x="255" y="1" type="line"/>
      <point x="261" y="6" type="line"/>
      <point x="266" y="12" type="line"/>
      <point x="265" y="72" type="line" smooth="yes"/>
      <point x="263" y="177"/>
      <point x="263" y="177"/>
      <point x="269" y="188" type="curve" smooth="yes"/>
      <point x="272" y="193"/>
      <point x="278" y="200"/>
      <point x="281" y="204" type="curve" smooth="yes"/>
      <point x="285" y="208"/>
      <point x="294" y="220"/>
      <point x="301" y="231" type="curve" smooth="yes"/>
      <point x="309" y="242"/>
      <point x="320" y="257"/>
      <point x="326" y="263" type="curve" smooth="yes"/>
      <point x="350" y="291"/>
      <point x="353" y="293"/>
      <point x="357" y="283" type="curve" smooth="yes"/>
      <point x="358" y="280"/>
      <point x="361" y="275"/>
      <point x="363" y="272" type="curve" smooth="yes"/>
      <point x="365" y="270"/>
      <point x="368" y="262"/>
      <point x="370" y="257" type="curve" smooth="yes"/>
      <point x="375" y="243"/>
      <point x="399" y="191"/>
      <point x="411" y="166" type="curve" smooth="yes"/>
      <point x="416" y="155"/>
      <point x="421" y="145"/>
      <point x="421" y="143" type="curve" smooth="yes"/>
      <point x="421" y="142"/>
      <point x="423" y="136"/>
      <point x="426" y="129" type="curve" smooth="yes"/>
      <point x="430" y="123"/>
      <point x="433" y="116"/>
      <point x="434" y="113" type="curve" smooth="yes"/>
      <point x="434" y="110"/>
      <point x="439" y="99"/>
      <point x="445" y="88" type="curve" smooth="yes"/>
      <point x="458" y="59"/>
      <point x="467" y="38"/>
      <point x="471" y="23" type="curve" smooth="yes"/>
      <point x="472" y="17"/>
      <point x="480" y="9"/>
      <point x="488" y="4" type="curve" smooth="yes"/>
      <point x="494" y="0"/>
      <point x="498" y="0"/>
      <point x="548" y="1" type="curve" smooth="yes"/>
      <point x="577" y="2"/>
      <point x="622" y="2"/>
      <point x="647" y="2" type="curve" smooth="yes"/>
      <point x="672" y="1"/>
      <point x="696" y="1"/>
      <point x="699" y="2" type="curve" smooth="yes"/>
      <point x="712" y="6"/>
      <point x="712" y="17"/>
      <point x="699" y="44" type="curve" smooth="yes"/>
      <point x="695" y="53"/>
      <point x="688" y="65"/>
      <point x="685" y="70" type="curve" smooth="yes"/>
      <point x="682" y="75"/>
      <point x="678" y="81"/>
      <point x="677" y="84" type="curve" smooth="yes"/>
      <point x="677" y="86"/>
      <point x="673" y="94"/>
      <point x="670" y="101" type="curve" smooth="yes"/>
      <point x="658" y="127"/>
      <point x="642" y="160"/>
      <point x="629" y="186" type="curve" smooth="yes"/>
      <point x="622" y="201"/>
      <point x="613" y="220"/>
      <point x="610" y="228" type="curve" smooth="yes"/>
      <point x="607" y="236"/>
      <point x="602" y="247"/>
      <point x="599" y="251" type="curve" smooth="yes"/>
      <point x="597" y="256"/>
      <point x="594" y="261"/>
      <point x="594" y="263" type="curve" smooth="yes"/>
      <point x="594" y="265"/>
      <point x="592" y="269"/>
      <point x="590" y="274" type="curve" smooth="yes"/>
      <point x="588" y="278"/>
      <point x="582" y="289"/>
      <point x="577" y="298" type="curve" smooth="yes"/>
      <point x="572" y="307"/>
      <point x="568" y="316"/>
      <point x="566" y="318" type="curve" smooth="yes"/>
      <point x="565" y="319"/>
      <point x="562" y="326"/>
      <point x="559" y="332" type="curve" smooth="yes"/>
      <point x="557" y="339"/>
      <point x="554" y="345"/>
      <point x="552" y="347" type="curve" smooth="yes"/>
      <point x="551" y="349"/>
      <point x="546" y="359"/>
      <point x="541" y="369" type="curve" smooth="yes"/>
      <point x="536" y="380"/>
      <point x="531" y="390"/>
      <point x="530" y="392" type="curve" smooth="yes"/>
      <point x="528" y="395"/>
      <point x="527" y="398"/>
      <point x="520" y="414" type="curve" smooth="yes"/>
      <point x="517" y="420"/>
      <point x="513" y="427"/>
      <point x="510" y="432" type="curve" smooth="yes"/>
      <point x="503" y="442"/>
      <point x="495" y="461"/>
      <point x="495" y="466" type="curve" smooth="yes"/>
      <point x="495" y="473"/>
      <point x="500" y="482"/>
      <point x="512" y="495" type="curve" smooth="yes"/>
      <point x="526" y="511"/>
      <point x="532" y="518"/>
      <point x="548" y="539" type="curve" smooth="yes"/>
      <point x="555" y="548"/>
      <point x="568" y="565"/>
      <point x="578" y="577" type="curve" smooth="yes"/>
      <point x="588" y="588"/>
      <point x="602" y="606"/>
      <point x="609" y="615" type="curve" smooth="yes"/>
      <point x="616" y="625"/>
      <point x="626" y="637"/>
      <point x="632" y="642" type="curve" smooth="yes"/>
      <point x="647" y="658"/>
      <point x="660" y="676"/>
      <point x="662" y="682" type="curve" smooth="yes"/>
      <point x="663" y="690"/>
      <point x="659" y="695"/>
      <point x="646" y="699" type="curve" smooth="yes"/>
      <point x="638" y="701"/>
      <point x="623" y="702"/>
      <point x="556" y="701" type="curve" smooth="yes"/>
      <point x="496" y="700"/>
      <point x="474" y="699"/>
      <point x="470" y="697" type="curve" smooth="yes"/>
      <point x="464" y="694"/>
      <point x="444" y="672"/>
      <point x="436" y="658" type="curve" smooth="yes"/>
      <point x="433" y="653"/>
      <point x="423" y="638"/>
      <point x="414" y="626" type="curve" smooth="yes"/>
      <point x="406" y="613"/>
      <point x="395" y="599"/>
      <point x="392" y="593" type="curve" smooth="yes"/>
      <point x="388" y="588"/>
      <point x="381" y="578"/>
      <point x="375" y="571" type="curve" smooth="yes"/>
      <point x="370" y="564"/>
      <point x="360" y="551"/>
      <point x="355" y="543" type="curve" smooth="yes"/>
      <point x="349" y="534"/>
      <point x="343" y="525"/>
      <point x="340" y="523" type="curve" smooth="yes"/>
      <point x="338" y="521"/>
      <point x="331" y="511"/>
      <point x="325" y="503" type="curve" smooth="yes"/>
      <point x="320" y="495"/>
      <point x="309" y="481"/>
      <point x="303" y="472" type="curve" smooth="yes"/>
      <point x="296" y="464"/>
      <point x="286" y="450"/>
      <point x="281" y="441" type="curve" smooth="yes"/>
      <point x="270" y="425"/>
      <point x="268" y="424"/>
      <point x="263" y="427" type="curve" smooth="yes"/>
      <point x="258" y="430"/>
      <point x="260" y="599"/>
      <point x="266" y="664" type="curve" smooth="yes"/>
      <point x="268" y="688"/>
      <point x="265" y="694"/>
      <point x="248" y="698" type="curve" smooth="yes"/>
      <point x="239" y="700"/>
      <point x="95" y="702"/>
      <point x="75" y="700" type="curve" smooth="yes"/>
    </contour>
  </outline>
</glyph>
<glyph name="L" format="1">
  <advance width="628"/>
  <unicode hex="004C"/>
  <outline>
    <contour>
      <point x="49" y="734"/>
      <point x="57" y="742"/>
      <point x="68" y="742" type="curve" smooth="yes"/>
      <point x="255" y="742" type="line" smooth="yes"/>
      <point x="267" y="742"/>
      <point x="273" y="734"/>
      <point x="273" y="721" type="curve" smooth="yes"/>
      <point x="273" y="175" type="line" smooth="yes"/>
      <point x="273" y="164"/>
      <point x="276" y="161"/>
      <point x="285" y="161" type="curve" smooth="yes"/>
      <point x="586" y="161" type="line" smooth="yes"/>
      <point x="600" y="161"/>
      <point x="609" y="156"/>
      <point x="609" y="142" type="curve" smooth="yes"/>
      <point x="609" y="22" type="line" smooth="yes"/>
      <point x="609" y="10"/>
      <point x="601" y="0"/>
      <point x="584" y="0" type="curve" smooth="yes"/>
      <point x="72" y="0" type="line" smooth="yes"/>
      <point x="51" y="0"/>
      <point x="45" y="8"/>
      <point x="45" y="25" type="curve" smooth="yes"/>
      <point x="49" y="719" type="line" smooth="yes"/>
    </contour>
  </outline>
</glyph>
<glyph name="M" format="1">
  <advance width="900"/>
  <unicode hex="004D"/>
  <outline>
    <contour>
      <point x="54" y="700"/>
      <point x="49" y="697"/>
      <point x="47" y="695" type="curve" smooth="yes"/>
      <point x="43" y="690"/>
      <point x="43" y="687"/>
      <point x="43" y="512" type="curve" smooth="yes"/>
      <point x="43" y="414"/>
      <point x="43" y="331"/>
      <point x="43" y="328" type="curve" smooth="yes"/>
      <point x="43" y="325"/>
      <point x="43" y="263"/>
      <point x="42" y="191" type="curve" smooth="yes"/>
      <point x="42" y="13"/>
      <point x="42" y="18"/>
      <point x="46" y="12" type="curve" smooth="yes"/>
      <point x="47" y="9"/>
      <point x="52" y="5"/>
      <point x="55" y="3" type="curve" smooth="yes"/>
      <point x="61" y="0"/>
      <point x="64" y="0"/>
      <point x="80" y="0" type="curve" smooth="yes"/>
      <point x="90" y="1"/>
      <point x="125" y="2"/>
      <point x="156" y="2" type="curve" smooth="yes"/>
      <point x="227" y="3"/>
      <point x="222" y="1"/>
      <point x="222" y="31" type="curve" smooth="yes"/>
      <point x="222" y="42"/>
      <point x="222" y="51"/>
      <point x="221" y="52" type="curve" smooth="yes"/>
      <point x="219" y="55"/>
      <point x="214" y="207"/>
      <point x="215" y="243" type="curve" smooth="yes"/>
      <point x="215" y="258"/>
      <point x="215" y="311"/>
      <point x="215" y="361" type="curve" smooth="yes"/>
      <point x="215" y="412"/>
      <point x="215" y="455"/>
      <point x="216" y="456" type="curve" smooth="yes"/>
      <point x="217" y="459"/>
      <point x="217" y="460"/>
      <point x="219" y="458" type="curve" smooth="yes"/>
      <point x="222" y="455"/>
      <point x="232" y="426"/>
      <point x="232" y="420" type="curve" smooth="yes"/>
      <point x="232" y="417"/>
      <point x="235" y="409"/>
      <point x="239" y="401" type="curve" smooth="yes"/>
      <point x="242" y="393"/>
      <point x="247" y="380"/>
      <point x="250" y="371" type="curve" smooth="yes"/>
      <point x="252" y="362"/>
      <point x="255" y="352"/>
      <point x="256" y="347" type="curve" smooth="yes"/>
      <point x="261" y="331"/>
      <point x="303" y="207"/>
      <point x="305" y="201" type="curve" smooth="yes"/>
      <point x="307" y="198"/>
      <point x="309" y="192"/>
      <point x="310" y="187" type="curve" smooth="yes"/>
      <point x="311" y="182"/>
      <point x="313" y="177"/>
      <point x="314" y="176" type="curve" smooth="yes"/>
      <point x="315" y="175"/>
      <point x="316" y="169"/>
      <point x="318" y="163" type="curve" smooth="yes"/>
      <point x="319" y="157"/>
      <point x="322" y="147"/>
      <point x="325" y="140" type="curve" smooth="yes"/>
      <point x="332" y="120"/>
      <point x="335" y="108"/>
      <point x="337" y="101" type="curve" smooth="yes"/>
      <point x="338" y="97"/>
      <point x="341" y="86"/>
      <point x="344" y="76" type="curve" smooth="yes"/>
      <point x="347" y="65"/>
      <point x="352" y="48"/>
      <point x="355" y="37" type="curve" smooth="yes"/>
      <point x="358" y="25"/>
      <point x="361" y="14"/>
      <point x="363" y="12" type="curve" smooth="yes"/>
      <point x="369" y="3"/>
      <point x="371" y="3"/>
      <point x="435" y="3" type="curve" smooth="yes"/>
      <point x="489" y="3"/>
      <point x="495" y="3"/>
      <point x="500" y="6" type="curve" smooth="yes"/>
      <point x="506" y="10"/>
      <point x="514" y="26"/>
      <point x="516" y="38" type="curve" smooth="yes"/>
      <point x="517" y="42"/>
      <point x="519" y="50"/>
      <point x="521" y="55" type="curve" smooth="yes"/>
      <point x="523" y="61"/>
      <point x="525" y="68"/>
      <point x="526" y="73" type="curve" smooth="yes"/>
      <point x="527" y="81"/>
      <point x="538" y="117"/>
      <point x="545" y="136" type="curve" smooth="yes"/>
      <point x="548" y="143"/>
      <point x="551" y="153"/>
      <point x="552" y="158" type="curve" smooth="yes"/>
      <point x="554" y="170"/>
      <point x="559" y="185"/>
      <point x="564" y="199" type="curve" smooth="yes"/>
      <point x="566" y="206"/>
      <point x="571" y="221"/>
      <point x="574" y="234" type="curve" smooth="yes"/>
      <point x="578" y="246"/>
      <point x="584" y="262"/>
      <point x="587" y="269" type="curve" smooth="yes"/>
      <point x="590" y="276"/>
      <point x="594" y="285"/>
      <point x="595" y="290" type="curve" smooth="yes"/>
      <point x="603" y="313"/>
      <point x="621" y="365"/>
      <point x="622" y="368" type="curve" smooth="yes"/>
      <point x="623" y="370"/>
      <point x="627" y="384"/>
      <point x="632" y="400" type="curve" smooth="yes"/>
      <point x="636" y="415"/>
      <point x="641" y="433"/>
      <point x="644" y="440" type="curve" smooth="yes"/>
      <point x="647" y="446"/>
      <point x="649" y="453"/>
      <point x="649" y="455" type="curve" smooth="yes"/>
      <point x="649" y="461"/>
      <point x="654" y="457"/>
      <point x="656" y="450" type="curve" smooth="yes"/>
      <point x="657" y="443"/>
      <point x="656" y="215"/>
      <point x="654" y="192" type="curve" smooth="yes"/>
      <point x="654" y="185"/>
      <point x="653" y="150"/>
      <point x="652" y="114" type="curve" smooth="yes"/>
      <point x="652" y="77"/>
      <point x="651" y="41"/>
      <point x="650" y="34" type="curve" smooth="yes"/>
      <point x="649" y="18"/>
      <point x="651" y="12"/>
      <point x="661" y="7" type="curve" smooth="yes"/>
      <point x="666" y="4"/>
      <point x="677" y="4"/>
      <point x="762" y="4" type="curve" smooth="yes"/>
      <point x="857" y="4" type="line"/>
      <point x="863" y="10" type="line"/>
      <point x="868" y="15" type="line"/>
      <point x="867" y="128" type="line" smooth="yes"/>
      <point x="865" y="288"/>
      <point x="864" y="414"/>
      <point x="866" y="425" type="curve" smooth="yes"/>
      <point x="866" y="429"/>
      <point x="866" y="454"/>
      <point x="864" y="479" type="curve" smooth="yes"/>
      <point x="863" y="507"/>
      <point x="863" y="528"/>
      <point x="864" y="533" type="curve" smooth="yes"/>
      <point x="864" y="537"/>
      <point x="865" y="574"/>
      <point x="865" y="614" type="curve" smooth="yes"/>
      <point x="865" y="693"/>
      <point x="865" y="691"/>
      <point x="854" y="697" type="curve" smooth="yes"/>
      <point x="849" y="699"/>
      <point x="836" y="700"/>
      <point x="773" y="700" type="curve" smooth="yes"/>
      <point x="731" y="699"/>
      <point x="668" y="700"/>
      <point x="633" y="700" type="curve" smooth="yes"/>
      <point x="569" y="701" type="line"/>
      <point x="564" y="696" type="line" smooth="yes"/>
      <point x="555" y="690"/>
      <point x="555" y="689"/>
      <point x="532" y="605" type="curve" smooth="yes"/>
      <point x="528" y="592"/>
      <point x="521" y="572"/>
      <point x="517" y="559" type="curve" smooth="yes"/>
      <point x="509" y="538"/>
      <point x="505" y="525"/>
      <point x="498" y="500" type="curve" smooth="yes"/>
      <point x="497" y="494"/>
      <point x="489" y="469"/>
      <point x="480" y="443" type="curve" smooth="yes"/>
      <point x="471" y="417"/>
      <point x="464" y="394"/>
      <point x="464" y="393" type="curve" smooth="yes"/>
      <point x="464" y="388"/>
      <point x="460" y="380"/>
      <point x="457" y="380" type="curve" smooth="yes"/>
      <point x="456" y="380"/>
      <point x="454" y="385"/>
      <point x="452" y="391" type="curve" smooth="yes"/>
      <point x="450" y="397"/>
      <point x="446" y="405"/>
      <point x="445" y="408" type="curve" smooth="yes"/>
      <point x="443" y="411"/>
      <point x="438" y="424"/>
      <point x="434" y="435" type="curve" smooth="yes"/>
      <point x="430" y="447"/>
      <point x="426" y="458"/>
      <point x="425" y="459" type="curve" smooth="yes"/>
      <point x="424" y="460"/>
      <point x="422" y="467"/>
      <point x="419" y="475" type="curve" smooth="yes"/>
      <point x="415" y="490"/>
      <point x="412" y="500"/>
      <point x="397" y="547" type="curve" smooth="yes"/>
      <point x="393" y="562"/>
      <point x="387" y="580"/>
      <point x="385" y="588" type="curve" smooth="yes"/>
      <point x="382" y="595"/>
      <point x="378" y="609"/>
      <point x="374" y="618" type="curve" smooth="yes"/>
      <point x="371" y="627"/>
      <point x="366" y="644"/>
      <point x="362" y="656" type="curve" smooth="yes"/>
      <point x="354" y="688"/>
      <point x="351" y="694"/>
      <point x="342" y="699" type="curve" smooth="yes"/>
      <point x="335" y="702"/>
      <point x="328" y="702"/>
      <point x="257" y="702" type="curve" smooth="yes"/>
      <point x="136" y="701"/>
      <point x="124" y="701"/>
      <point x="120" y="698" type="curve" smooth="yes"/>
      <point x="117" y="697"/>
      <point x="114" y="696"/>
      <point x="113" y="697" type="curve" smooth="yes"/>
      <point x="110" y="699"/>
      <point x="97" y="700"/>
      <point x="75" y="702" type="curve" smooth="yes"/>
      <point x="69" y="703"/>
      <point x="61" y="703"/>
      <point x="57" y="701" type="curve" smooth="yes"/>
    </contour>
  </outline>
</glyph>
<glyph name="N" format="1">
  <advance width="787"/>
  <unicode hex="004E"/>
  <outline>
    <contour>
      <point x="547" y="742"/>
      <point x="540" y="734"/>
      <point x="540" y="721" type="curve" smooth="yes"/>
      <point x="540" y="398" type="line"/>
      <point x="540" y="382"/>
      <point x="535" y="379"/>
      <point x="524" y="394" type="curve" smooth="yes"/>
      <point x="285" y="724" type="line" smooth="yes"/>
      <point x="274" y="738"/>
      <point x="268" y="742"/>
      <point x="251" y="742" type="curve" smooth="yes"/>
      <point x="88" y="742" type="line" smooth="yes"/>
      <point x="73" y="742"/>
      <point x="66" y="735"/>
      <point x="66" y="719" type="curve" smooth="yes"/>
      <point x="66" y="20" type="line" smooth="yes"/>
      <point x="66" y="5"/>
      <point x="76" y="0"/>
      <point x="91" y="0" type="curve" smooth="yes"/>
      <point x="229" y="0" type="line" smooth="yes"/>
      <point x="247" y="0"/>
      <point x="254" y="6"/>
      <point x="254" y="22" type="curve" smooth="yes"/>
      <point x="250" y="388" type="line" smooth="yes"/>
      <point x="250" y="396"/>
      <point x="254" y="397"/>
      <point x="260" y="389" type="curve" smooth="yes"/>
      <point x="535" y="18" type="line" smooth="yes"/>
      <point x="543" y="6"/>
      <point x="547" y="0"/>
      <point x="559" y="0" type="curve" smooth="yes"/>
      <point x="697" y="0" type="line" smooth="yes"/>
      <point x="710" y="0"/>
      <point x="720" y="7"/>
      <point x="720" y="18" type="curve"/>
      <point x="720" y="725" type="line" smooth="yes"/>
      <point x="720" y="736"/>
      <point x="715" y="742"/>
      <point x="705" y="742" type="curve" smooth="yes"/>
      <point x="562" y="742" type="line" smooth="yes"/>
    </contour>
  </outline>
</glyph>
<glyph name="O" format="1">
  <advance width="730"/>
  <unicode hex="004F"/>
  <outline>
    <contour>
      <point x="162" y="711"/>
      <point x="27" y="567"/>
      <point x="27" y="348" type="curve" smooth="yes"/>
      <point x="27" y="130"/>
      <point x="159" y="-8"/>
      <point x="367" y="-8" type="curve" smooth="yes"/>
      <point x="574" y="-8"/>
      <point x="706" y="131"/>
      <point x="706" y="348" type="curve" smooth="yes"/>
      <point x="706" y="567"/>
      <point x="571" y="711"/>
      <point x="367" y="711" type="curve" smooth="yes"/>
    </contour>
    <contour>
      <point x="283" y="139"/>
      <point x="252" y="195"/>
      <point x="252" y="346" type="curve" smooth="yes"/>
      <point x="252" y="502"/>
      <point x="285" y="565"/>
      <point x="367" y="565" type="curve" smooth="yes"/>
      <point x="448" y="565"/>
      <point x="481" y="502"/>
      <point x="481" y="346" type="curve" smooth="yes"/>
      <point x="481" y="195"/>
      <point x="450" y="139"/>
      <point x="367" y="139" type="curve" smooth="yes"/>
    </contour>
  </outline>
</glyph>
<glyph name="P" format="1">
  <advance width="756"/>
  <unicode hex="0050"/>
  <outline>
    <contour>
      <point x="732" y="664"/>
      <point x="595" y="742"/>
      <point x="425" y="742" type="curve" smooth="yes"/>
      <point x="80" y="742" type="line" smooth="yes"/>
      <point x="68" y="742"/>
      <point x="61" y="734"/>
      <point x="61" y="719" type="curve" smooth="yes"/>
      <point x="57" y="25" type="line" smooth="yes"/>
      <point x="57" y="8"/>
      <point x="63" y="0"/>
      <point x="83" y="0" type="curve" smooth="yes"/>
      <point x="256" y="0" type="line" smooth="yes"/>
      <point x="279" y="0"/>
      <point x="289" y="8"/>
      <point x="289" y="29" type="curve" smooth="yes"/>
      <point x="289" y="265" type="line" smooth="yes"/>
      <point x="289" y="272"/>
      <point x="292" y="276"/>
      <point x="301" y="276" type="curve" smooth="yes"/>
      <point x="451" y="276" type="line" smooth="yes"/>
      <point x="620" y="276"/>
      <point x="732" y="363"/>
      <point x="732" y="506" type="curve" smooth="yes"/>
    </contour>
    <contour>
      <point x="289" y="561" type="line" smooth="yes"/>
      <point x="289" y="576"/>
      <point x="295" y="582"/>
      <point x="312" y="582" type="curve" smooth="yes"/>
      <point x="411" y="582" type="line" smooth="yes"/>
      <point x="457" y="582"/>
      <point x="494" y="554"/>
      <point x="494" y="507" type="curve" smooth="yes"/>
      <point x="494" y="469"/>
      <point x="465" y="436"/>
      <point x="417" y="436" type="curve" smooth="yes"/>
      <point x="306" y="436" type="line" smooth="yes"/>
      <point x="293" y="436"/>
      <point x="289" y="443"/>
      <point x="289" y="458" type="curve" smooth="yes"/>
    </contour>
  </outline>
</glyph>
<glyph name="Q" format="1">
  <advance width="787"/>
  <unicode hex="0051"/>
  <outline>
    <contour>
      <point x="36" y="138"/>
      <point x="175" y="-8"/>
      <point x="396" y="-8" type="curve" smooth="yes"/>
      <point x="422" y="-8"/>
      <point x="443" y="-7"/>
      <point x="467" y="-4" type="curve" smooth="yes"/>
      <point x="474" y="-3"/>
      <point x="479" y="-4"/>
      <point x="483" y="-8" type="curve" smooth="yes"/>
      <point x="506" y="-39"/>
      <point x="526" y="-60"/>
      <point x="556" y="-83" type="curve" smooth="yes"/>
      <point x="593" y="-110"/>
      <point x="664" y="-128"/>
      <point x="711" y="-128" type="curve" smooth="yes"/>
      <point x="743" y="-128"/>
      <point x="755" y="-122"/>
      <point x="755" y="-97" type="curve" smooth="yes"/>
      <point x="755" y="13" type="line" smooth="yes"/>
      <point x="755" y="20"/>
      <point x="752" y="28"/>
      <point x="738" y="30" type="curve" smooth="yes"/>
      <point x="695" y="36"/>
      <point x="648" y="61"/>
      <point x="648" y="78" type="curve" smooth="yes"/>
      <point x="648" y="82"/>
      <point x="648" y="84"/>
      <point x="650" y="86" type="curve"/>
      <point x="717" y="152"/>
      <point x="755" y="249"/>
      <point x="755" y="369" type="curve" smooth="yes"/>
      <point x="755" y="601"/>
      <point x="612" y="753"/>
      <point x="396" y="753" type="curve" smooth="yes"/>
      <point x="179" y="753"/>
      <point x="36" y="601"/>
      <point x="36" y="369" type="curve" smooth="yes"/>
    </contour>
    <contour>
      <point x="274" y="532"/>
      <point x="309" y="599"/>
      <point x="396" y="599" type="curve" smooth="yes"/>
      <point x="482" y="599"/>
      <point x="517" y="532"/>
      <point x="517" y="367" type="curve" smooth="yes"/>
      <point x="517" y="207"/>
      <point x="484" y="147"/>
      <point x="396" y="147" type="curve" smooth="yes"/>
      <point x="307" y="147"/>
      <point x="274" y="207"/>
      <point x="274" y="367" type="curve" smooth="yes"/>
    </contour>
  </outline>
</glyph>
<glyph name="R" format="1">
  <advance width="756"/>
  <unicode hex="0052"/>
  <outline>
    <contour>
      <point x="595" y="324" type="line" smooth="yes"/>
      <point x="592" y="332"/>
      <point x="592" y="340"/>
      <point x="599" y="343" type="curve" smooth="yes"/>
      <point x="678" y="373"/>
      <point x="733" y="443"/>
      <point x="733" y="528" type="curve" smooth="yes"/>
      <point x="733" y="664"/>
      <point x="620" y="742"/>
      <point x="425" y="742" type="curve" smooth="yes"/>
      <point x="80" y="742" type="line" smooth="yes"/>
      <point x="68" y="742"/>
      <point x="61" y="734"/>
      <point x="61" y="719" type="curve" smooth="yes"/>
      <point x="57" y="25" type="line" smooth="yes"/>
      <point x="57" y="8"/>
      <point x="63" y="0"/>
      <point x="83" y="0" type="curve" smooth="yes"/>
      <point x="256" y="0" type="line" smooth="yes"/>
      <point x="279" y="0"/>
      <point x="289" y="8"/>
      <point x="289" y="29" type="curve" smooth="yes"/>
      <point x="289" y="296" type="line" smooth="yes"/>
      <point x="289" y="299"/>
      <point x="292" y="307"/>
      <point x="301" y="307" type="curve" smooth="yes"/>
      <point x="348" y="307" type="line" smooth="yes"/>
      <point x="367" y="307"/>
      <point x="375" y="302"/>
      <point x="379" y="291" type="curve" smooth="yes"/>
      <point x="473" y="21" type="line"/>
      <point x="477" y="7"/>
      <point x="486" y="0"/>
      <point x="500" y="0" type="curve" smooth="yes"/>
      <point x="703" y="0" type="line" smooth="yes"/>
      <point x="719" y="0"/>
      <point x="728" y="15"/>
      <point x="721" y="32" type="curve" smooth="yes"/>
    </contour>
    <contour>
      <point x="306" y="456" type="line" smooth="yes"/>
      <point x="293" y="456"/>
      <point x="289" y="462"/>
      <point x="289" y="477" type="curve" smooth="yes"/>
      <point x="289" y="574" type="line" smooth="yes"/>
      <point x="289" y="589"/>
      <point x="295" y="594"/>
      <point x="312" y="594" type="curve" smooth="yes"/>
      <point x="411" y="594" type="line" smooth="yes"/>
      <point x="457" y="594"/>
      <point x="496" y="567"/>
      <point x="496" y="523" type="curve" smooth="yes"/>
      <point x="496" y="485"/>
      <point x="468" y="456"/>
      <point x="417" y="456" type="curve" smooth="yes"/>
    </contour>
  </outline>
</glyph>
<glyph name="S" format="1">
  <advance width="650"/>
  <unicode hex="0053"/>
  <outline>
    <contour>
      <point x="470" y="499"/>
      <point x="476" y="498"/>
      <point x="485" y="505" type="curve" smooth="yes"/>
      <point x="588" y="580" type="line" smooth="yes"/>
      <point x="600" y="589"/>
      <point x="594" y="599"/>
      <point x="588" y="608" type="curve" smooth="yes"/>
      <point x="545" y="669"/>
      <point x="438" y="712"/>
      <point x="324" y="712" type="curve" smooth="yes"/>
      <point x="147" y="712"/>
      <point x="35" y="609"/>
      <point x="35" y="486" type="curve" smooth="yes"/>
      <point x="35" y="387"/>
      <point x="107" y="305"/>
      <point x="220" y="277" type="curve" smooth="yes"/>
      <point x="363" y="242" type="line" smooth="yes"/>
      <point x="404" y="232"/>
      <point x="423" y="213"/>
      <point x="423" y="191" type="curve" smooth="yes"/>
      <point x="423" y="157"/>
      <point x="378" y="136"/>
      <point x="318" y="136" type="curve" smooth="yes"/>
      <point x="234" y="136"/>
      <point x="197" y="158"/>
      <point x="156" y="211" type="curve" smooth="yes"/>
      <point x="148" y="221"/>
      <point x="137" y="225"/>
      <point x="120" y="213" type="curve" smooth="yes"/>
      <point x="23" y="146" type="line" smooth="yes"/>
      <point x="9" y="136"/>
      <point x="9" y="128"/>
      <point x="17" y="115" type="curve" smooth="yes"/>
      <point x="61" y="41"/>
      <point x="187" y="-9"/>
      <point x="325" y="-9" type="curve" smooth="yes"/>
      <point x="511" y="-9"/>
      <point x="627" y="81"/>
      <point x="627" y="221" type="curve" smooth="yes"/>
      <point x="627" y="318"/>
      <point x="572" y="397"/>
      <point x="454" y="427" type="curve" smooth="yes"/>
      <point x="297" y="467" type="line" smooth="yes"/>
      <point x="250" y="479"/>
      <point x="237" y="498"/>
      <point x="237" y="515" type="curve" smooth="yes"/>
      <point x="237" y="539"/>
      <point x="262" y="564"/>
      <point x="333" y="564" type="curve" smooth="yes"/>
      <point x="407" y="564"/>
      <point x="434" y="537"/>
      <point x="457" y="513" type="curve" smooth="yes"/>
    </contour>
  </outline>
</glyph>
<glyph name="T" format="1">
  <advance width="713"/>
  <unicode hex="0054"/>
  <outline>
    <contour>
      <point x="55" y="742" type="line" smooth="yes"/>
      <point x="38" y="742"/>
      <point x="30" y="732"/>
      <point x="30" y="719" type="curve" smooth="yes"/>
      <point x="30" y="600" type="line" smooth="yes"/>
      <point x="30" y="586"/>
      <point x="39" y="581"/>
      <point x="53" y="581" type="curve" smooth="yes"/>
      <point x="231" y="581" type="line" smooth="yes"/>
      <point x="239" y="581"/>
      <point x="242" y="577"/>
      <point x="242" y="567" type="curve" smooth="yes"/>
      <point x="242" y="20" type="line" smooth="yes"/>
      <point x="242" y="7"/>
      <point x="249" y="0"/>
      <point x="260" y="0" type="curve" smooth="yes"/>
      <point x="447" y="0" type="line" smooth="yes"/>
      <point x="458" y="0"/>
      <point x="466" y="7"/>
      <point x="466" y="22" type="curve" smooth="yes"/>
      <point x="469" y="571" type="line"/>
      <point x="470" y="578"/>
      <point x="473" y="581"/>
      <point x="481" y="581" type="curve" smooth="yes"/>
      <point x="660" y="581" type="line" smooth="yes"/>
      <point x="673" y="581"/>
      <point x="682" y="586"/>
      <point x="682" y="600" type="curve" smooth="yes"/>
      <point x="682" y="719" type="line" smooth="yes"/>
      <point x="682" y="732"/>
      <point x="674" y="742"/>
      <point x="657" y="742" type="curve" smooth="yes"/>
    </contour>
  </outline>
</glyph>
<glyph name="U" format="1">
  <advance width="648"/>
  <unicode hex="0055"/>
  <outline>
    <contour>
      <point x="30" y="699"/>
      <point x="26" y="695"/>
      <point x="23" y="685" type="curve" smooth="yes"/>
      <point x="19" y="673"/>
      <point x="19" y="308"/>
      <point x="22" y="239" type="curve" smooth="yes"/>
      <point x="24" y="210"/>
      <point x="26" y="183"/>
      <point x="27" y="179" type="curve" smooth="yes"/>
      <point x="34" y="151"/>
      <point x="37" y="143"/>
      <point x="52" y="112" type="curve" smooth="yes"/>
      <point x="57" y="100"/>
      <point x="64" y="90"/>
      <point x="68" y="85" type="curve" smooth="yes"/>
      <point x="72" y="81"/>
      <point x="78" y="75"/>
      <point x="81" y="71" type="curve" smooth="yes"/>
      <point x="90" y="59"/>
      <point x="140" y="25"/>
      <point x="154" y="20" type="curve" smooth="yes"/>
      <point x="157" y="20"/>
      <point x="160" y="18"/>
      <point x="162" y="16" type="curve" smooth="yes"/>
      <point x="168" y="11"/>
      <point x="217" y="-3"/>
      <point x="240" y="-7" type="curve" smooth="yes"/>
      <point x="273" y="-12"/>
      <point x="362" y="-14"/>
      <point x="379" y="-10" type="curve" smooth="yes"/>
      <point x="384" y="-9"/>
      <point x="391" y="-8"/>
      <point x="397" y="-8" type="curve" smooth="yes"/>
      <point x="408" y="-8"/>
      <point x="448" y="1"/>
      <point x="467" y="9" type="curve" smooth="yes"/>
      <point x="481" y="14"/>
      <point x="509" y="29"/>
      <point x="528" y="41" type="curve" smooth="yes"/>
      <point x="541" y="49"/>
      <point x="567" y="75"/>
      <point x="577" y="89" type="curve" smooth="yes"/>
      <point x="598" y="116"/>
      <point x="616" y="158"/>
      <point x="619" y="184" type="curve" smooth="yes"/>
      <point x="619" y="190"/>
      <point x="621" y="200"/>
      <point x="622" y="207" type="curve" smooth="yes"/>
      <point x="623" y="213"/>
      <point x="625" y="228"/>
      <point x="625" y="238" type="curve" smooth="yes"/>
      <point x="626" y="253"/>
      <point x="627" y="545"/>
      <point x="626" y="580" type="curve" smooth="yes"/>
      <point x="626" y="586"/>
      <point x="626" y="613"/>
      <point x="627" y="639" type="curve" smooth="yes"/>
      <point x="628" y="686" type="line"/>
      <point x="623" y="692" type="line"/>
      <point x="617" y="698" type="line"/>
      <point x="541" y="699" type="line" smooth="yes"/>
      <point x="499" y="699"/>
      <point x="463" y="699"/>
      <point x="460" y="698" type="curve" smooth="yes"/>
      <point x="453" y="695"/>
      <point x="450" y="684"/>
      <point x="451" y="668" type="curve" smooth="yes"/>
      <point x="452" y="657"/>
      <point x="454" y="486"/>
      <point x="454" y="359" type="curve" smooth="yes"/>
      <point x="454" y="355"/>
      <point x="454" y="329"/>
      <point x="453" y="300" type="curve" smooth="yes"/>
      <point x="452" y="234"/>
      <point x="450" y="221"/>
      <point x="436" y="190" type="curve" smooth="yes"/>
      <point x="431" y="178"/>
      <point x="427" y="174"/>
      <point x="418" y="167" type="curve" smooth="yes"/>
      <point x="412" y="163"/>
      <point x="405" y="157"/>
      <point x="402" y="156" type="curve" smooth="yes"/>
      <point x="399" y="154"/>
      <point x="394" y="151"/>
      <point x="390" y="149" type="curve" smooth="yes"/>
      <point x="385" y="145"/>
      <point x="376" y="144"/>
      <point x="359" y="141" type="curve" smooth="yes"/>
      <point x="335" y="138" type="line"/>
      <point x="316" y="144" type="line" smooth="yes"/>
      <point x="306" y="148"/>
      <point x="295" y="151"/>
      <point x="292" y="152" type="curve" smooth="yes"/>
      <point x="285" y="155"/>
      <point x="257" y="182"/>
      <point x="250" y="193" type="curve" smooth="yes"/>
      <point x="238" y="213"/>
      <point x="238" y="215"/>
      <point x="233" y="342" type="curve" smooth="yes"/>
      <point x="233" y="349"/>
      <point x="234" y="373"/>
      <point x="235" y="397" type="curve" smooth="yes"/>
      <point x="236" y="420"/>
      <point x="237" y="480"/>
      <point x="237" y="529" type="curve" smooth="yes"/>
      <point x="237" y="579"/>
      <point x="238" y="635"/>
      <point x="239" y="654" type="curve" smooth="yes"/>
      <point x="240" y="689" type="line"/>
      <point x="235" y="694" type="line" smooth="yes"/>
      <point x="229" y="701"/>
      <point x="217" y="703"/>
      <point x="185" y="701" type="curve" smooth="yes"/>
      <point x="148" y="699"/>
      <point x="128" y="699"/>
      <point x="82" y="700" type="curve" smooth="yes"/>
      <point x="59" y="701"/>
      <point x="38" y="701"/>
      <point x="36" y="701" type="curve" smooth="yes"/>
    </contour>
    <contour>
      <point x="213" y="116"/>
      <point x="210" y="118"/>
      <point x="208" y="120" type="curve" smooth="yes"/>
      <point x="204" y="124"/>
      <point x="204" y="125"/>
      <point x="207" y="127" type="curve" smooth="yes"/>
      <point x="209" y="128"/>
      <point x="210" y="127"/>
      <point x="212" y="123" type="curve" smooth="yes"/>
      <point x="213" y="120"/>
      <point x="214" y="117"/>
      <point x="213" y="117" type="curve" smooth="yes"/>
    </contour>
    <contour>
      <point x="327" y="61"/>
      <point x="328" y="60"/>
      <point x="327" y="59" type="curve" smooth="yes"/>
      <point x="325" y="56"/>
      <point x="318" y="58"/>
      <point x="318" y="61" type="curve" smooth="yes"/>
      <point x="318" y="65"/>
      <point x="321" y="65"/>
      <point x="325" y="62" type="curve" smooth="yes"/>
    </contour>
  </outline>
</glyph>
<glyph name="V" format="1">
  <advance width="703"/>
  <unicode hex="0056"/>
  <outline>
    <contour>
      <point x="18" y="694"/>
      <point x="17" y="682"/>
      <point x="26" y="656" type="curve" smooth="yes"/>
      <point x="29" y="646"/>
      <point x="36" y="626"/>
      <point x="42" y="610" type="curve" smooth="yes"/>
      <point x="47" y="595"/>
      <point x="54" y="575"/>
      <point x="57" y="567" type="curve" smooth="yes"/>
      <point x="63" y="550"/>
      <point x="63" y="553"/>
      <point x="83" y="490" type="curve" smooth="yes"/>
      <point x="92" y="463"/>
      <point x="102" y="436"/>
      <point x="105" y="428" type="curve" smooth="yes"/>
      <point x="114" y="404"/>
      <point x="123" y="377"/>
      <point x="123" y="374" type="curve" smooth="yes"/>
      <point x="123" y="372"/>
      <point x="125" y="367"/>
      <point x="127" y="363" type="curve" smooth="yes"/>
      <point x="129" y="359"/>
      <point x="134" y="344"/>
      <point x="139" y="329" type="curve" smooth="yes"/>
      <point x="143" y="315"/>
      <point x="150" y="292"/>
      <point x="155" y="278" type="curve" smooth="yes"/>
      <point x="160" y="264"/>
      <point x="167" y="245"/>
      <point x="170" y="236" type="curve" smooth="yes"/>
      <point x="173" y="227"/>
      <point x="178" y="214"/>
      <point x="181" y="208" type="curve" smooth="yes"/>
      <point x="183" y="201"/>
      <point x="187" y="188"/>
      <point x="190" y="178" type="curve" smooth="yes"/>
      <point x="192" y="169"/>
      <point x="195" y="159"/>
      <point x="196" y="157" type="curve" smooth="yes"/>
      <point x="198" y="155"/>
      <point x="203" y="141"/>
      <point x="207" y="127" type="curve" smooth="yes"/>
      <point x="212" y="112"/>
      <point x="218" y="93"/>
      <point x="221" y="84" type="curve" smooth="yes"/>
      <point x="231" y="57"/>
      <point x="237" y="39"/>
      <point x="239" y="30" type="curve" smooth="yes"/>
      <point x="241" y="19"/>
      <point x="249" y="8"/>
      <point x="258" y="4" type="curve" smooth="yes"/>
      <point x="263" y="2"/>
      <point x="274" y="1"/>
      <point x="296" y="1" type="curve" smooth="yes"/>
      <point x="313" y="0"/>
      <point x="328" y="0"/>
      <point x="329" y="0" type="curve" smooth="yes"/>
      <point x="330" y="0"/>
      <point x="355" y="1"/>
      <point x="385" y="1" type="curve" smooth="yes"/>
      <point x="444" y="2"/>
      <point x="447" y="3"/>
      <point x="455" y="13" type="curve" smooth="yes"/>
      <point x="457" y="16"/>
      <point x="460" y="20"/>
      <point x="461" y="21" type="curve" smooth="yes"/>
      <point x="463" y="23"/>
      <point x="474" y="56"/>
      <point x="486" y="94" type="curve" smooth="yes"/>
      <point x="490" y="105"/>
      <point x="494" y="118"/>
      <point x="496" y="123" type="curve" smooth="yes"/>
      <point x="498" y="128"/>
      <point x="500" y="136"/>
      <point x="502" y="142" type="curve" smooth="yes"/>
      <point x="503" y="148"/>
      <point x="508" y="162"/>
      <point x="512" y="173" type="curve" smooth="yes"/>
      <point x="516" y="183"/>
      <point x="521" y="197"/>
      <point x="523" y="204" type="curve" smooth="yes"/>
      <point x="525" y="210"/>
      <point x="530" y="227"/>
      <point x="535" y="240" type="curve" smooth="yes"/>
      <point x="540" y="254"/>
      <point x="545" y="270"/>
      <point x="547" y="276" type="curve" smooth="yes"/>
      <point x="548" y="283"/>
      <point x="550" y="291"/>
      <point x="552" y="295" type="curve" smooth="yes"/>
      <point x="559" y="310"/>
      <point x="569" y="338"/>
      <point x="577" y="363" type="curve" smooth="yes"/>
      <point x="581" y="376"/>
      <point x="587" y="395"/>
      <point x="591" y="406" type="curve" smooth="yes"/>
      <point x="600" y="427"/>
      <point x="610" y="456"/>
      <point x="618" y="486" type="curve" smooth="yes"/>
      <point x="622" y="498"/>
      <point x="627" y="512"/>
      <point x="629" y="518" type="curve" smooth="yes"/>
      <point x="635" y="529"/>
      <point x="642" y="549"/>
      <point x="648" y="569" type="curve" smooth="yes"/>
      <point x="650" y="577"/>
      <point x="654" y="588"/>
      <point x="656" y="592" type="curve" smooth="yes"/>
      <point x="660" y="603"/>
      <point x="667" y="622"/>
      <point x="670" y="639" type="curve" smooth="yes"/>
      <point x="672" y="646"/>
      <point x="676" y="656"/>
      <point x="678" y="662" type="curve" smooth="yes"/>
      <point x="683" y="672"/>
      <point x="685" y="685"/>
      <point x="681" y="689" type="curve" smooth="yes"/>
      <point x="680" y="690"/>
      <point x="675" y="693"/>
      <point x="670" y="695" type="curve" smooth="yes"/>
      <point x="662" y="697"/>
      <point x="652" y="698"/>
      <point x="594" y="697" type="curve" smooth="yes"/>
      <point x="529" y="697"/>
      <point x="525" y="697"/>
      <point x="511" y="690" type="curve" smooth="yes"/>
      <point x="506" y="688"/>
      <point x="498" y="667"/>
      <point x="494" y="648" type="curve" smooth="yes"/>
      <point x="493" y="644"/>
      <point x="491" y="637"/>
      <point x="489" y="632" type="curve" smooth="yes"/>
      <point x="487" y="627"/>
      <point x="485" y="619"/>
      <point x="483" y="614" type="curve" smooth="yes"/>
      <point x="482" y="609"/>
      <point x="479" y="600"/>
      <point x="476" y="594" type="curve" smooth="yes"/>
      <point x="474" y="587"/>
      <point x="471" y="575"/>
      <point x="468" y="567" type="curve" smooth="yes"/>
      <point x="465" y="553"/>
      <point x="460" y="541"/>
      <point x="457" y="534" type="curve" smooth="yes"/>
      <point x="456" y="532"/>
      <point x="455" y="528"/>
      <point x="455" y="526" type="curve" smooth="yes"/>
      <point x="455" y="523"/>
      <point x="451" y="510"/>
      <point x="447" y="496" type="curve" smooth="yes"/>
      <point x="442" y="482"/>
      <point x="438" y="466"/>
      <point x="436" y="460" type="curve" smooth="yes"/>
      <point x="432" y="442"/>
      <point x="430" y="436"/>
      <point x="425" y="423" type="curve" smooth="yes"/>
      <point x="422" y="416"/>
      <point x="420" y="409"/>
      <point x="420" y="408" type="curve" smooth="yes"/>
      <point x="420" y="406"/>
      <point x="417" y="396"/>
      <point x="413" y="385" type="curve" smooth="yes"/>
      <point x="409" y="374"/>
      <point x="403" y="355"/>
      <point x="399" y="343" type="curve" smooth="yes"/>
      <point x="396" y="330"/>
      <point x="391" y="315"/>
      <point x="389" y="309" type="curve" smooth="yes"/>
      <point x="385" y="298"/>
      <point x="377" y="274"/>
      <point x="373" y="258" type="curve" smooth="yes"/>
      <point x="369" y="245"/>
      <point x="366" y="248"/>
      <point x="360" y="271" type="curve" smooth="yes"/>
      <point x="358" y="278"/>
      <point x="355" y="287"/>
      <point x="353" y="291" type="curve" smooth="yes"/>
      <point x="351" y="295"/>
      <point x="349" y="303"/>
      <point x="348" y="308" type="curve" smooth="yes"/>
      <point x="347" y="314"/>
      <point x="343" y="324"/>
      <point x="340" y="331" type="curve" smooth="yes"/>
      <point x="336" y="339"/>
      <point x="334" y="345"/>
      <point x="334" y="353" type="curve" smooth="yes"/>
      <point x="334" y="361"/>
      <point x="328" y="380"/>
      <point x="322" y="392" type="curve" smooth="yes"/>
      <point x="321" y="394"/>
      <point x="320" y="398"/>
      <point x="320" y="401" type="curve" smooth="yes"/>
      <point x="320" y="403"/>
      <point x="318" y="411"/>
      <point x="316" y="418" type="curve" smooth="yes"/>
      <point x="313" y="424"/>
      <point x="308" y="439"/>
      <point x="305" y="449" type="curve" smooth="yes"/>
      <point x="302" y="460"/>
      <point x="295" y="481"/>
      <point x="290" y="496" type="curve" smooth="yes"/>
      <point x="286" y="510"/>
      <point x="281" y="525"/>
      <point x="280" y="529" type="curve" smooth="yes"/>
      <point x="279" y="535"/>
      <point x="273" y="557"/>
      <point x="269" y="570" type="curve" smooth="yes"/>
      <point x="266" y="579"/>
      <point x="260" y="600"/>
      <point x="255" y="617" type="curve" smooth="yes"/>
      <point x="252" y="628"/>
      <point x="244" y="652"/>
      <point x="237" y="676" type="curve" smooth="yes"/>
      <point x="234" y="687"/>
      <point x="230" y="692"/>
      <point x="223" y="696" type="curve" smooth="yes"/>
      <point x="221" y="697"/>
      <point x="199" y="698"/>
      <point x="157" y="699" type="curve" smooth="yes"/>
      <point x="123" y="700"/>
      <point x="83" y="700"/>
      <point x="68" y="701" type="curve" smooth="yes"/>
      <point x="47" y="701"/>
      <point x="39" y="701"/>
      <point x="32" y="699" type="curve" smooth="yes"/>
    </contour>
  </outline>
</glyph>
<glyph name="W" format="1">
  <advance width="1037"/>
  <unicode hex="0057"/>
  <outline>
    <contour>
      <point x="32" y="702"/>
      <point x="23" y="697"/>
      <point x="21" y="691" type="curve" smooth="yes"/>
      <point x="18" y="686"/>
      <point x="20" y="664"/>
      <point x="24" y="655" type="curve" smooth="yes"/>
      <point x="26" y="650"/>
      <point x="43" y="596"/>
      <point x="50" y="570" type="curve" smooth="yes"/>
      <point x="53" y="561"/>
      <point x="61" y="537"/>
      <point x="67" y="519" type="curve" smooth="yes"/>
      <point x="73" y="500"/>
      <point x="79" y="481"/>
      <point x="80" y="476" type="curve" smooth="yes"/>
      <point x="89" y="445"/>
      <point x="96" y="421"/>
      <point x="100" y="412" type="curve" smooth="yes"/>
      <point x="102" y="407"/>
      <point x="105" y="397"/>
      <point x="106" y="391" type="curve" smooth="yes"/>
      <point x="108" y="380"/>
      <point x="115" y="359"/>
      <point x="122" y="338" type="curve" smooth="yes"/>
      <point x="125" y="329"/>
      <point x="132" y="304"/>
      <point x="140" y="275" type="curve" smooth="yes"/>
      <point x="141" y="270"/>
      <point x="144" y="261"/>
      <point x="146" y="254" type="curve" smooth="yes"/>
      <point x="156" y="226"/>
      <point x="167" y="189"/>
      <point x="172" y="173" type="curve" smooth="yes"/>
      <point x="174" y="163"/>
      <point x="178" y="151"/>
      <point x="179" y="145" type="curve" smooth="yes"/>
      <point x="181" y="140"/>
      <point x="184" y="127"/>
      <point x="187" y="117" type="curve" smooth="yes"/>
      <point x="190" y="107"/>
      <point x="193" y="95"/>
      <point x="195" y="90" type="curve" smooth="yes"/>
      <point x="196" y="85"/>
      <point x="199" y="75"/>
      <point x="201" y="67" type="curve" smooth="yes"/>
      <point x="203" y="60"/>
      <point x="207" y="45"/>
      <point x="210" y="34" type="curve" smooth="yes"/>
      <point x="219" y="4"/>
      <point x="225" y="0"/>
      <point x="261" y="0" type="curve" smooth="yes"/>
      <point x="401" y="1"/>
      <point x="403" y="2"/>
      <point x="410" y="12" type="curve" smooth="yes"/>
      <point x="414" y="16"/>
      <point x="425" y="54"/>
      <point x="433" y="90" type="curve" smooth="yes"/>
      <point x="434" y="96"/>
      <point x="437" y="104"/>
      <point x="438" y="109" type="curve" smooth="yes"/>
      <point x="443" y="125"/>
      <point x="451" y="152"/>
      <point x="458" y="175" type="curve" smooth="yes"/>
      <point x="466" y="207"/>
      <point x="468" y="211"/>
      <point x="479" y="247" type="curve" smooth="yes"/>
      <point x="484" y="265"/>
      <point x="490" y="282"/>
      <point x="491" y="285" type="curve" smooth="yes"/>
      <point x="493" y="288"/>
      <point x="494" y="292"/>
      <point x="494" y="295" type="curve" smooth="yes"/>
      <point x="494" y="297"/>
      <point x="498" y="309"/>
      <point x="502" y="322" type="curve" smooth="yes"/>
      <point x="506" y="334"/>
      <point x="511" y="351"/>
      <point x="513" y="358" type="curve" smooth="yes"/>
      <point x="517" y="369"/>
      <point x="519" y="373"/>
      <point x="521" y="373" type="curve" smooth="yes"/>
      <point x="524" y="373"/>
      <point x="526" y="370"/>
      <point x="529" y="358" type="curve" smooth="yes"/>
      <point x="531" y="351"/>
      <point x="534" y="340"/>
      <point x="536" y="335" type="curve" smooth="yes"/>
      <point x="538" y="330"/>
      <point x="539" y="325"/>
      <point x="539" y="323" type="curve" smooth="yes"/>
      <point x="539" y="322"/>
      <point x="541" y="317"/>
      <point x="543" y="311" type="curve" smooth="yes"/>
      <point x="547" y="300"/>
      <point x="560" y="259"/>
      <point x="561" y="251" type="curve" smooth="yes"/>
      <point x="563" y="244"/>
      <point x="571" y="215"/>
      <point x="581" y="185" type="curve" smooth="yes"/>
      <point x="585" y="174"/>
      <point x="589" y="159"/>
      <point x="590" y="152" type="curve" smooth="yes"/>
      <point x="592" y="145"/>
      <point x="598" y="122"/>
      <point x="604" y="101" type="curve" smooth="yes"/>
      <point x="610" y="81"/>
      <point x="616" y="59"/>
      <point x="617" y="55" type="curve" smooth="yes"/>
      <point x="621" y="36"/>
      <point x="627" y="17"/>
      <point x="630" y="13" type="curve" smooth="yes"/>
      <point x="639" y="4"/>
      <point x="642" y="3"/>
      <point x="704" y="3" type="curve" smooth="yes"/>
      <point x="737" y="2"/>
      <point x="766" y="1"/>
      <point x="771" y="0" type="curve" smooth="yes"/>
      <point x="779" y="-2"/>
      <point x="782" y="-1"/>
      <point x="796" y="2" type="curve" smooth="yes"/>
      <point x="804" y="4"/>
      <point x="813" y="8"/>
      <point x="815" y="10" type="curve" smooth="yes"/>
      <point x="821" y="15"/>
      <point x="831" y="42"/>
      <point x="833" y="55" type="curve" smooth="yes"/>
      <point x="835" y="69"/>
      <point x="851" y="124"/>
      <point x="869" y="178" type="curve" smooth="yes"/>
      <point x="872" y="188"/>
      <point x="876" y="200"/>
      <point x="877" y="206" type="curve" smooth="yes"/>
      <point x="881" y="219"/>
      <point x="888" y="245"/>
      <point x="896" y="269" type="curve" smooth="yes"/>
      <point x="902" y="289"/>
      <point x="911" y="320"/>
      <point x="917" y="342" type="curve" smooth="yes"/>
      <point x="919" y="353"/>
      <point x="922" y="362"/>
      <point x="937" y="406" type="curve" smooth="yes"/>
      <point x="940" y="414"/>
      <point x="944" y="426"/>
      <point x="946" y="433" type="curve" smooth="yes"/>
      <point x="953" y="464"/>
      <point x="957" y="477"/>
      <point x="961" y="488" type="curve" smooth="yes"/>
      <point x="964" y="495"/>
      <point x="968" y="509"/>
      <point x="971" y="521" type="curve" smooth="yes"/>
      <point x="974" y="532"/>
      <point x="977" y="543"/>
      <point x="979" y="546" type="curve" smooth="yes"/>
      <point x="980" y="549"/>
      <point x="984" y="561"/>
      <point x="988" y="574" type="curve" smooth="yes"/>
      <point x="994" y="597"/>
      <point x="1002" y="624"/>
      <point x="1010" y="646" type="curve" smooth="yes"/>
      <point x="1022" y="679"/>
      <point x="1020" y="692"/>
      <point x="1001" y="698" type="curve" smooth="yes"/>
      <point x="992" y="701"/>
      <point x="947" y="701"/>
      <point x="941" y="698" type="curve" smooth="yes"/>
      <point x="938" y="697"/>
      <point x="935" y="697"/>
      <point x="930" y="698" type="curve" smooth="yes"/>
      <point x="926" y="700"/>
      <point x="910" y="701"/>
      <point x="894" y="701" type="curve" smooth="yes"/>
      <point x="857" y="701"/>
      <point x="851" y="699"/>
      <point x="846" y="678" type="curve" smooth="yes"/>
      <point x="845" y="673"/>
      <point x="839" y="649"/>
      <point x="833" y="626" type="curve" smooth="yes"/>
      <point x="827" y="603"/>
      <point x="821" y="581"/>
      <point x="819" y="577" type="curve" smooth="yes"/>
      <point x="818" y="573"/>
      <point x="815" y="565"/>
      <point x="815" y="560" type="curve" smooth="yes"/>
      <point x="814" y="555"/>
      <point x="812" y="548"/>
      <point x="810" y="543" type="curve" smooth="yes"/>
      <point x="808" y="539"/>
      <point x="805" y="529"/>
      <point x="804" y="522" type="curve" smooth="yes"/>
      <point x="795" y="483"/>
      <point x="792" y="470"/>
      <point x="789" y="459" type="curve" smooth="yes"/>
      <point x="777" y="424"/>
      <point x="773" y="411"/>
      <point x="770" y="399" type="curve" smooth="yes"/>
      <point x="768" y="391"/>
      <point x="766" y="381"/>
      <point x="765" y="376" type="curve" smooth="yes"/>
      <point x="764" y="372"/>
      <point x="762" y="364"/>
      <point x="760" y="359" type="curve" smooth="yes"/>
      <point x="759" y="354"/>
      <point x="756" y="343"/>
      <point x="754" y="335" type="curve" smooth="yes"/>
      <point x="752" y="322"/>
      <point x="751" y="320"/>
      <point x="747" y="320" type="curve" smooth="yes"/>
      <point x="743" y="320"/>
      <point x="742" y="322"/>
      <point x="734" y="348" type="curve" smooth="yes"/>
      <point x="730" y="363"/>
      <point x="725" y="378"/>
      <point x="724" y="381" type="curve" smooth="yes"/>
      <point x="719" y="396"/>
      <point x="717" y="404"/>
      <point x="713" y="421" type="curve" smooth="yes"/>
      <point x="710" y="431"/>
      <point x="705" y="449"/>
      <point x="702" y="459" type="curve" smooth="yes"/>
      <point x="696" y="478"/>
      <point x="689" y="500"/>
      <point x="686" y="516" type="curve" smooth="yes"/>
      <point x="685" y="520"/>
      <point x="680" y="535"/>
      <point x="676" y="549" type="curve" smooth="yes"/>
      <point x="671" y="563"/>
      <point x="665" y="586"/>
      <point x="661" y="601" type="curve" smooth="yes"/>
      <point x="636" y="694"/>
      <point x="636" y="694"/>
      <point x="625" y="700" type="curve" smooth="yes"/>
      <point x="618" y="704"/>
      <point x="612" y="704"/>
      <point x="541" y="705" type="curve" smooth="yes"/>
      <point x="464" y="705" type="line"/>
      <point x="457" y="700" type="line" smooth="yes"/>
      <point x="453" y="698"/>
      <point x="449" y="694"/>
      <point x="448" y="693" type="curve" smooth="yes"/>
      <point x="446" y="689"/>
      <point x="424" y="612"/>
      <point x="416" y="581" type="curve" smooth="yes"/>
      <point x="412" y="563"/>
      <point x="405" y="542"/>
      <point x="401" y="530" type="curve" smooth="yes"/>
      <point x="400" y="526"/>
      <point x="397" y="516"/>
      <point x="396" y="510" type="curve" smooth="yes"/>
      <point x="394" y="504"/>
      <point x="391" y="491"/>
      <point x="388" y="483" type="curve" smooth="yes"/>
      <point x="385" y="474"/>
      <point x="383" y="465"/>
      <point x="383" y="463" type="curve" smooth="yes"/>
      <point x="383" y="461"/>
      <point x="379" y="447"/>
      <point x="375" y="432" type="curve" smooth="yes"/>
      <point x="371" y="417"/>
      <point x="366" y="398"/>
      <point x="363" y="390" type="curve" smooth="yes"/>
      <point x="361" y="382"/>
      <point x="358" y="371"/>
      <point x="357" y="367" type="curve" smooth="yes"/>
      <point x="355" y="362"/>
      <point x="352" y="350"/>
      <point x="349" y="341" type="curve" smooth="yes"/>
      <point x="346" y="331"/>
      <point x="343" y="324"/>
      <point x="342" y="324" type="curve" smooth="yes"/>
      <point x="337" y="324"/>
      <point x="332" y="336"/>
      <point x="315" y="400" type="curve" smooth="yes"/>
      <point x="313" y="407"/>
      <point x="307" y="427"/>
      <point x="302" y="444" type="curve" smooth="yes"/>
      <point x="297" y="461"/>
      <point x="292" y="479"/>
      <point x="291" y="484" type="curve" smooth="yes"/>
      <point x="290" y="488"/>
      <point x="287" y="501"/>
      <point x="284" y="512" type="curve" smooth="yes"/>
      <point x="280" y="523"/>
      <point x="276" y="538"/>
      <point x="274" y="545" type="curve" smooth="yes"/>
      <point x="272" y="553"/>
      <point x="269" y="562"/>
      <point x="267" y="566" type="curve" smooth="yes"/>
      <point x="266" y="569"/>
      <point x="264" y="576"/>
      <point x="263" y="580" type="curve" smooth="yes"/>
      <point x="262" y="585"/>
      <point x="259" y="596"/>
      <point x="256" y="606" type="curve" smooth="yes"/>
      <point x="249" y="631"/>
      <point x="246" y="641"/>
      <point x="244" y="653" type="curve" smooth="yes"/>
      <point x="242" y="669"/>
      <point x="233" y="691"/>
      <point x="228" y="696" type="curve" smooth="yes"/>
      <point x="219" y="705"/>
      <point x="208" y="706"/>
      <point x="128" y="705" type="curve" smooth="yes"/>
      <point x="86" y="705"/>
      <point x="49" y="705"/>
      <point x="44" y="704" type="curve" smooth="yes"/>
    </contour>
  </outline>
</glyph>
<glyph name="X" format="1">
  <advance width="726"/>
  <unicode hex="0058"/>
  <outline>
    <contour>
      <point x="586" y="706"/>
      <point x="575" y="705"/>
      <point x="564" y="705" type="curve" smooth="yes"/>
      <point x="527" y="705"/>
      <point x="489" y="703"/>
      <point x="484" y="701" type="curve" smooth="yes"/>
      <point x="477" y="698"/>
      <point x="471" y="691"/>
      <point x="462" y="676" type="curve" smooth="yes"/>
      <point x="459" y="669"/>
      <point x="449" y="653"/>
      <point x="441" y="641" type="curve" smooth="yes"/>
      <point x="433" y="628"/>
      <point x="420" y="607"/>
      <point x="412" y="592" type="curve" smooth="yes"/>
      <point x="404" y="578"/>
      <point x="396" y="565"/>
      <point x="394" y="563" type="curve" smooth="yes"/>
      <point x="392" y="561"/>
      <point x="388" y="554"/>
      <point x="385" y="547" type="curve" smooth="yes"/>
      <point x="373" y="521"/>
      <point x="367" y="519"/>
      <point x="353" y="540" type="curve" smooth="yes"/>
      <point x="349" y="547"/>
      <point x="345" y="553"/>
      <point x="345" y="554" type="curve" smooth="yes"/>
      <point x="345" y="555"/>
      <point x="340" y="564"/>
      <point x="334" y="574" type="curve" smooth="yes"/>
      <point x="327" y="587"/>
      <point x="322" y="597"/>
      <point x="320" y="605" type="curve" smooth="yes"/>
      <point x="318" y="615"/>
      <point x="316" y="618"/>
      <point x="308" y="625" type="curve" smooth="yes"/>
      <point x="303" y="629"/>
      <point x="296" y="637"/>
      <point x="294" y="643" type="curve" smooth="yes"/>
      <point x="291" y="648"/>
      <point x="286" y="656"/>
      <point x="283" y="660" type="curve" smooth="yes"/>
      <point x="280" y="664"/>
      <point x="276" y="670"/>
      <point x="274" y="675" type="curve" smooth="yes"/>
      <point x="270" y="685"/>
      <point x="260" y="696"/>
      <point x="251" y="701" type="curve" smooth="yes"/>
      <point x="243" y="705"/>
      <point x="241" y="705"/>
      <point x="139" y="706" type="curve" smooth="yes"/>
      <point x="27" y="706"/>
      <point x="27" y="706"/>
      <point x="22" y="696" type="curve" smooth="yes"/>
      <point x="18" y="689"/>
      <point x="20" y="679"/>
      <point x="28" y="667" type="curve" smooth="yes"/>
      <point x="32" y="661"/>
      <point x="38" y="652"/>
      <point x="41" y="646" type="curve" smooth="yes"/>
      <point x="45" y="640"/>
      <point x="52" y="630"/>
      <point x="57" y="623" type="curve" smooth="yes"/>
      <point x="63" y="617"/>
      <point x="70" y="606"/>
      <point x="74" y="600" type="curve" smooth="yes"/>
      <point x="77" y="594"/>
      <point x="83" y="585"/>
      <point x="87" y="580" type="curve" smooth="yes"/>
      <point x="91" y="575"/>
      <point x="96" y="567"/>
      <point x="100" y="562" type="curve" smooth="yes"/>
      <point x="103" y="557"/>
      <point x="107" y="551"/>
      <point x="110" y="548" type="curve" smooth="yes"/>
      <point x="112" y="545"/>
      <point x="118" y="536"/>
      <point x="123" y="528" type="curve" smooth="yes"/>
      <point x="138" y="505"/>
      <point x="151" y="486"/>
      <point x="160" y="476" type="curve" smooth="yes"/>
      <point x="165" y="472"/>
      <point x="171" y="463"/>
      <point x="173" y="457" type="curve" smooth="yes"/>
      <point x="176" y="451"/>
      <point x="180" y="444"/>
      <point x="183" y="441" type="curve" smooth="yes"/>
      <point x="185" y="439"/>
      <point x="189" y="432"/>
      <point x="192" y="426" type="curve" smooth="yes"/>
      <point x="195" y="420"/>
      <point x="201" y="411"/>
      <point x="206" y="406" type="curve" smooth="yes"/>
      <point x="210" y="402"/>
      <point x="216" y="395"/>
      <point x="217" y="393" type="curve" smooth="yes"/>
      <point x="219" y="390"/>
      <point x="224" y="383"/>
      <point x="228" y="377" type="curve" smooth="yes"/>
      <point x="243" y="357"/>
      <point x="243" y="355"/>
      <point x="225" y="329" type="curve" smooth="yes"/>
      <point x="203" y="297"/>
      <point x="201" y="294"/>
      <point x="199" y="291" type="curve" smooth="yes"/>
      <point x="195" y="286"/>
      <point x="180" y="262"/>
      <point x="180" y="260" type="curve" smooth="yes"/>
      <point x="180" y="260"/>
      <point x="176" y="254"/>
      <point x="171" y="248" type="curve" smooth="yes"/>
      <point x="166" y="243"/>
      <point x="161" y="236"/>
      <point x="160" y="234" type="curve" smooth="yes"/>
      <point x="159" y="232"/>
      <point x="153" y="223"/>
      <point x="147" y="214" type="curve" smooth="yes"/>
      <point x="131" y="190"/>
      <point x="123" y="178"/>
      <point x="112" y="160" type="curve" smooth="yes"/>
      <point x="107" y="151"/>
      <point x="100" y="142"/>
      <point x="98" y="140" type="curve" smooth="yes"/>
      <point x="92" y="135"/>
      <point x="77" y="114"/>
      <point x="71" y="102" type="curve" smooth="yes"/>
      <point x="69" y="96"/>
      <point x="61" y="85"/>
      <point x="55" y="77" type="curve" smooth="yes"/>
      <point x="42" y="60"/>
      <point x="42" y="60"/>
      <point x="31" y="42" type="curve" smooth="yes"/>
      <point x="19" y="23"/>
      <point x="17" y="13"/>
      <point x="25" y="6" type="curve" smooth="yes"/>
      <point x="27" y="3"/>
      <point x="32" y="1"/>
      <point x="35" y="0" type="curve" smooth="yes"/>
      <point x="46" y="-2"/>
      <point x="196" y="0"/>
      <point x="202" y="3" type="curve" smooth="yes"/>
      <point x="213" y="7"/>
      <point x="220" y="16"/>
      <point x="233" y="41" type="curve" smooth="yes"/>
      <point x="244" y="60"/>
      <point x="264" y="95"/>
      <point x="268" y="99" type="curve" smooth="yes"/>
      <point x="269" y="101"/>
      <point x="276" y="112"/>
      <point x="283" y="123" type="curve" smooth="yes"/>
      <point x="299" y="152"/>
      <point x="308" y="166"/>
      <point x="312" y="172" type="curve" smooth="yes"/>
      <point x="314" y="175"/>
      <point x="318" y="183"/>
      <point x="322" y="190" type="curve" smooth="yes"/>
      <point x="325" y="197"/>
      <point x="330" y="205"/>
      <point x="333" y="208" type="curve" smooth="yes"/>
      <point x="338" y="212"/>
      <point x="338" y="212"/>
      <point x="343" y="209" type="curve" smooth="yes"/>
      <point x="348" y="206"/>
      <point x="359" y="189"/>
      <point x="377" y="158" type="curve" smooth="yes"/>
      <point x="387" y="141"/>
      <point x="400" y="120"/>
      <point x="409" y="106" type="curve" smooth="yes"/>
      <point x="416" y="94"/>
      <point x="424" y="81"/>
      <point x="448" y="40" type="curve" smooth="yes"/>
      <point x="453" y="31"/>
      <point x="457" y="23"/>
      <point x="457" y="22" type="curve" smooth="yes"/>
      <point x="457" y="18"/>
      <point x="471" y="5"/>
      <point x="477" y="3" type="curve" smooth="yes"/>
      <point x="481" y="1"/>
      <point x="519" y="1"/>
      <point x="589" y="1" type="curve" smooth="yes"/>
      <point x="691" y="2"/>
      <point x="695" y="2"/>
      <point x="700" y="6" type="curve" smooth="yes"/>
      <point x="703" y="8"/>
      <point x="706" y="12"/>
      <point x="706" y="14" type="curve" smooth="yes"/>
      <point x="707" y="21"/>
      <point x="700" y="38"/>
      <point x="691" y="50" type="curve" smooth="yes"/>
      <point x="686" y="57"/>
      <point x="679" y="66"/>
      <point x="677" y="71" type="curve" smooth="yes"/>
      <point x="674" y="76"/>
      <point x="670" y="81"/>
      <point x="668" y="83" type="curve" smooth="yes"/>
      <point x="666" y="84"/>
      <point x="663" y="89"/>
      <point x="662" y="92" type="curve" smooth="yes"/>
      <point x="660" y="96"/>
      <point x="656" y="101"/>
      <point x="654" y="104" type="curve" smooth="yes"/>
      <point x="651" y="107"/>
      <point x="643" y="119"/>
      <point x="636" y="131" type="curve" smooth="yes"/>
      <point x="628" y="143"/>
      <point x="619" y="158"/>
      <point x="615" y="163" type="curve" smooth="yes"/>
      <point x="611" y="169"/>
      <point x="604" y="178"/>
      <point x="601" y="185" type="curve" smooth="yes"/>
      <point x="597" y="191"/>
      <point x="593" y="199"/>
      <point x="590" y="201" type="curve" smooth="yes"/>
      <point x="588" y="204"/>
      <point x="584" y="210"/>
      <point x="582" y="214" type="curve" smooth="yes"/>
      <point x="579" y="218"/>
      <point x="575" y="226"/>
      <point x="571" y="230" type="curve" smooth="yes"/>
      <point x="568" y="235"/>
      <point x="557" y="250"/>
      <point x="546" y="265" type="curve" smooth="yes"/>
      <point x="536" y="280"/>
      <point x="523" y="299"/>
      <point x="516" y="307" type="curve" smooth="yes"/>
      <point x="510" y="316"/>
      <point x="499" y="332"/>
      <point x="491" y="343" type="curve" smooth="yes"/>
      <point x="484" y="354"/>
      <point x="475" y="365"/>
      <point x="472" y="369" type="curve" smooth="yes"/>
      <point x="466" y="374"/>
      <point x="465" y="377"/>
      <point x="465" y="384" type="curve" smooth="yes"/>
      <point x="465" y="392"/>
      <point x="467" y="395"/>
      <point x="475" y="406" type="curve" smooth="yes"/>
      <point x="480" y="413"/>
      <point x="490" y="424"/>
      <point x="496" y="431" type="curve" smooth="yes"/>
      <point x="502" y="437"/>
      <point x="511" y="449"/>
      <point x="515" y="457" type="curve" smooth="yes"/>
      <point x="520" y="465"/>
      <point x="527" y="476"/>
      <point x="531" y="480" type="curve" smooth="yes"/>
      <point x="535" y="485"/>
      <point x="540" y="493"/>
      <point x="543" y="499" type="curve" smooth="yes"/>
      <point x="546" y="504"/>
      <point x="552" y="512"/>
      <point x="555" y="516" type="curve" smooth="yes"/>
      <point x="558" y="521"/>
      <point x="564" y="529"/>
      <point x="568" y="536" type="curve" smooth="yes"/>
      <point x="571" y="542"/>
      <point x="577" y="550"/>
      <point x="579" y="553" type="curve" smooth="yes"/>
      <point x="582" y="557"/>
      <point x="587" y="563"/>
      <point x="590" y="568" type="curve" smooth="yes"/>
      <point x="593" y="573"/>
      <point x="597" y="580"/>
      <point x="600" y="583" type="curve" smooth="yes"/>
      <point x="602" y="586"/>
      <point x="607" y="593"/>
      <point x="611" y="598" type="curve" smooth="yes"/>
      <point x="615" y="604"/>
      <point x="620" y="612"/>
      <point x="622" y="617" type="curve" smooth="yes"/>
      <point x="625" y="622"/>
      <point x="630" y="630"/>
      <point x="634" y="634" type="curve" smooth="yes"/>
      <point x="638" y="639"/>
      <point x="648" y="652"/>
      <point x="655" y="664" type="curve" smooth="yes"/>
      <point x="671" y="686"/>
      <point x="672" y="692"/>
      <point x="664" y="700" type="curve" smooth="yes"/>
      <point x="660" y="705"/>
      <point x="658" y="705"/>
      <point x="648" y="704" type="curve" smooth="yes"/>
      <point x="637" y="703"/>
      <point x="602" y="705"/>
      <point x="594" y="707" type="curve" smooth="yes"/>
      <point x="592" y="708"/>
      <point x="589" y="708"/>
      <point x="587" y="707" type="curve" smooth="yes"/>
    </contour>
  </outline>
</glyph>
